<svg xmlns="http://www.w3.org/2000/svg" viewBox="0 0 178.08 238.07"><title>Character  12</title><g id="Layer_2" data-name="Layer 2"><g id="Character_12" data-name="Character  12"><path d="M0,70.91l25.08-7.45c.44-1.55-.56-2-1.17-2.65-4.62-4.66-9.27-9.28-13.9-13.93A29.27,29.27,0,0,1,7.76,44.4a.91.91,0,0,1,.12-1.29c.74-.61,1.49-1.21,2.26-1.77,3.65-2.6,7.27-5.23,11-7.74A16.76,16.76,0,0,0,26,28.45c4-6.38,8.12-12.65,12.09-19,1.07-1.72,2.29-2.57,4.31-2.08.3.08.65,0,1,.11C48,8.82,52.5,7.77,57,6.59c8.5-2.22,17.09-4.1,25.6-6.32a5.21,5.21,0,0,1,5.26,1.09C89.84,3,92,4.38,94,6a6.2,6.2,0,0,0,4.88,1.43c5.41-.55,10.83-1,16.24-1.5C119.73,5.5,124.34,5,129,4.61c4.33-.36,4.28-.3,4.55,3.86.23,3.51.62,7,.89,10.52a3,3,0,0,0,1.64,2.7l3,1.57Q154.94,31.61,170.86,40c1.53.81,3.22,1.39,4.47,2.74-.07,1.68-1.1,3-1.8,4.36-2.23,4.43-4.48,8.85-6.85,13.2a2.88,2.88,0,0,0,.55,3.84c3.36,3.65,6.64,7.37,9.93,11.08a1.15,1.15,0,0,1-.38,1.92c-.59.25-1.26.32-1.81.62-.8.43-1.87.35-2.43,1.25.14.29.2.69.42.84,4.14,2.86,5.32,6.92,5.1,11.72-.17,3.67,0,7.35,0,11-.1,7.76-4.46,12.53-12.17,13.29-1.43.14-2.88.12-4.32.15a2.16,2.16,0,0,0-2.14,1.57c-.5,1.35-1,2.71-1.51,4a62.45,62.45,0,0,1-9.23,16.19,19.82,19.82,0,0,0-3.69,7.68c-2.25,8.33-4.55,16.65-6.84,25-.3,1.08-.64,2.15-1,3.22a1.43,1.43,0,0,1-1.36,1.15c-1.65,0-1.8,1-1.61,2.2s-.32,2.08-1.75,2.22a20.71,20.71,0,0,0-5.71,1.34c2.08,6.27,4.08,12.34,6.09,18.4q5.67,17.06,11.33,34.13c.4,1.21.77,2.44,1.07,3.67a.86.86,0,0,1-.73,1c-1.43.13-2.87.18-4.3.18H45.64c-1.73,0-3.51.22-5.17-.36-.56-2,.5-3.57,1-5.18,3.9-11.85,7.88-23.66,11.83-35.49.41-1.21.83-2.42,1.18-3.65s0-1.88-1.32-1.75c-1.92.18-2.54-.87-3.07-2.32q-4.93-13.51-9.88-27c-.11-.3-.21-.61-.33-.9-2.37-6-1-5-7.06-6.26-2-.41-2.15-.63-2.27-3-.37-7.19-.9-14.38-.93-21.57,0-4.65-1.63-8.75-3.17-12.93A2.16,2.16,0,0,0,24.32,116c-1.6,0-3.2,0-4.8-.09a14.79,14.79,0,0,1-7.64-2.54,10.44,10.44,0,0,1-5.13-9.2c0-5,0-9.92,0-14.88a9.79,9.79,0,0,1,.93-4.66,2.86,2.86,0,0,0-.54-3.48c-1.81-2.23-3.56-4.53-5.29-6.82A6.4,6.4,0,0,1,0,70.91ZM26.77,99.35c-.95,6.58,1.3,13.89,4,21.13a4.39,4.39,0,0,0,4.07,3.31c6.66.75,13.29,1.76,19.93,2.77,2.53.38,5,1.18,6.92-1.48.37-.5,1.44-.62,2.21-.68,1.43-.13,2.87-.09,4.31-.09h49.38c1.12,0,2.24,0,3.36,0,3.78.17,5.21,1.51,5.42,5.2.11,1.75,0,3.51.09,5.27,0,1,.4,1.88,1.56,2.05,4.58.67,9.17,1.3,13.75,2a3.41,3.41,0,0,0,3.66-1.65c.71-1.06,1.56-2,2.3-3.07a66.77,66.77,0,0,0,12.11-35.34,9.88,9.88,0,0,0-1.07-5.07q-10.71-22-21.36-43.95A5.28,5.28,0,0,0,133,46.62C113.41,43,93.81,39.25,74.2,35.54c-4.28-.82-3.81-.27-5.61,2.74-6,10-12,20-17.8,30.12a9.62,9.62,0,0,1-5.3,4.44c-5.09,1.88-10.1,4-15.16,5.94a3.47,3.47,0,0,0-2.6,3.48C27.54,87.53,27.15,92.79,26.77,99.35Zm-22-26.53c.62,1,1,1.67,1.48,2.29q7.49,9.67,15,19.32a11,11,0,0,0,1.66,1.68.9.9,0,0,0,.81-.15,8.6,8.6,0,0,0,.32-1.88c.29-4.47.72-8.94.77-13.41,0-2.34,1-3.38,3.05-4.14,5.24-2,10.38-4.17,15.64-6.08a9.5,9.5,0,0,0,5.25-4.54c5.71-9.81,11.52-19.56,17.35-29.3C69.8,30.45,68,31.46,75,32.7c14.79,2.61,29.53,5.52,44.29,8.3,5.34,1,10.68,2,16,3,1.86.33,3.32,1,4,3a19.48,19.48,0,0,0,1,2.16q9,18.55,18,37.08c.63,1.3,1.28,2.58,2,3.85a.82.82,0,0,0,1.49-.12,57.4,57.4,0,0,0,2.55-6.71c1.06-4,3.05-6.94,7.42-7.66.22,0,.38-.41.6-.67-.47-1.4-1.65-2.3-2.58-3.37-2.11-2.4-4.24-4.79-6.43-7.12A2.57,2.57,0,0,1,163,61c2.49-4.65,4.87-9.36,7.26-14.06.48-.95,1.36-1.81.87-3.26-.68-.4-1.46-.94-2.29-1.38L142,28.25c-2.55-1.34-5-2.78-7.66-4a4.48,4.48,0,0,1-2.94-4.41c-.1-3.35-.51-6.7-.85-10-.2-1.95-.6-2.29-2.36-2.13-4.14.38-8.27.83-12.41,1.21-5.89.53-11.79,1-17.68,1.57a6.61,6.61,0,0,1-5.29-1.57C90.77,7.14,88.5,5.63,86.34,4a3.33,3.33,0,0,0-3.13-.69c-1.07.31-2.18.49-3.27.75-8.69,2.12-17.41,4.15-26.06,6.41a18,18,0,0,1-8.52.32c-.15,0-.31,0-.46-.1-2.5-.81-4.18-.08-5.52,2.28-2,3.48-4.24,6.78-6.41,10.14S28.86,30.46,26,33.41s-6.63,5-10,7.44c-1.38,1-3.08,1.72-4,3.3.53,1.48,1.78,2.29,2.77,3.29,5,5,10,10,14.91,15,.61.62,1.59,1.13,1.2,2.43C22.41,67.7,13.53,69.68,4.76,72.82ZM140.81,234.64c.69-1.51-.26-2.79-.69-4.09-5-15.15-10.1-30.28-15.1-45.43-1.6-4.85-1.4-4.27-6-3.81-.47,0-.94.18-1.41.25q-17.28,2.66-34.55,5.31c-6.94,1-13.88,2.11-20.83,3.09-2.41.35-3.91,1.22-4.74,3.83-4.07,12.78-8.4,25.47-12.61,38.19-.29.86-.92,1.73-.28,2.7C48.85,235.19,137,235.16,140.81,234.64Zm-12.56-64.39a15.44,15.44,0,0,0,.32-2.08c0-8.45,0-16.9,0-25.35,0-.48,0-1-.07-1.44a1.57,1.57,0,0,0-1.49-1.55c-4.1-.61-8.2-1.23-12.3-1.83-2-.31-4.1-.61-6.15-.86-1.46-.18-2,.29-2,1.87,0,4.14,0,8.29,0,12.44,0,4.3,0,8.61,0,12.91a2.08,2.08,0,0,0,1.93,2.28c4.7.9,9.38,1.86,14.08,2.75C124.4,169.74,126.28,170,128.25,170.25ZM82.14,133.73a4.76,4.76,0,0,0-.5,1.4c0,8.14,0,16.28,0,24.41a2.08,2.08,0,0,0,1.93,2.29c5.64,1,11.28,2.14,16.92,3.19.9.16,1.81.67,2.77.09.65-1.35.38-2.81.39-4.23q0-9.09,0-18.19c0-7.2.66-6.15-5.81-7-.47-.06-.93-.22-1.41-.27C91.65,134.94,87,133.83,82.14,133.73Zm-4,27a6.64,6.64,0,0,0,.49-1.6q.06-12,0-24c0-1.76-.31-2.14-2.26-2.43q-8.52-1.31-17.09-2.41c-2.36-.3-2.66.05-2.68,2.65,0,6.08,0,12.15,0,18.23,0,6.7-.21,5.31,5.07,6.4C67.1,158.7,72.59,159.67,78.09,160.71ZM53.21,173.16h0v9.55c0,1.12,0,2.23.06,3.34.1,1.57.58,2.08,2,1.91,2.85-.31,5.68-.73,8.52-1.16,3.14-.47,6.28-1,9.41-1.54a2,2,0,0,0,2-2.2c0-5.89,0-11.78,0-17.67,0-1.79-.4-2.17-2.17-2.52q-8.9-1.78-17.8-3.49c-1.41-.27-2,.21-2,1.84C53.17,165.2,53.21,169.18,53.21,173.16Zm-20.16-46.6a5.67,5.67,0,0,0-.51,1.57c.3,7.49.64,15,1,22.46.05,1.14.69,1.65,1.77,1.86,4.85.92,9.69,1.91,14.54,2.81,1.07.2,2.15.71,3.28.23.74-1,.51-2.13.52-3.22,0-4.15,0-8.3,0-12.44,0-2.88,0-5.75,0-8.62a1.76,1.76,0,0,0-1.66-1.94Q42.5,127.93,33.05,126.56Zm45.27,47.21h0c0,2.86-.05,5.72,0,8.59,0,1.5.57,1.95,2.15,1.76,3.47-.43,7-.79,10.37-1.5,3.07-.63,6.37-.22,9.17-2,.6-3.31.2-6.66.29-10a7.73,7.73,0,0,0-.06-1,2,2,0,0,0-1.76-1.9c-6.09-1.16-12.17-2.36-18.26-3.52-1.25-.24-1.84.19-1.87,1.44C78.27,168.36,78.32,171.07,78.32,173.77Zm96.62-77.09h0c0-2.39-.06-4.79,0-7.18.11-3.62-1.68-6-4.74-7.65-1.09-.58-1.82-.41-2.25.76-2.31,6.24-5.43,12.22-5.47,19.16a61.61,61.61,0,0,1-1.1,8c-.09.63-.18,1.26-.21,1.89a1.1,1.1,0,0,0,1.11,1.24A13.4,13.4,0,0,0,171,111a7.47,7.47,0,0,0,3.95-6.67C174.92,101.78,174.94,99.23,174.94,96.68Zm-150.07,16c-.52-3.25-1-6.07-1.43-8.89a6.3,6.3,0,0,0-1.15-3.08c-3.54-4.5-7-9-10.58-13.53-.3-.39-.78-.66-1.18-.38a1.69,1.69,0,0,0-.69,1.16c-.07,5.25,0,10.49-.13,15.74-.07,3.82,1.88,6.3,5.11,7.91A15,15,0,0,0,24.87,112.65Zm117.68,29.4c-2.87-.46-5.21-.91-7.57-1.18-3.14-.36-3.34-.15-3.43,2.82,0,.32,0,.64,0,1q0,11.23,0,22.46c0,.8,0,1.6,0,2.39a1.78,1.78,0,0,0,1.76,1.87,1.6,1.6,0,0,0,1.74-1.27c.1-.3.17-.61.25-.92q3.38-12.21,6.72-24.41C142.26,144,142.34,143.23,142.55,142.05Zm-39,26.69c-.12,4-.66,7.77.39,11.78,4.11-.57,8-1.1,12-1.69,2.52-.37,5-.78,7.54-1.27,1.5-.3,1.79-.8,1.78-2.35,0-1.79-.37-2.36-2-2.68C116.83,171.27,110.42,170.06,103.53,168.74ZM49,177.28l1.09-.13c0-4.42.07-8.84,0-13.26,0-6.81.48-5.06-5.87-6.64a5.9,5.9,0,0,0-1-.07,1,1,0,0,0-1.13,1.49c1.49,4.18,3,8.34,4.54,12.51C47.48,173.22,48.25,175.25,49,177.28Zm67.55-46.09h0c0-.62,0-1.25,0-1.88-.11-1.53-.51-1.91-2-2-2.34-.12-2.85.3-2.93,2.51a24.09,24.09,0,0,0,0,2.82c.13,1.76,1.09,2.41,3.34,2.34,1.12,0,1.48-.57,1.57-2.38C116.58,132.13,116.56,131.66,116.56,131.19Zm-8,.36c0-1.18,0-1.65,0-2.12-.09-1.81-.41-2.09-2.34-2.13-2.37,0-2.7.28-2.72,2.7a13.25,13.25,0,0,0,.15,2.36c.17.91,1,1.19,1.75,1.33s1.85.58,2.68-.13a1.41,1.41,0,0,0,.39-.82C108.57,132.11,108.58,131.48,108.58,131.55Zm-8.08-1.35c0-2.57-.32-2.88-2.78-2.91-.47,0-.94,0-1.41,0a1.44,1.44,0,0,0-1.5,1.44c-.32,2.75.08,3.31,2.73,3.78a9.5,9.5,0,0,0,1.39.2,1.37,1.37,0,0,0,1.51-1.41C100.49,130.88,100.49,130.41,100.5,130.2ZM89,131.34c2.19.12,2.75-.42,2.7-2.11,0-1.08-.42-1.86-1.62-1.89a26.14,26.14,0,0,0-3.31.08,1.77,1.77,0,0,0-1.09.74,2.14,2.14,0,0,0,.94,2.8A22.8,22.8,0,0,0,89,131.34Zm30.74-.51h-.12c.07,1.26.09,2.52.25,3.77.12.91.84,1.25,1.7,1.3a1.34,1.34,0,0,0,1.61-1.29c.1-1.09.12-2.2.13-3.3a15.42,15.42,0,0,0-.15-2.36,1.8,1.8,0,0,0-2-1.56c-1,0-1.34.69-1.4,1.54C119.68,129.56,119.72,130.19,119.72,130.83Zm-38.93-3.49c-1,0-1.48,0-1.94,0-.65,0-1.21.26-1.26,1a1.29,1.29,0,0,0,.92,1.43,12.77,12.77,0,0,0,3.21.23c.24,0,.59-.68.63-1.08a1.45,1.45,0,0,0-.37-1.19A3.28,3.28,0,0,0,80.79,127.34Zm-8.92-.11c-.58.09-1,.15-1.48.24s-.51.33-.29.67a3,3,0,0,0,3.64.56.47.47,0,0,0,.13-.39c-.08-.27-.17-.66-.36-.72A11.66,11.66,0,0,0,71.87,127.23Zm58.69,48.35a1.48,1.48,0,0,0-1-1.69c-.6-.24-.86.24-1,.61-.26.75-.25,1.6.59,1.93A1.08,1.08,0,0,0,130.56,175.58ZM65.05,127.9a1.43,1.43,0,0,0,.39.11s.08-.19.12-.28a1.13,1.13,0,0,0-.38-.1C65.13,127.64,65.09,127.81,65.05,127.9Z"/><path d="M67.07,85.46a25.93,25.93,0,0,1,51.85.44c-.1,13-10.2,25.83-26.17,25.68A25.57,25.57,0,0,1,67.07,85.46Zm25.86,23.11a22.9,22.9,0,0,0,.31-45.8,22.9,22.9,0,1,0-.31,45.8Z"/><path d="M93,70.66a15,15,0,1,1-.14,30.07,15.17,15.17,0,0,1-15-14.89A15,15,0,0,1,93,70.66Zm-.12,19.09a4.08,4.08,0,1,0-3.9-4A4.1,4.1,0,0,0,92.91,89.75Z"/></g></g></svg>