<svg xmlns="http://www.w3.org/2000/svg" viewBox="0 0 187.35 248.21"><title>Character  13</title><g id="Layer_2" data-name="Layer 2"><g id="Character_13" data-name="Character  13"><path d="M117.29,171.8c0,1.81.95,3.38,1.56,5q12.27,33,24.6,66.07c2.09,5.6,2.32,5.27-3.73,5.27q-47.28,0-94.56,0c-1.73,0-3.51.34-5.19-.41-.62-1.75.46-3.15,1-4.59,4.86-13.2,9.83-26.36,14.71-39.55.71-1.9,1.71-3.74,1.85-5.9-1.37.31-1.84,1.4-2.6,2.16-8.74,8.76-19.08,11.16-30.84,7.71a34.33,34.33,0,0,1-12.82-7.31,4.93,4.93,0,0,1-1.21-1.45,1.59,1.59,0,0,1,0-1.35,1.45,1.45,0,0,1,1.19-.58,26.58,26.58,0,0,1,2.72.83,61.33,61.33,0,0,0,6.94,1.86c6.22,1,12.79-1.65,15.13-9.49a25.28,25.28,0,0,0,.31-12.34A43.15,43.15,0,0,0,29,161.22c-2.76-3.93-5.58-7.81-8.15-11.86-8.18-12.93-14.53-26.67-18-41.63C-.91,91.87-1.27,76,3.79,60.35,11.28,37.19,26.46,20.59,48.17,10A97.67,97.67,0,0,1,99.41.31a49.81,49.81,0,0,1,15.37,3.48,3.92,3.92,0,0,1,2.86,3.89c.12,3.83.5,7.66.79,11.49,0,.44,0,1.07.64,1.06a2.14,2.14,0,0,0,1.18-.61,7.91,7.91,0,0,0,1.26-1.45c2.39-3.71,6.08-5,10.18-5.45a37,37,0,0,1,21.44,3.57,52.59,52.59,0,0,1,14.48,10.93c9.67,10.13,15.45,22.22,18.09,35.9,3.07,15.88,1.64,31.54-2.45,47a140,140,0,0,1-22.4,46.91,50.06,50.06,0,0,0-7.38,13.39c-1.71,5.06-2.63,10.21-1.49,15.56a16.61,16.61,0,0,0,1.81,4.93,11.75,11.75,0,0,0,9.63,6.25,23,23,0,0,0,10.34-1.56,34,34,0,0,1,3.6-1.24c.32-.08.93.33,1.15.68a1.76,1.76,0,0,1,.05,1.32,2.91,2.91,0,0,1-.88,1.11c-6.6,5.78-14.1,9.28-23.06,9.2a29.12,29.12,0,0,1-28.54-24.35,31.58,31.58,0,0,1-.17-11c.2-1.09.22-2.21.33-3.35C123.42,168.34,120.67,169.51,117.29,171.8Zm49.64,29.37a14.67,14.67,0,0,0-1.78-.66c-.78-.18-1.59-.23-2.37-.35-7.15-1.15-11.76-5.43-13.53-12.47-1.59-6.29-.62-12.38,1.42-18.37a51.82,51.82,0,0,1,7.59-13.81,137.86,137.86,0,0,0,21.14-42.77c4.7-16,6.48-32.26,3.39-48.8-2.7-14.4-9-26.88-19.77-37a47.21,47.21,0,0,0-11.31-8,33.8,33.8,0,0,0-19.1-3.33c-3.61.39-6.82,1.48-9,4.73A27.54,27.54,0,0,1,120.51,24a5.38,5.38,0,0,0-1.57,4.78c.3,2.21.32,4.47.45,6.7.44,6.94-.57,5.17,5.23,8.2a69.91,69.91,0,0,1,37.32,69.57c-2.16,18.5-10.3,33.72-24.29,45.9a44.11,44.11,0,0,1-4.94,3.8,7,7,0,0,0-3.05,4.61,32.53,32.53,0,0,0-.51,14.74c2.31,10.58,8.63,17.61,19.18,20.57,6.45,1.81,12.66.87,18.67-1.86-.35.17-.41.12-.2-.14Zm-7.47-95.57a76.32,76.32,0,0,0-1.63-14.06q-8.25-34.35-40.84-48c-5.73-2.42-11.23-1.74-16.42,1.7A53,53,0,0,0,94,50.8C78.46,65.28,60.83,76.18,40.09,81.59a14.92,14.92,0,0,0-5.9,3c-1.27,1.06-2.2,2.17-1.87,4.07a3.22,3.22,0,0,1-2.14,3.86c-2.2.7-2.84,2.35-3.38,4.24a30.32,30.32,0,0,0-1.3,10.41c1,14.39,5.27,27.65,14.22,39C56,167,77.53,175.83,103.55,171.71,134.56,166.81,158.76,140.37,159.46,105.6Zm-137,97.55c0,.67.57.82,1,1C38.61,210,54.89,202,59,186.24a32.76,32.76,0,0,0,.12-15.19,9.83,9.83,0,0,0-4.58-6.81,68.42,68.42,0,0,1-28-36.6c-3.69-11.17-6-22.6-1.77-34.27a1.42,1.42,0,0,0-.87-1.93c-3.63-1.68-7.27-3.32-10.89-5a22.22,22.22,0,0,1-3.37-1.8,3.77,3.77,0,0,1-1.27-4.29,3.71,3.71,0,0,1,4.15-2.51,15.44,15.44,0,0,1,3.6,1.22c3.8,1.68,7.59,3.39,11.34,5.17a2.58,2.58,0,0,0,3.41-.6,19.73,19.73,0,0,1,10.43-5.5,57.92,57.92,0,0,0,8.22-2.56A129.77,129.77,0,0,0,92.09,48.5a64,64,0,0,1,5.76-5c4.68-3.46,9.87-5.14,15.77-4.06.87.16,1.85.53,2.78-.47a14.67,14.67,0,0,0,.09-1.72c-.6-9.42-1.23-18.83-1.79-28.24a2.89,2.89,0,0,0-2.13-2.81,53.81,53.81,0,0,0-15.47-3A94,94,0,0,0,71.84,5C55.75,8.51,41.21,15.19,29.06,26.44,12.82,41.47,3.92,60,3.14,82.27c-.51,14.64,2.68,28.56,8.1,42.05A153.42,153.42,0,0,0,30.34,158a53.91,53.91,0,0,1,7.07,12.47,35.27,35.27,0,0,1,2.36,16.45c-.92,9.22-6.48,14.81-15.69,15.78C23.5,202.78,22.85,202.6,22.49,203.15ZM43.58,244.9c1.68.11,2.79.24,3.89.24q44.64,0,89.26,0c4.3,0,4.33-.06,2.77-4.27l-24.1-64.71c-.28-.75-.59-1.48-.9-2.22a1.61,1.61,0,0,0-1.91-1c-.94.16-1.86.44-2.8.66a69.69,69.69,0,0,1-26.17,1.57A103,103,0,0,1,73.3,173c-2.68-.68-2.71-.63-3.8,2.09-.24.59-.47,1.19-.69,1.79Q57,208.6,45.25,240.29C44.75,241.62,44.28,243,43.58,244.9Zm19.48-63.69a1,1,0,0,0,1.19-.77c1-2.67,2-5.36,3-8,.06-.15.12-.36,0-.47-.22-.38-.41-.89-.76-1.08-1.25-.67-2.73-2-3.88-1.35-1.48.81-.07,2.52,0,3.83C62.72,176,62.91,178.62,63.06,181.21Z"/><path d="M91.47,66.05c14.38,0,26.16,9.38,29.34,22.9.4,1.67.72,3.16-1.36,3.93-.87.33-1,1.14-1,2a34,34,0,0,1-.57,6.19,25.92,25.92,0,0,1-51.29-4.28c0-.64,0-1.28,0-1.92,0-1.12-.51-1.64-1.56-2-2.29-.88-2.45-1.29-2-3.43A29.56,29.56,0,0,1,88.63,66.26C89.74,66.15,90.86,66.1,91.47,66.05Zm1,52.65a23,23,0,0,0,22.91-23.38c0-1.82-.51-2.35-2.2-2.46-1.11-.07-2.24-.07-3.35,0-2,.06-2.13.27-2.3,2.18a28.78,28.78,0,0,1-.51,4.27,14.12,14.12,0,0,1-10.34,10.94,14.5,14.5,0,0,1-14.67-3.55A15.41,15.41,0,0,1,77.33,96c-.19-3.13-.24-3.13-3.3-3.16-.64,0-1.28,0-1.92,0-2.14.12-2.51.47-2.56,2.56A22.89,22.89,0,0,0,92.52,118.7Zm.12-25.88v0c-.48,0-1,0-1.43,0-1.93.16-2.81,1.2-2.68,3.14a4,4,0,0,0,3.09,3.75,3.77,3.77,0,0,0,3.84-1.31,3.72,3.72,0,0,0,.76-4c-.51-1.5-1.8-1.61-3.1-1.64Z"/><path d="M92.5,152.71H67.58c-1,0-1.92,0-2.88,0-4-.18-5.54-1.67-5.64-5.52-.08-2.71-.11-5.43,0-8.14.16-2.89,1.65-4.3,4.53-4.56,1.11-.1,2.23-.06,3.35-.06h50.81a35,35,0,0,1,3.83.1c2.39.25,4,1.56,4.1,3.91a86.57,86.57,0,0,1,0,10.06c-.12,2.33-1.66,3.75-4,4.09a28.67,28.67,0,0,1-3.83.13Zm-1.25-9.09h0c0-1.42,0-2.84,0-4.26s-.52-1.87-2.09-1.93a26.74,26.74,0,0,0-2.83.07,1.25,1.25,0,0,0-1.25,1.18c0,3.15-.06,6.31,0,9.46a1.48,1.48,0,0,0,1.52,1.49,22.43,22.43,0,0,0,2.84,0,1.72,1.72,0,0,0,1.82-1.76C91.3,146.47,91.25,145.05,91.25,143.62Zm8.8.31c0-1.27,0-2.55,0-3.82-.08-2.4-.4-2.68-2.84-2.7s-2.82.22-2.88,2.59-.06,4.47,0,6.7c.06,2.73.44,3.07,3,3,2.25-.06,2.63-.45,2.71-2.9C100.08,145.85,100.05,144.89,100.05,143.93Zm3-.58h0c0,1.42,0,2.84,0,4.26.08,1.69.57,2.07,2.43,2.08s2.49-.36,2.52-2c.06-3,0-6-.06-9a1.19,1.19,0,0,0-1.17-1.23c-.63-.06-1.26-.07-1.89-.07-1.11,0-1.79.5-1.81,1.65C103.06,140.51,103.08,141.93,103.08,143.35ZM82,143.25h0c0-1.42,0-2.84,0-4.26a1.45,1.45,0,0,0-1.45-1.52,11.07,11.07,0,0,0-1.41,0c-1.59,0-2,.38-2.09,1.87-.07,2.68-.09,5.37,0,8,0,2,.63,2.4,2.67,2.34,1.82-.06,2.27-.44,2.34-2.18C82,146.09,82,144.67,82,143.25Zm-13.12.27h0c0,1.42-.07,2.84,0,4.26s.8,1.93,2.67,1.9c1.45,0,2.12-.5,2.16-1.89.08-2.84,0-5.69,0-8.53a1.65,1.65,0,0,0-1.7-1.83c-2.52-.19-3.11.28-3.2,2.77C68.81,141.3,68.85,142.41,68.85,143.52Zm47.18,0h0c0-1.42.06-2.84,0-4.26s-.59-1.83-2.14-1.87c-2-.05-2.67.33-2.69,1.78-.06,3,0,6,.07,9a1.64,1.64,0,0,0,.71,1.13,2.58,2.58,0,0,0,4.08-2C116.09,146.09,116,144.83,116,143.56Zm-50.28,0h0c0-1.58,0-3.15,0-4.72a1.19,1.19,0,0,0-1.09-1.28,2,2,0,0,0-2.1.69,2.63,2.63,0,0,0-.47,1.3q-.06,4,0,8a2.38,2.38,0,0,0,.47,1.27,2.14,2.14,0,0,0,2.11.74,1.22,1.22,0,0,0,1.07-1.32C65.78,146.67,65.75,145.1,65.75,143.53Zm57-1c-.06-.66.37-2.45-.35-4.13a1.62,1.62,0,0,0-1.58-.88c-.69,0-1.37.27-1.44.94a48.83,48.83,0,0,0,0,10,1.21,1.21,0,0,0,1.31,1.1,1.86,1.86,0,0,0,1.64-.8,2.77,2.77,0,0,0,.41-1.35C122.75,146.14,122.72,144.86,122.72,142.5Z"/></g></g></svg>