<svg xmlns="http://www.w3.org/2000/svg" viewBox="0 0 190.21 229.46"><title>Character  15</title><g id="Layer_2" data-name="Layer 2"><g id="Character_15" data-name="Character  15"><path d="M190.21,108.75a7.24,7.24,0,0,0-1.87.07c-4.15,1.17-8.26,2.49-12.43,3.58a3.71,3.71,0,0,0-2.87,2.84c-1.58,5.19-3.19,10.38-4.79,15.57-.28.9-.34,1.92-1.51,2.59-3.23-2.41-5.25-6.2-8.83-8.88-1.42,3.12-2.7,6-4,8.89-.72,1.55-1.27,1.63-2.42.42-.86-.92-1.69-1.88-2.43-2.69-1.21-.19-1.6.61-2.08,1.17a70.6,70.6,0,0,1-23.48,17.89c-2.67,1.26-2.68,1.34-1.67,4.39q9,27.07,18,54.13,2.73,8.19,5.44,16.38c.3.91.59,1.82.8,2.75a1.07,1.07,0,0,1-.88,1.42,18.24,18.24,0,0,1-2.86.18H43.45c-2.57-.09-2.88-.43-2.1-2.8q5.48-16.62,11-33.21Q58.67,174.58,65,155.7c.35-1.06.73-2.11,1-3.19a1.28,1.28,0,0,0-.69-1.59c-.72-.36-1.42-.73-2.14-1.08A70.78,70.78,0,0,1,39,130.49c-.3-.37-.58-.76-.89-1.13s-.77-1.12-1.47-1-.81.86-.92,1.47c-.35,1.89-.66,3.78-1,5.66a7,7,0,0,1-.45,1.21c-1.11,0-1.33-.88-1.71-1.56-1.54-2.8-3.11-5.58-4.61-8.41a2.88,2.88,0,0,0-3.46-1.79c-3.13.63-6.29,1.12-9.44,1.67-1.07.19-2.15.57-3.45-.23q1.26-3.58,2.53-7.19c.63-1.81,1.3-3.6,1.9-5.42.69-2.1.36-2.69-1.68-2.88s-3.83-.24-5.75-.41A10.34,10.34,0,0,1,6.28,110a.8.8,0,0,1-.45-1.16c.75-1.22,1.6-2.38,2.4-3.57,1.85-2.77,4.14-5.25,5.6-8.23-1.15-1.68-2.88-2.25-4.34-3.17C6.65,92.08,3.74,90.4.89,88.63c-1-.66-1.16-1.35-.38-2.39,1.72-2.3,3.44-4.62,5.28-6.83a9.68,9.68,0,0,0,2.33-6.08,75.55,75.55,0,0,1,4-21.61C17.76,35.55,28,23.06,42.43,13.94A90.83,90.83,0,0,1,77.77,1.13,95.09,95.09,0,0,1,96.9.11c30.74,1.57,54.11,15.67,70.23,41.8A79.78,79.78,0,0,1,177.5,70.1a10.2,10.2,0,0,0,2.28,5.13c3.5,4.11,7,8.26,10.43,12.4v1.92c-3.72.8-7.45,1.58-11.16,2.42a.9.9,0,0,0-.63,1.44,12.21,12.21,0,0,0,1.16,1.52l10.63,12.86Zm-69.9-32.18c-.8,1.27-.77,2.75-.94,4.16a25.89,25.89,0,0,1-51.15.51c-.09-.63-.13-1.28-.26-1.9-.31-1.57-.71-1.93-2.16-2-.32,0-.64,0-1,0-11.67.25-23.33.49-35,.78-2.33,0-2.62.36-2.79,2.92a69.59,69.59,0,0,0,1.45,21c8.75,36.68,44.93,58.94,81.49,49.86,31-7.7,53.95-37.12,50.28-72.54a15.22,15.22,0,0,0-.32-1.89c-.33-1.39-.85-1.82-2.32-1.88-.8,0-1.6,0-2.4,0q-15.59.32-31.16.65A8.94,8.94,0,0,0,120.31,76.57ZM93.54,226.42q21.33,0,42.66,0c1.44,0,2.88,0,4.32-.07,1.26-.07,1.66-.68,1.32-1.9-.22-.77-.48-1.53-.73-2.28q-10.91-32.71-21.83-65.43c-.3-.91-.64-1.81-1-2.71a1.41,1.41,0,0,0-1.89-.94c-1.23.33-2.44.74-3.67,1.08A68.76,68.76,0,0,1,83.34,156a75.83,75.83,0,0,1-12.1-2.89c-1.47-.48-2.09-.15-2.63,1.18-.24.59-.4,1.22-.6,1.82L45.9,222.49c-.15.45-.35.89-.48,1.35-.51,1.82-.13,2.44,1.62,2.53,1.27.07,2.55,0,3.83,0Q72.2,226.44,93.54,226.42ZM82.45,38.75V68c0,1.28,0,2.56,0,3.83.1,1.83.48,2.27,2.33,2.23,5.58-.1,11.16-.24,16.74-.46,2.52-.1,2.73-.4,2.83-2.78,0-1,0-1.91,0-2.87q0-29.44,0-58.9c0-.95,0-1.91,0-2.87-.12-2.25-.51-2.69-2.9-2.87a120.45,120.45,0,0,0-14.84-.1c-4.14.2-4.18.22-4.19,4.46C82.43,18,82.45,28.38,82.45,38.75Zm-3,.4q0-14.62,0-29.25c0-1.27,0-2.56,0-3.83C79.33,4.5,78.79,4,77.33,4.22a92.93,92.93,0,0,0-18,4.72,2.44,2.44,0,0,0-1.83,2.48c0,1,0,1.92,0,2.88V69.43c0,1,0,1.92.05,2.88.09,1.59.47,2,2,2.07.32,0,.64,0,1,0,5.27-.07,10.55-.12,15.82-.23,3-.07,3.12-.22,3.2-3.38,0-1.12,0-2.24,0-3.36Q79.46,53.3,79.45,39.15Zm28-1V58.79c0,3.83,0,7.66,0,11.5,0,3.06.12,3.13,3.35,3.1,5.11,0,10.22-.1,15.33-.22,3.1-.07,3.23-.25,3.33-3.26,0-.64,0-1.28,0-1.92V15.76c0-1.11,0-2.23-.05-3.35a2,2,0,0,0-1.21-1.9,70.87,70.87,0,0,0-19.55-6.15.88.88,0,0,0-1,.78,34.65,34.65,0,0,0-.2,3.82Q107.39,23.57,107.41,38.18Zm-53,4.76v-7.2c0-7.36,0-14.72-.05-22.08,0-1.85-.79-2.36-2.37-1.59A76.45,76.45,0,0,0,34.07,24a4.52,4.52,0,0,0-1.72,3.75c0,.8,0,1.6,0,2.4V69.49c0,1.12,0,2.24.06,3.36C32.51,74.56,33,75,34.83,75c5.6-.07,11.2-.22,16.79-.35a8.64,8.64,0,0,0,1.43-.2,1.43,1.43,0,0,0,1.21-1.29c.11-1.27.15-2.55.15-3.83Q54.43,56.14,54.42,42.94Zm78-.64q0,12.68,0,25.37c0,1.28,0,2.56.09,3.83A1.45,1.45,0,0,0,134,73q9.33-.22,18.65-.51a1.69,1.69,0,0,0,1.75-1.84c0-.32,0-.64,0-1,0-12.6,0-25.21,0-37.82a5.62,5.62,0,0,0-1.91-4.18A81.25,81.25,0,0,0,139.76,17c-1.85-1.24-3.79-2.34-5.73-3.45-.84-.47-1.48,0-1.56,1,0,.64-.05,1.28-.05,1.91Q132.41,29.37,132.41,42.3Zm33.51,85.62c1.05-3.28,1.91-6,2.8-8.74s1.82-5.43,2.74-8.15c2.57-1.74,5.7-1.92,8.53-3,1.56-.58,3.32-.69,5-2-2.61-3.12-5-6-7.5-9-1.43-1.72-2.9-3.4-4.31-5.14-.79-1-.47-1.73.79-2.07.61-.17,1.26-.23,1.87-.39,3-.81,6.24-1,9.37-2.36a17.15,17.15,0,0,0-3.41-4.69c-2.06-2.41-3.71-5.21-6.32-7.14H165.38c-.16,0-.32,0-.48,0a1.63,1.63,0,0,0-1.75,1.8c0,1.59.19,3.19.29,4.78a69.21,69.21,0,0,1-11.18,43.29c-1.32,2-1.5,3.61-.57,3.57,1.64-.07,1.57-1.7,2.1-2.71.74-1.42,1.24-2.94,1.92-4.39.39-.81.51-1.85,1.88-2.3C160.4,121.7,162.45,125,165.92,127.92ZM10.77,107.53c2.75.24,4.82.37,6.87.62,3.17.38,3.35.65,2.36,3.51-1,3-2.16,6-3.21,9-.23.69-.7,1.47.31,2.33.61-.07,1.39-.11,2.15-.24,2.2-.4,4.39-.85,6.6-1.24s2.45-.27,3.78,1.89c.88,1.43,1.3,3.21,2.93,4.36,1.51-2.61,1.25-4.83-.13-7.32A67.81,67.81,0,0,1,24,83.11c.06-1.12.12-2.24.1-3.36a1.37,1.37,0,0,0-1.45-1.51c-3.68,0-7.36.09-11,.23a2.59,2.59,0,0,0-1.7.75,54.6,54.6,0,0,0-5.82,7.71c1.9,1.19,3.51,2.21,5.13,3.2s3,1.77,4.52,2.72,3.37,1.68,4.65,3.28C16.11,100,13.06,103.11,10.77,107.53Zm18.59-55c0-5.91,0-11.82,0-17.73,0-1.27-.12-2.54-.18-3.81,0-.4-.2-.65-.59-.63a1.3,1.3,0,0,0-.81.25,16.78,16.78,0,0,0-1.63,1.74A68.45,68.45,0,0,0,20,41.47,70.92,70.92,0,0,0,11.13,73c-.1,1.82.33,2.32,2.16,2.31q6.95,0,13.9-.19c1.59,0,2-.46,2.1-2,.08-1.12.07-2.24.07-3.36Zm49,24.65c-2,0-3.75-.05-5.49,0-1.46,0-1.93.61-1.78,2.17a21.51,21.51,0,0,0,.67,3.75A22.9,22.9,0,0,0,99.88,99C109,96.6,116.09,88,116.52,79c.1-2.1-.32-2.63-2.36-2.6-1.57,0-3.29-.43-4.65.55s-.76,2.66-1.15,4A15.25,15.25,0,0,1,94.26,92a14.92,14.92,0,0,1-14.7-10.15C79.09,80.48,78.82,79.06,78.33,77.18ZM157.41,34.1v5.1q0,13.88,0,27.75c0,1.12,0,2.24,0,3.35.08,1.61.48,2.09,1.94,2.09q6.69,0,13.39-.17c1.62,0,2-.54,1.71-2.08a81.41,81.41,0,0,0-15.27-34.69A12.54,12.54,0,0,0,157.41,34.1ZM94.07,76.92v-.07c-.95,0-1.91.05-2.86.14S89.72,78.11,90.4,79c2,2.73,5.26,2.53,6.94-.42a1.1,1.1,0,0,0-.9-1.69C95.65,76.88,94.86,76.92,94.07,76.92Z"/><path d="M93.94,115.49c8.78,0,17.56,0,26.34,0,5.69,0,6.69,1,6.74,6.69,0,2.4.07,4.8-.06,7.18-.15,2.65-1.58,4-4.21,4.31a27.39,27.39,0,0,1-2.87,0q-26.1,0-52.22,0a24.8,24.8,0,0,1-3.34-.1,3.92,3.92,0,0,1-3.75-3.7c-.16-3.5-.16-7,0-10.53a4,4,0,0,1,3.68-3.78,27.14,27.14,0,0,1,3.83-.12Zm-10.61,9.45h0c0-1.26,0-2.52,0-3.78-.09-2.4-.45-2.73-2.79-2.7-1.94,0-2.41.34-2.45,2.05-.06,2.84,0,5.68,0,8.52a1.72,1.72,0,0,0,.49,1.26,4.44,4.44,0,0,0,3.62.3c1-.21,1-1.08,1.07-1.86C83.36,127.47,83.33,126.2,83.33,124.94Zm9.14-.45c0-.79,0-1.59,0-2.38-.07-3.59-.27-3.78-3.77-3.65l-.48,0a1.6,1.6,0,0,0-1.79,1.74c0,2.86-.07,5.72,0,8.58,0,1.55.46,1.87,2.06,2,3.74.21,3.93,0,4-3.88C92.48,126.08,92.47,125.29,92.47,124.49Zm8.75.17h0c0-1.44.06-2.88,0-4.32s-.58-1.82-2.17-1.88c-3.18-.1-3.46.15-3.52,3.49,0,2.08,0,4.16,0,6.23s.43,2.53,2.49,2.59c2.89.09,3.16-.17,3.24-3.24C101.24,126.58,101.22,125.62,101.22,124.66ZM75,124.79h.1c0-1.43,0-2.87,0-4.29-.07-1.62-.45-2-2-2-2.33-.11-2.78.27-2.83,2.64s0,4.77,0,7.15c.06,2.2,1.76,3.21,3.91,2.31a1.51,1.51,0,0,0,.79-1C75,128,75,126.37,75,124.79Zm34.51-.12h-.08c0-1.58,0-3.17,0-4.75a1.7,1.7,0,0,0-.65-1.19,2.85,2.85,0,0,0-4.38,2.27c-.07,2.38-.07,4.77,0,7.14s.56,2.71,2.89,2.62c1.8-.07,2.17-.41,2.24-2.28C109.51,127.21,109.47,125.94,109.47,124.67Zm7.86.39h0c0-1.59,0-3.18,0-4.77,0-1.08-.5-1.8-1.71-1.8-.48,0-1,0-1.43,0-.9,0-1.57.47-1.58,1.41,0,3.17,0,6.35,0,9.52a1.22,1.22,0,0,0,1.18,1.25c3,.3,3.59.08,3.58-2.75C117.32,127,117.33,126,117.33,125.06Zm-50.14-.19h0c0-1.59,0-3.17,0-4.75,0-.87-.41-1.53-1.38-1.58s-2,.22-2.18,1.34a40.54,40.54,0,0,0,0,9.47c.13,1.13,1.14,1.4,2.16,1.35a1.41,1.41,0,0,0,1.41-1.56C67.21,127.72,67.19,126.29,67.19,124.87Zm53.25-.42h0c0,1.75-.07,3.51,0,5.26,0,.68.74,1,1.43,1a1.64,1.64,0,0,0,1.65-.72,3,3,0,0,0,.41-1.34c0-2.72,0-5.43,0-8.15a2.66,2.66,0,0,0-.49-1.3,1.76,1.76,0,0,0-1.7-.64,1.25,1.25,0,0,0-1.33,1.12C120.38,121.25,120.44,122.85,120.44,124.45Z"/></g></g></svg>