<svg xmlns="http://www.w3.org/2000/svg" viewBox="0 0 171.27 249.33"><title>Character  2</title><g id="Layer_2" data-name="Layer 2"><g id="Character_2" data-name="Character  2"><path d="M138.46,249a12.43,12.43,0,0,1-1.9.3q-50.86,0-101.72,0a5.61,5.61,0,0,1-1.36-.36c-.23-1.74.68-3.13,1.22-4.6q12.36-33.26,24.73-66.51c2.24-6,2.62-4.87-3-7.57a69.46,69.46,0,0,1-35.28-37.54A23.72,23.72,0,0,1,20,129.57a2.67,2.67,0,0,0-3.09-2.29,37.65,37.65,0,0,1-3.83,0,15.31,15.31,0,0,1-8.47-3,9.85,9.85,0,0,1-4.52-8.06C0,110.79,0,105.35,0,99.92c0-3.84,2-6.68,5.1-8.73a14.15,14.15,0,0,1,6.7-2.42,34.43,34.43,0,0,1,4.31-.16,2.78,2.78,0,0,0,3.17-2.22,70,70,0,0,1,13.77-25,3.56,3.56,0,0,0,.49-.82.71.71,0,0,0-.48-1.09c-1.42-.14-2.87-.14-4.3-.17-1.92-.06-3.84,0-5.75-.17a2.34,2.34,0,0,1-2-2.28,2.65,2.65,0,0,1,2.05-2.36,22.89,22.89,0,0,1,2.87-.13c2.56,0,5.12,0,7.68,0s2.63-.3,2.55-2.88c-.11-3.51-.28-7-.48-10.54Q34.85,26.29,34,11.69c-.18-3-.46-6.06-.59-9.1C33.28.86,33.9.21,35.54.08,36.82,0,38.1,0,39.38,0h93.08c1.44,0,2.88,0,4.31.15a1.82,1.82,0,0,1,1.72,1.94A15.18,15.18,0,0,1,138.44,4c-1.09,14.67-2.23,29.34-3.26,44-.5,7.06-1.16,6.25,5.61,6.31,1.92,0,3.84,0,5.75,0a7.44,7.44,0,0,1,2.36.32,2.16,2.16,0,0,1,1.42,2.26A2,2,0,0,1,148.69,59a9.22,9.22,0,0,1-1.89.23c-1.28,0-2.56,0-3.84,0s-3.33-.65-4,.51c-.82,1.39,1.06,2.41,1.88,3.46a68.93,68.93,0,0,1,9.56,16q1.47,3.54,2.66,7.19a2.62,2.62,0,0,0,2.75,2.13,37.79,37.79,0,0,1,3.83.2,14.39,14.39,0,0,1,7.05,2.79,10.27,10.27,0,0,1,4.58,8.53c0,5.12,0,10.24,0,15.36a10.46,10.46,0,0,1-5.14,9.19,15.55,15.55,0,0,1-8.59,2.63c-5,0-4.12-.4-5.93,4.39a70.06,70.06,0,0,1-36.43,38.9c-1.16.53-2.32,1.07-3.47,1.62a1.24,1.24,0,0,0-.65,1.6c.39,1.22.86,2.41,1.31,3.61q12.38,33.24,24.74,66.5C137.7,245.52,138.68,247.05,138.46,249ZM86.41,59.27c-14.39,0-28.79.09-43.18-.06a8.2,8.2,0,0,0-7,3.14c-15,17.65-20.28,37.87-15,60.39A66.36,66.36,0,0,0,99.5,172.42c25-5.32,42.14-20.45,50.13-44.66,7.93-24,2.83-46-13.5-65.4a8.21,8.21,0,0,0-7-3.15C114.87,59.36,100.64,59.28,86.41,59.27Zm47.66,186.94a5.9,5.9,0,0,0-.64-3.61Q121.22,209.83,109,177.06c-.27-.75-.59-1.48-.91-2.21a1.35,1.35,0,0,0-1.53-.85,23.33,23.33,0,0,0-2.35.49,68.54,68.54,0,0,1-36.45-.09,18.8,18.8,0,0,0-2.33-.56,1.34,1.34,0,0,0-1.52.86c-.25.59-.53,1.17-.76,1.77q-12.46,33.43-24.91,66.9c-.31.85-.86,1.73-.11,2.84ZM86.23,3.08q-22.07,0-44.13,0c-1.43,0-2.87,0-4.3.15a1.19,1.19,0,0,0-1.16,1.26c0,.8,0,1.6.06,2.39.48,8.94.91,17.88,1.47,26.82.36,5.9.25,5.11,5.52,5.12q42,0,83.93,0c.48,0,1,0,1.44,0,3.73-.06,3.74-.06,4-3.6.52-6.69,1.06-13.38,1.55-20.07.23-3.19.4-6.39.55-9.58.11-2.13-.18-2.4-2.43-2.49-1.12,0-2.24,0-3.36,0Zm-68.46,89c-5.22-.65-7.11-.44-9.89,1-3,1.62-4.89,4-4.83,7.62.08,4.8.09,9.59,0,14.39C3,119,5,121.44,8.24,123a13.48,13.48,0,0,0,9.91.86A76.26,76.26,0,0,1,17.77,92.05Zm136.52,32a13.5,13.5,0,0,0,10.9-2.5,7.09,7.09,0,0,0,3.06-5.69c.06-5.25.05-10.51,0-15.76A7.41,7.41,0,0,0,165,94.08a11.47,11.47,0,0,0-5.68-2.32c-5.06-.52-4.71-.07-4.05,4.1a71.14,71.14,0,0,1-.72,26.1C154.37,122.56,154.38,123.18,154.29,124.09ZM85.43,49.34h41.26c1.44,0,2.87-.07,4.31-.17a.92.92,0,0,0,.85-1c0-.44-.16-1-.76-1-1.42-.1-2.86-.23-4.29-.23q-41.26,0-82.53,0a37.51,37.51,0,0,0-3.83.13c-.63.06-1.27.47-1.07,1.24a1.45,1.45,0,0,0,1,.88c1.43.13,2.87.14,4.31.14Zm0-5.42h41.18c1.28,0,2.55,0,3.83,0a3.78,3.78,0,0,0,1.37-.29c.22-.09.37-.44.48-.7a.51.51,0,0,0-.38-.76,19.08,19.08,0,0,0-2.8-.33c-5.27,0-10.53,0-15.8,0q-34.47,0-68.95,0a14.2,14.2,0,0,0-4.73.28c-.38.13-.46.35-.49.71s0,.59.4.75c1.37.63,2.83.36,4.24.36Q64.56,43.95,85.39,43.92Zm.54,10.41c13.75,0,27.5,0,41.25,0,1.47,0,3.23.74,4.35-.88.52-.75-.69-1.11-4.54-1.11q-41.26,0-82.51,0c-1.28,0-2.56,0-3.83.14a.8.8,0,0,0-.78.95.93.93,0,0,0,1,.81c1.44.09,2.88.12,4.31.12Q65.54,54.35,85.93,54.33Z"/><path d="M86.48,135.63c8.79,0,17.57.11,26.35,0,4.88-.09,7.06,1.35,6.74,6.77-.13,2.22.05,4.47-.06,6.7-.14,2.86-1.59,4.38-4.4,4.73a28.73,28.73,0,0,1-3.35.07H60.5a26.68,26.68,0,0,1-3.35-.08c-2.64-.35-4.09-1.7-4.24-4.36a82.58,82.58,0,0,1,0-9.57c.16-2.72,1.58-3.93,4.33-4.16,1.27-.11,2.56-.06,3.83-.06Zm1.43,8.87h0c0,1.42,0,2.85,0,4.28s.57,1.91,2.06,2a14.35,14.35,0,0,0,2.36-.11,1.25,1.25,0,0,0,1.18-1.26c0-3.17,0-6.33,0-9.5a1.35,1.35,0,0,0-.76-1,5.43,5.43,0,0,0-4.16.16c-1.06.63-.62,2-.68,3.09C87.88,142.91,87.91,143.71,87.91,144.5Zm-3,.41h-.08c0-1.59,0-3.18,0-4.77a1.43,1.43,0,0,0-1.55-1.45c-4.28-.16-4.51-.26-4.48,3.86,0,2.23,0,4.46.1,6.69a1.58,1.58,0,0,0,1.56,1.5c3.74.51,4.41-.07,4.46-3.92C85,146.19,85,145.55,85,144.91Zm17-.19h0v-4.28a1,1,0,0,0-.07-.47c-.24-.37-.45-.89-.8-1.05-2.65-1.19-4.37-.16-4.42,2.66,0,2.54,0,5.07.06,7.61a1.57,1.57,0,0,0,1.51,1.53,8.61,8.61,0,0,0,1.9,0c1.06-.09,1.8-.59,1.82-1.75C102,147.57,102,146.14,102,144.72Zm-39.2-.65h0c0,1.6,0,3.19,0,4.78s.6,1.9,2.12,1.93c1.89,0,2.63-.41,2.67-1.89q.1-3.81,0-7.64c0-2.31-.53-2.68-2.9-2.6-1.09,0-1.86.41-1.9,1.6S62.76,142.8,62.76,144.07Zm12.95.59h.08c-.07-1.59-.1-3.18-.25-4.76,0-.39-.47-1-.77-1.05a14.09,14.09,0,0,0-3.31.05c-.3,0-.75.67-.76,1q-.09,4.77,0,9.54a1.52,1.52,0,0,0,.8,1.06c2.33,1,4.09-.06,4.19-2.53C75.75,146.9,75.71,145.78,75.71,144.66Zm34.08.07h0v-2.86c0-.31,0-.63,0-1-.12-1.95-.55-2.3-2.74-2.27-1,0-2,.22-2,1.48,0,3-.08,6,0,9.05,0,1.2.81,1.65,2.41,1.61s2.25-.51,2.31-1.77C109.84,147.59,109.79,146.16,109.79,144.73Zm3.1-.06h0c0,1.58,0,3.17,0,4.75a1.58,1.58,0,0,0,2.15,1.2c.78-.25,1.47-.71,1.47-1.63,0-2.85,0-5.7,0-8.55a1.77,1.77,0,0,0-.29-.88,1.93,1.93,0,0,0-2.06-.82,1.22,1.22,0,0,0-1.23,1.18C112.86,141.5,112.89,143.08,112.89,144.67Zm-53.28.42h0c0-1.58,0-3.17,0-4.75a1.52,1.52,0,0,0-1.4-1.62c-1.11-.17-2.06.34-2.16,1.3a39.48,39.48,0,0,0,0,9.47c.12.89,1,1.17,1.81,1.18s1.6-.4,1.67-1.31C59.68,148,59.61,146.52,59.61,145.09Z"/><path d="M112.06,97.13c.31,13-10.56,25.82-26,25.74a25.91,25.91,0,1,1,26-25.74Zm-3-.4c.19-11.76-9.91-22.69-23-22.66a22.9,22.9,0,1,0,.48,45.8C99.19,119.67,109.46,109,109.07,96.73Z"/><path d="M53.64,131.9A10.81,10.81,0,0,0,58.56,130a54.38,54.38,0,0,1,5.25-3.31,18.27,18.27,0,0,1,18.26.88,5.79,5.79,0,0,1,1.69,1.62,1.44,1.44,0,0,1-.09,1.3,1.46,1.46,0,0,1-1.2.53,15.83,15.83,0,0,1-2.56-1.23c-5.74-3.07-11.33-2.67-16.79.71-1.35.84-2.61,1.84-4,2.67a11.11,11.11,0,0,1-7.31,1.7,7.18,7.18,0,0,1-6.21-5.2c-.69-3-.29-5.73,2.17-7.86a5.41,5.41,0,0,1,8,.63,1.63,1.63,0,0,1,.16,1.36,1.21,1.21,0,0,1-1.56.68c-.6-.19-1.12-.64-1.71-.83a3.15,3.15,0,0,0-4,1.76C47.24,128.63,49.53,132,53.64,131.9Z"/><path d="M101.83,124.59a21.21,21.21,0,0,1,10.93,3.66c1.45,1,2.9,2,4.44,2.79a6.72,6.72,0,0,0,4.16.83,4.45,4.45,0,0,0,3.83-5.93c-.66-2.13-2.26-2.9-4.47-2.14-.44.16-.84.46-1.28.63a1.31,1.31,0,0,1-1.65-.57,1.54,1.54,0,0,1,.35-1.76,5.52,5.52,0,0,1,7.74-.38c2.49,2.09,2.92,4.83,2.27,7.82a7.15,7.15,0,0,1-6.14,5.28,11.24,11.24,0,0,1-7.33-1.64c-1.23-.72-2.37-1.6-3.57-2.39-5.7-3.75-11.55-4.2-17.6-.85-1,.57-2.06,1.82-3.38.6-.87-.8-.14-2,1.86-3.2A21.13,21.13,0,0,1,101.83,124.59Z"/><path d="M86.2,112c-7.16.39-15.13-5.9-15-15.25a15.05,15.05,0,1,1,30.1.52C101.12,105.91,93.59,112.33,86.2,112Zm.11-19.09a4.29,4.29,0,0,0-4.14,3.87,4.19,4.19,0,0,0,4.16,4.3A4.28,4.28,0,0,0,90.24,97,4.37,4.37,0,0,0,86.31,92.87Z"/></g></g></svg>