<svg xmlns="http://www.w3.org/2000/svg" viewBox="0 0 171.26 248.99"><title>Character  4</title><g id="Layer_2" data-name="Layer 2"><g id="Character_4" data-name="Character  4"><path d="M138.55,248.56a9.17,9.17,0,0,1-4,.39q-48.46,0-96.92,0c-1.12,0-2.24,0-3.35-.09a.83.83,0,0,1-.8-1,33.31,33.31,0,0,1,.87-3.22q6.12-18.42,12.26-36.84c.35-1.06.73-2.11,1.06-3.18.59-2,.53-2.09-1.92-2.24a1.92,1.92,0,0,1-1.86-1.19c-.38-.87-.68-1.78-1-2.68-3.47-9.45-7-18.88-10.39-28.36-.84-2.37-2-3.93-4.71-3.89a3.84,3.84,0,0,1-.94-.15c-2.67-.62-2.85-.76-3-3.43-.37-7.51-.86-15-1-22.52-.07-4.33-1.85-8-3.23-11.95A1.82,1.82,0,0,0,17.8,127c-1.28,0-2.56,0-3.84-.06a16.57,16.57,0,0,1-9.41-3.12,10,10,0,0,1-4.48-8.08c-.17-11-.17-22.08,1.7-33C5.18,62.82,15.45,47.2,31.92,35.58A86.55,86.55,0,0,1,62,22.35c1.38-.34,3-.52,4-1.34s.66-2.7.82-4.08C67.92,7.72,76.13.5,85,0A19.69,19.69,0,0,1,105.18,14.4a24.4,24.4,0,0,1,.62,5.7,2,2,0,0,0,1.59,2.11c1.23.35,2.46.68,3.69,1.05a84.75,84.75,0,0,1,59.3,68.84c1.13,7.79.87,15.62.84,23.44,0,3.86-1.94,6.67-5.07,8.73a16.91,16.91,0,0,1-8.59,2.68c-1.12.06-2.24.06-3.35.13a1.53,1.53,0,0,0-1.42,1.09c-.34.89-.67,1.8-1,2.7a64.67,64.67,0,0,1-10.23,18.34,17,17,0,0,0-3.1,6.39c-2.36,8.63-4.66,17.28-7.12,25.88-.51,1.77-.14,4.4-3.35,4.4-.84,0-.48,1.31-.52,2.07-.08,1.76-.3,2-1.76,2.28-1.81.39-3.89-.12-5.34,1.54.47,1.67.87,3.36,1.42,5q7.75,23.43,15.56,46.86A13.28,13.28,0,0,1,138.55,248.56Zm14.56-140.9c0-1.26,0-1.9,0-2.54-.19-2.7-.39-5.41-.64-8.12a1.81,1.81,0,0,0-1.92-1.72c-.64,0-1.28,0-1.92,0l-32.11.6c-.8,0-1.6.06-2.4.11a1.78,1.78,0,0,0-1.89,1.72,45.44,45.44,0,0,1-.85,5.2,25.76,25.76,0,0,1-31.9,18.65c-10.34-2.94-16.43-10-18.77-20.35-.21-.93-.26-1.9-.4-2.85A1.32,1.32,0,0,0,59,97.2a13.66,13.66,0,0,0-1.91-.1q-16.55.25-33.08.54a24.88,24.88,0,0,0-2.86.24,1.44,1.44,0,0,0-1.3,1.21,28.66,28.66,0,0,0-.47,3.31,66.37,66.37,0,0,0,1.19,17.17A69.68,69.68,0,0,0,24.26,132a3.89,3.89,0,0,0,3.5,2.73c4.28.49,8.54,1.2,12.81,1.79,3.48.47,7,.88,10.46,1.34.81.11,1.75.21,2.25-.43,2-2.52,4.73-2.33,7.45-2.33h50.82a27.14,27.14,0,0,1,3.83.15c2.66.39,3.94,1.74,4.18,4.44.15,1.75,0,3.52.1,5.28.08,2.28.43,2.67,2.81,3,4.26.63,8.54,1.18,12.8,1.82a2.9,2.9,0,0,0,2.95-1.13c.68-.88,1.38-1.76,2-2.66A65.56,65.56,0,0,0,153.11,107.66ZM86,246h4.8c13.6,0,27.2,0,40.8,0,3.13,0,3.25-.23,2.29-3.33-.23-.76-.46-1.53-.72-2.29-4.66-13.94-9.28-27.9-14-41.83-3-8.73-.81-7-9.76-5.84-11.88,1.58-23.71,3.58-35.56,5.4-6.48,1-13,2-19.44,2.92a3.33,3.33,0,0,0-3.15,2.48q-.26.93-.57,1.83L38.48,241.73c-.25.76-.53,1.51-.74,2.28-.4,1.45,0,1.92,1.66,2,1.12,0,2.24,0,3.36,0ZM74.87,58.31V87.07c0,1.12,0,2.24,0,3.35.07,3,.12,3.12,3.35,3.1q7.67,0,15.33-.19c3.19-.07,3.23-.15,3.32-3.25,0-.64,0-1.28,0-1.92q0-30,0-59.91c0-1.12,0-2.24-.06-3.35a1.55,1.55,0,0,0-1.36-1.68,63,63,0,0,0-19.09,0,1.51,1.51,0,0,0-1.43,1.6c0,1.27-.07,2.55-.07,3.83Q74.85,43.45,74.87,58.31Zm-2.94.5q0-14.88,0-29.76c0-1.28,0-2.56-.07-3.84a1.27,1.27,0,0,0-1.55-1.35,81.42,81.42,0,0,0-19,4.94A2.11,2.11,0,0,0,49.9,31c0,1,0,1.92,0,2.88q0,27.6,0,55.19c0,1.12,0,2.24,0,3.36a1.65,1.65,0,0,0,1.86,1.73c4.15-.08,8.31-.16,12.47-.27,1.92,0,3.83-.17,5.75-.26a1.68,1.68,0,0,0,1.85-1.73q.06-1.44.06-2.88Q71.94,73.92,71.93,58.81Zm28.34-34.4c-.74,1.48-.43,3.1-.43,4.67q0,29.47,0,58.94c0,1.11,0,2.23,0,3.35s.6,1.82,1.77,1.79q9.33-.24,18.67-.55a1.47,1.47,0,0,0,1.51-1.52c0-1.11.08-2.23.08-3.35V35c0-.8-.06-1.6,0-2.4a2.75,2.75,0,0,0-2-2.9,79.75,79.75,0,0,0-16.82-5.42A4.07,4.07,0,0,0,100.27,24.41ZM46.93,62.35V43.17c0-3.52,0-7,0-10.55,0-1.29-.68-1.69-1.88-1.13A80.25,80.25,0,0,0,27.69,42.57a7.1,7.1,0,0,0-2.87,6.11c.13,13.91.06,27.82.06,41.73,0,.64,0,1.28,0,1.92.11,1.9.36,2.2,2.33,2.19q8.15,0,16.3-.2c3.3-.07,3.31-.14,3.38-3.67,0-1,0-1.92,0-2.88Zm77.89.36h0c0,9.1,0,18.2,0,27.3,0,2.19.35,2.53,2.49,2.52,5.75,0,11.5-.13,17.24-.21a6,6,0,0,0,1-.11A1.35,1.35,0,0,0,146.75,91a13.28,13.28,0,0,0,.14-1.9c0-12.45,0-24.91,0-37.36a6.07,6.07,0,0,0-2-4.61,84.08,84.08,0,0,0-17-13.21,7.91,7.91,0,0,0-1.72-.8.93.93,0,0,0-1.31.89c-.09,1.27-.1,2.55-.1,3.83Q124.81,50.26,124.82,62.71Zm-2.94,103.51h0c0-4.3,0-8.61,0-12.91,0-2.13-.24-2.39-2.42-2.78-2.51-.45-5-.78-7.57-1.12-3.31-.46-6.63-.91-10-1.28-1.54-.16-2,.32-2.07,1.84-.05,4.15,0,8.29,0,12.44,0,4.31,0,8.61,0,12.92a1.9,1.9,0,0,0,1.58,2.06c1.55.35,3.12.65,4.68.94,4.54.86,9.08,1.75,13.63,2.54,1.58.27,2.09-.19,2.11-1.73C121.91,174.84,121.88,170.53,121.88,166.22ZM75.45,144.64c-.17.34-.44.62-.44.9-.05,8.32-.07,16.63-.12,25a2.13,2.13,0,0,0,2,2.22c5.8,1.13,11.61,2.22,17.42,3.32a5.11,5.11,0,0,0,1,.07,1.36,1.36,0,0,0,1.51-1.44c0-2.4.07-4.8.07-7.2,0-5.43,0-10.87,0-16.31,0-4-.12-3.8-3.48-4.25-4.12-.55-8.22-1.22-12.35-1.71C79.19,145,77.36,144.14,75.45,144.64Zm-4.07,26.41c.15-.29.42-.57.42-.85,0-8.13.09-16.26.07-24.4,0-1.65-.48-2.06-2.4-2.33q-8.28-1.16-16.58-2.23c-.9-.11-1.87-.52-2.83.48a14.15,14.15,0,0,0-.17,1.68c0,7,0,14,0,21.06,0,2.93.18,3.09,3.18,3.69q7.26,1.44,14.55,2.8A6.59,6.59,0,0,0,71.38,171.05ZM21.92,71.87h0c0-6.23,0-12.45,0-18.68a18.15,18.15,0,0,0-.15-2.86.65.65,0,0,0-1.05-.47,14.15,14.15,0,0,0-2,2A66.78,66.78,0,0,0,5.81,77.82,62.07,62.07,0,0,0,3.7,92.48c0,2.18.35,2.63,2.39,2.6,4.47-.08,8.94-.2,13.4-.4,2-.08,2.4-.5,2.41-2.69C21.94,85.29,21.92,78.58,21.92,71.87ZM46.46,184.61c0,4,0,8,0,11.95,0,2.2.5,2.64,2.51,2.34,5.83-.86,11.64-1.84,17.46-2.7a2,2,0,0,0,2-2.17c0-5.9,0-11.79,0-17.69,0-1.9-.22-2.17-2.11-2.56-5.76-1.2-11.54-2.33-17.33-3.43-1.95-.37-2.48.11-2.51,2.31C46.42,176.64,46.46,180.62,46.46,184.61Zm.45-31.36c0-3.52,0-7,0-10.54,0-2-.23-2.26-2.06-2.6-2.82-.51-5.67-.91-8.51-1.32s-5.69-.79-8.55-1.12c-1.5-.18-2,.29-2,1.87,0,2.08.06,4.15.17,6.23.24,5.1.52,10.2.8,15.3.06,1,.28,2,1.44,2.2,5.47,1.08,10.95,2.16,16.45,3.14,1.73.31,2.21-.2,2.24-2.14C47,160.59,46.91,156.92,46.91,153.25Zm55-56.78c-.84,1.16-.79,2.49-1.1,3.72A15,15,0,0,1,72,101.29c-.25-.75-.42-1.54-.65-2.31-.62-2.14-.65-2.16-3-2.16-.64,0-1.28,0-1.92.05-3,.16-3.36.64-2.83,3.48a27.63,27.63,0,0,0,.83,3.25,22.95,22.95,0,0,0,44.73-5.52c.06-1.26-.38-1.89-1.56-1.92A18.72,18.72,0,0,0,102,96.47ZM86.47,3A16.37,16.37,0,0,0,69.8,18.22c-.08,1.82.36,2.37,2.12,2.25,3.18-.24,6.36-.63,9.54-.83a93.24,93.24,0,0,1,19.1,1.08c1.83.26,2.26-.37,2.21-2.08C102.53,10.13,95.21,3.12,86.47,3Zm71.72,89.08c2.61-.16,5.16-.29,7.71-.48a1.13,1.13,0,0,0,1.07-1.3,8.54,8.54,0,0,0-.14-1.42,82.32,82.32,0,0,0-14.52-33.05,8.48,8.48,0,0,0-1.25-1.42c-.17-.16-.57-.08-.87-.05-.08,0-.21.22-.22.35-.05,1.11-.12,2.22-.12,3.34,0,8.62,0,17.25,0,25.87,0,2.52-.46,5.09.42,7.57C152.86,92.89,155.6,91.76,158.19,92.12ZM71.91,194.79c.36.13.68.37,1,.32q9.67-1.43,19.34-2.92c1-.15,1.25-1,1.26-1.77.06-3.18,0-6.36.05-9.55a2.09,2.09,0,0,0-2-2.24c-5.93-1.15-11.85-2.36-17.79-3.49-1.69-.33-2.23.16-2.24,2.1,0,5.41,0,10.83,0,16.24A5.28,5.28,0,0,0,71.91,194.79ZM16.49,106c0-2.07,0-4.15,0-6.22,0-1.19-.54-1.83-1.67-1.82-3.36,0-6.71.09-10.06.19a1.65,1.65,0,0,0-1.7,1.88c0,5.11-.06,10.22,0,15.33,0,3,1.71,5.09,4.17,6.57a15.17,15.17,0,0,0,8.26,2c2.54,0,2.86-.35,2.36-2.74A57.25,57.25,0,0,1,16.49,106Zm151.74,1.67c0-2.55.05-5.11,0-7.66a11.36,11.36,0,0,0-.59-3.26A2.3,2.3,0,0,0,165.55,95c-3,0-6,.12-9.06.29-.7,0-1,.74-.93,1.42.05,1.12.1,2.24.24,3.34a63,63,0,0,1-.91,19.52c-.8,4.33-.81,5,4.34,4.13a15.46,15.46,0,0,0,4.49-1.56,7.54,7.54,0,0,0,4.52-7.27C168.18,112.5,168.23,110.1,168.23,107.71Zm-42.66,43.9a2.94,2.94,0,0,0-.74,2.37q0,12.68,0,25.34a3.94,3.94,0,0,0,.19,1.87,3,3,0,0,0,1.53,1c.69.28,1.21-.2,1.6-.71a2.36,2.36,0,0,0,.35-.88q3.54-12.9,7-25.8a10.41,10.41,0,0,0,.15-1.62C132.37,151.9,128.88,151.89,125.57,151.61ZM96.63,185.19h0c0,1.6,0,3.2,0,4.79a1.29,1.29,0,0,0,1.6,1.31c2.06-.25,4.11-.57,6.16-.89,4.1-.63,8.2-1.28,12.3-1.92a1.78,1.78,0,0,0,1.51-1c.8-1.79.05-3.67-1.8-4-5.93-1.23-11.89-2.38-17.84-3.51-1.24-.24-1.89.25-2,1.42S96.63,183.92,96.63,185.19Zm-53.18,3.55c0-5.44,0-10.18,0-14.92s.46-4.38-4.5-5.43a13.44,13.44,0,0,0-1.42-.18c-1.87-.19-2.45.39-1.84,2.06,2.11,5.8,4.29,11.58,6.47,17.36C42.23,187.86,42.56,188,43.45,188.74Zm66.36-46.25h0c0-.47,0-1,0-1.43q0-.48,0-1c-.13-1.39-.7-1.89-2.16-1.91-2,0-2.64.47-2.7,2.4,0,1.11,0,2.23,0,3.34a1.5,1.5,0,0,0,1,1.46c3,1,3.86.87,3.85-2.42Zm-7.94,0c0-1.19,0-1.66,0-2.13-.09-1.72-.51-2.1-2.34-2.14-2.24-.05-2.69.39-2.72,2.73,0,.63,0,1.26,0,1.89a1.5,1.5,0,0,0,1.37,1.6c.78.12,1.55.27,2.33.33s1.13-.42,1.22-1.12S101.87,142.36,101.87,142.45Zm-10.63,1c1.93.11,2.44-.31,2.52-2,0-.47,0-.95,0-1.42A1.74,1.74,0,0,0,92,138.23a15.36,15.36,0,0,0-2.35,0,1.47,1.47,0,0,0-1.52,1.46,11,11,0,0,0,0,1.41c.08,1.56.45,2,1.86,2.23C90.4,143.39,90.88,143.42,91.24,143.46ZM86.68,96.39v0c-.78,0-1.57,0-2.35,0-.59,0-1.31-.09-1.6.66a1.86,1.86,0,0,0,.55,2.12,4,4,0,0,0,6.41-.68,2.09,2.09,0,0,0,.3-1.32c-.09-.82-.82-.78-1.42-.81S87.31,96.39,86.68,96.39Zm29.91,46a22.92,22.92,0,0,0-.33-2.94,1.52,1.52,0,0,0-1.81-1.1c-.41,0-1.06.31-1.14.6a12.87,12.87,0,0,0,0,6.91c.22.77,1.15,1,2,.93s1-.66,1.1-1.26C116.52,144.61,116.52,143.66,116.59,142.4Zm-34.54-.13c1.34.11,2.17.18,2.63-.62A2.3,2.3,0,0,0,83,138.2a18.73,18.73,0,0,0-2.8.1c-.92.08-1.3.71-1.32,1.59s.18,1.61,1,1.89A15.36,15.36,0,0,0,82.05,142.27Zm-6.36-2.72c-.11-.26-.14-.67-.35-.8a3.82,3.82,0,0,0-4-.14,1.26,1.26,0,0,0-.1,1.67,5.11,5.11,0,0,0,3.62.77C75.58,140.91,75.69,140.22,75.69,139.55Zm48.21,46.81c0-.93-.67-1.71-1.37-1.56s-.92.74-.88,1.39.29,1.2,1.08,1.21A1,1,0,0,0,123.9,186.36ZM65.25,138.13a5.38,5.38,0,0,0-1.21.15,3.85,3.85,0,0,0-.74.5c.18.23.32.62.53.67a19.6,19.6,0,0,0,2.75.4c.18,0,.53-.37.56-.6a.88.88,0,0,0-.38-.75A8.74,8.74,0,0,0,65.25,138.13Z"/></g></g></svg>