<svg xmlns="http://www.w3.org/2000/svg" viewBox="0 0 181.58 236.67"><title>Character  6</title><g id="Layer_2" data-name="Layer 2"><g id="Character_6" data-name="Character  6"><path d="M116.77,162.11c2.87,8.4,6.09,16.55,9.13,24.76s6,16.19,9,24.28,6.21,16.37,9.05,24.52c-1.34,1-2.49.72-3.57.74-36.91.5-97.2.25-101.68-.41-.38-1.87.7-3.41,1.3-5q12.17-32.82,24.43-65.6c.65-1.75,1.61-3.46,1.58-5.39-1.38-.64-2.64-.2-3.9-.08q-17.9,1.67-35.81,3.34c-1.28.12-2.56.19-3.83.22-1.66.05-2.09-.3-2.18-1.79-.07-1.28-.05-2.56-.05-3.84q0-16.32,0-32.63c0-1.28,0-2.56-.09-3.83a1.56,1.56,0,0,0-1.54-1.52c-1.43-.19-2.86-.38-4.28-.61a19.21,19.21,0,0,1-9.1-4A12.76,12.76,0,0,1,0,104.9c0-7.19,0-14.39,0-21.59a11.4,11.4,0,0,1,3.71-9c2-1.73,2.68-3.83,3.24-6.19,6.94-29.29,24.18-50.27,52-61.6,51-20.79,106.62,10.53,117.15,63.1a10.62,10.62,0,0,0,2.45,5.59,12,12,0,0,1,3,8.39q.06,10.32,0,20.63c0,5.24-2.43,9.17-6.74,12a19.57,19.57,0,0,1-7.5,3c-1.1.19-2.21.39-3.3.61a1.57,1.57,0,0,0-1.36,1.67c0,1.28,0,2.56,0,3.84q0,17.52,0,35c0,1.28,0,2.56-.07,3.84a1.31,1.31,0,0,1-1.6,1.32c-3-.2-6.07-.41-9.09-.69q-16.73-1.56-33.43-3.13A6.77,6.77,0,0,0,116.77,162.11ZM65.39,81.83c-1.92-.58-3.2.67-4.58,1.33Q45,90.63,29.24,98.24c-5.26,2.55-4.5,1.46-3.89,7.1a13.13,13.13,0,0,0,.23,1.42A67,67,0,1,0,155.12,73.65a12.15,12.15,0,0,0-3-5.35Q143,59.47,134,50.48a2.82,2.82,0,0,0-3.79-.6c-7.6,3.72-15.28,7.31-22.91,11a12,12,0,0,0-1.65,1.2c1.2,1.06,2.31,2,3.32,3,2.32,2.28,2.14,2.18,4.89.82,2.29-1.13,4.54-2.34,6.84-3.47a7.39,7.39,0,0,1,2.23-.73,1.38,1.38,0,0,1,1.09.69,1.4,1.4,0,0,1-.14,1.31,11.57,11.57,0,0,1-2.34,1.61c-2.24,1.21-4.53,2.36-6.79,3.55-.75.39-1.3,1-1,1.9a2,2,0,0,0,1.66,1.53,10.57,10.57,0,0,0,2.38-.09c3.48-.47,7-1,10.45-1.46a13.38,13.38,0,0,1,2.36-.16,1.25,1.25,0,0,1,1.18,1.27,1.53,1.53,0,0,1-.66,1.14,5.08,5.08,0,0,1-1.81.55c-3.48.53-7,1-10.44,1.53-2.48.37-2.66.63-2.29,3.09.07.47.17.94.26,1.41,3.08,15.25-9.38,31.69-27.68,30.32-12-.9-23-11.07-23.62-24.21C65.5,84.35,65.44,83.08,65.39,81.83ZM22.56,98c2.11-1,3.7-1.66,5.27-2.42Q78.17,71.5,128.52,47.41c5-2.38,3.74-2.78,8,1.41Q145.28,57.37,154,66c.57.56,1.17,1.09,1.73,1.66a1.5,1.5,0,0,0,1.71.51c.64-.33.53-1.08.31-1.69-2.94-8.29-6-16.51-10.69-24a47.16,47.16,0,0,0-5.53-7.22,4.89,4.89,0,0,0-4.72-1.58c-1.22.19-2.57,1.3-3.64.38-.91-.78-1.31-2.14-1.93-3.25-.23-.42-.45-.85-.66-1.28a10.76,10.76,0,0,0-6.12-5.74c-2.24-.84-4.43-1.82-6.7-2.57-8.89-2.93-18.06-3.92-27.38-4A62.34,62.34,0,0,0,51.52,30c-14.35,10.74-23.44,25-28.19,42.25C21,80.64,21,89,22.56,98ZM43.13,233.46h3.48q44.36,0,88.71,0c5,0,4.68-.05,3.09-4.35q-11.92-32.12-23.93-64.2c-1.6-4.29-1-4.3-6.19-3.06A68.16,68.16,0,0,1,85,163.64a96.64,96.64,0,0,1-13.64-2.53c-1.56-.4-2-.17-2.57,1.25-.26.58-.44,1.2-.66,1.8Q55.9,196.94,43.7,229.72C43.33,230.73,42.63,231.71,43.13,233.46ZM167.17,68a5.12,5.12,0,0,0-.36-2.87C155.58,24.68,113.35-.06,72.69,10.42c-28.37,7.31-47,25.38-56.34,53.15a15.42,15.42,0,0,0-.65,2.3c-.11.72-.65,1.5.07,2.17a4,4,0,0,0,1,.24c5-.15,4.26.68,6-4.18A79.36,79.36,0,0,1,38.44,37.9C49.4,25.76,62.77,17.82,79,15c7.79-1.35,15.64-1.05,23.44-.19a79.48,79.48,0,0,1,21.34,5.3c4.32,1.76,7.93,4.12,9.78,8.58.63,1.5,1.57,2.36,3.32,1.93,2.82-.7,4.89.5,6.79,2.51a55.74,55.74,0,0,1,9.16,13.43,146.1,146.1,0,0,1,7,16.82c.43,1.2.88,2.4,1.37,3.58a1.66,1.66,0,0,0,1.36,1.2C164.1,68.21,165.7,68.82,167.17,68Zm-46.91,90.25c.79,1.05,2,.9,3,1q16.22,1.54,32.44,3a21.13,21.13,0,0,0,2.39.09,1.41,1.41,0,0,0,1.51-1.48c0-.79.07-1.59.07-2.39q0-17.25,0-34.51c0-.79,0-1.59,0-2.39a1.47,1.47,0,0,0-1.34-1.64,2.05,2.05,0,0,0-2.15.7,23.59,23.59,0,0,0-1.27,2.57A70.08,70.08,0,0,1,123,156.42C122,156.92,120.84,157.12,120.26,158.22ZM92.4,68.75c1.42.4,2.77.68,4,1.15a15,15,0,1,1-18.73,7.76c.31-.74,1.39-1.48.3-2.64-1.25.56-2.55,1.11-3.83,1.72-6.16,2.92-6.25,3.09-5.62,9.8a17.17,17.17,0,0,0,.26,1.89c2.47,11.78,13.57,21.06,27.78,17.91a22.9,22.9,0,0,0,6.8-41.82,2.81,2.81,0,0,0-2.22-.64A43.9,43.9,0,0,0,92.4,68.75ZM23.21,140.19V155c0,1.12,0,2.24.05,3.36.08,1.63.46,2,2,1.93,3-.22,6-.56,9.06-.83l23.37-2.11a3.73,3.73,0,0,0,.93-.23.46.46,0,0,0,.23-.36c0-.3,0-.72-.18-.85a23.65,23.65,0,0,0-2.05-1.23A70.17,70.17,0,0,1,27.7,123a17.85,17.85,0,0,0-1.34-2.52,1.8,1.8,0,0,0-2.16-.5c-.74.21-.89.84-.92,1.49-.05,1.12-.06,2.23-.06,3.35Q23.21,132.53,23.21,140.19ZM95.4,83.87a4,4,0,1,0-8,.56,4,4,0,0,0,8-.56Z"/><path d="M91.23,122.69h25.38c1.12,0,2.24,0,3.35,0,3.25.26,4.54,1.48,4.71,4.84a80,80,0,0,1,0,8.62c-.17,2.92-1.57,4.27-4.48,4.69a21.07,21.07,0,0,1-2.87.09q-25.84,0-51.71,0a20.07,20.07,0,0,1-3.8-.26,4.2,4.2,0,0,1-3.75-4.3c-.13-3.18-.14-6.38,0-9.57a4.06,4.06,0,0,1,4-4,34.85,34.85,0,0,1,3.83-.12Zm-7.36,8.72h0c0,1.6,0,3.19,0,4.78a1.48,1.48,0,0,0,1.38,1.64,18.52,18.52,0,0,0,3.33,0,1.53,1.53,0,0,0,1.45-1.61c0-3,0-6.05,0-9.07a1.46,1.46,0,0,0-1.58-1.43c-4.74-.2-4.61-.19-4.59,4.23C83.88,130.46,83.87,130.94,83.87,131.41Zm9.33-.15h0c0,1.58-.06,3.17,0,4.76.07,1.43.6,1.85,2.14,1.92a11.21,11.21,0,0,0,1.42,0c1.46-.11,2.05-.6,2.09-2q.09-4,0-8.09c0-1.56-.51-2-2-2.09-3.27-.26-3.64,0-3.73,3.15C93.19,129.67,93.2,130.47,93.2,131.26ZM80.89,132h0c0-1.58,0-3.17,0-4.75,0-1-.67-1.37-1.54-1.44a13.24,13.24,0,0,0-1.89,0c-.9,0-1.57.5-1.59,1.4q-.06,4.75,0,9.49a1.36,1.36,0,0,0,1.27,1.21,7.94,7.94,0,0,0,1.89.06c1.06,0,1.83-.53,1.87-1.69C80.93,134.8,80.89,133.37,80.89,132ZM102,131.6h0c0,1,0,1.92,0,2.87,0,.32,0,.64,0,1,.11,2.18.71,2.66,3,2.5,1.06-.07,1.94-.42,2-1.62,0-3,0-6.06,0-9.09a1.84,1.84,0,0,0-.61-1.22c-.55-.48-3.15-.4-3.69,0a2.65,2.65,0,0,0-.65,2.2C101.93,129.36,102,130.48,102,131.6Zm-29.3.58h-.12c0-1.73,0-3.46,0-5.19a1.19,1.19,0,0,0-1.2-1.19,12,12,0,0,0-1.89,0c-.84.08-1.57.47-1.58,1.41,0,3.15,0,6.3,0,9.45a1.39,1.39,0,0,0,.8,1c2.58.75,4,.3,4-2.14C72.63,134.39,72.65,133.29,72.65,132.18Zm42.21-.1h0c0-1.58,0-3.15,0-4.73a1.47,1.47,0,0,0-.91-1.48c-2.2-.81-3.87.17-3.92,2.35,0,2.52,0,5,0,7.56,0,1.61.68,2.12,2.4,2.17s2.36-.45,2.44-2.09C114.92,134.61,114.86,133.34,114.86,132.08Zm3.19-.21H118c0,1.42,0,2.85,0,4.27a1.57,1.57,0,0,0,1.36,1.66,1.87,1.87,0,0,0,2.18-1.37,34.7,34.7,0,0,0-.06-9.44c-.13-.9-.91-1.19-1.78-1.19s-1.57.42-1.62,1.33C118,128.7,118.05,130.29,118.05,131.87Zm-53.31.37h-.07c0-1.76.06-3.52,0-5.27,0-1-.83-1.21-1.71-1.18a1.83,1.83,0,0,0-1.81,1.26,1.28,1.28,0,0,0-.1.47c0,2.88-.06,5.75,0,8.63a2,2,0,0,0,2.46,1.66c1-.14,1.24-.88,1.25-1.73C64.76,134.8,64.74,133.52,64.74,132.24Z"/></g></g></svg>