<svg xmlns="http://www.w3.org/2000/svg" viewBox="0 0 171.27 236.8"><title>Character  9</title><g id="Layer_2" data-name="Layer 2"><g id="Character_9" data-name="Character  9"><path d="M159.14,75.79c1.54.52,2.93.89,4.25,1.44,5.51,2.26,8.12,6.55,7.86,11.4-.24,4.31,0,8.64-.06,13,0,7.28-4.14,11.94-11.41,12.92a38.22,38.22,0,0,1-4.79.22,2.36,2.36,0,0,0-2.45,1.84c-.25.75-.53,1.5-.82,2.25Q141,146.3,114.16,158.51l-3,1.37c-.48,1.66.45,2.9.92,4.18Q124.48,197.55,137,231c2.28,6.11,2.47,5.79-4.09,5.79h-94c-6.79,0-6.17.32-3.88-5.84,8.12-21.87,16.32-43.72,24.43-65.6,2.26-6.1,2.69-4.94-2.93-7.64A69.33,69.33,0,0,1,21,119.76c-2.25-5.61-.93-5-6.95-5.05a16,16,0,0,1-6.54-1.3C2.73,111.22-.17,107.84,0,102.26c.16-4.48.19-9,0-13.44C-.24,83,2.67,79.52,7.63,77.28c1-.45,2.2-.5,3-1.6a9.44,9.44,0,0,0-.54-1.18c-2.61-4.19-2.79-8.45-.17-12.66a3,3,0,0,0,0-3.5,12.92,12.92,0,0,1-1.55-9.71A14,14,0,0,1,18.78,37.84c2.57-.73,2.61-.75,2.71-3.4a19,19,0,0,1,3.56-10.76,17.67,17.67,0,0,1,11-7.2c1.09-.23,2.2-.42,3.31-.56a2.39,2.39,0,0,0,2.14-1.63,22.67,22.67,0,0,1,1.16-2.62A22,22,0,0,1,74.4,3.81,10.92,10.92,0,0,1,75.93,5c1.19,1.18,2.35,1.1,3.91.52,8.2-3.05,15.35-1.4,21.34,5.08,1.47,1.59,1.55,1.59,3.64.58,3.85-1.86,7.86-2.78,12.09-1.85,6.93,1.51,11.74,5.56,14.12,12.32a18.43,18.43,0,0,1,.69,2.3,1.68,1.68,0,0,0,1.61,1.45c1.42.19,2.86.32,4.26.65A17.48,17.48,0,0,1,151,38.35c.8,2.47,1.65,4.63,3.68,6.45a12.39,12.39,0,0,1,4,9,5.7,5.7,0,0,0,1.31,4c3.86,4.28,4,11.67.16,16.4A15.39,15.39,0,0,0,159.14,75.79ZM20.71,81.18c-.29,1.24-.52,2-.64,2.78a66.82,66.82,0,0,0,77.54,76.38c33.92-5.89,58.68-36.7,55.13-73.07-.17-1.74-.54-3.47-.87-5.2a1.27,1.27,0,0,0-1.76-1,9.54,9.54,0,0,0-1.37.45c-10.61,4-21.2,8.08-31.85,12a4.39,4.39,0,0,0-3,3.83c-1.31,7-5.52,11.91-11.7,14.91-11.09,5.38-22.28,5.17-33.15-.73-5.59-3-9.41-7.7-10.52-14.13A4.61,4.61,0,0,0,55,93.4C44.93,89.83,34.87,86.15,24.8,82.53,23.61,82.1,22.39,81.73,20.71,81.18ZM86,233.77q22,0,44.11,0c4.84,0,4.66,0,3-4.37l-23.91-64.21c-.34-.89-.68-1.79-1.07-2.66a1.63,1.63,0,0,0-1.93-1c-.78.14-1.55.35-2.32.54a68.37,68.37,0,0,1-27.09,1.64,89.59,89.59,0,0,1-8.92-1.77c-3.65-.95-3.66-.92-5.1,2.83-.06.14-.1.3-.15.45L38.9,228.94c-.39,1.05-.75,2.1-1.07,3.17-.26.91.2,1.53,1.2,1.57,1.43.07,2.87.08,4.31.08ZM98.54,33.27c1.11.68,1.44,1.82,2.08,2.72a15.19,15.19,0,0,0,13.93,6.9c.64,0,1.27-.17,1.91-.18a1.43,1.43,0,0,1,1.59,1.39c.1.79.11,1.6.25,2.38,1,5.85,4.31,10.18,9.9,11.89a19.51,19.51,0,0,1,9.18,5.32,11,11,0,0,1,3.16,5,9.68,9.68,0,0,0,12.36,6.82,9.79,9.79,0,0,0,5-15.48,8.78,8.78,0,0,1-2.21-6,9.31,9.31,0,0,0-3.91-7.89c-2-1.45-2.68-3.2-3.19-5.49-1.51-6.75-6.51-11-13.28-12.12-1.95-.31-3.8.35-5.88.13-.14-.59-.33-1.18-.43-1.78-.12-.79-.1-1.61-.25-2.39a15.49,15.49,0,0,0-23.17-10.29c-1,.57-1.83,1.29-2.73,2A1.09,1.09,0,0,1,101.2,16c-.76-1-1.33-2.19-2.14-3.17A15.2,15.2,0,0,0,85,7.1a14.55,14.55,0,0,0-6.25,2.28,2.05,2.05,0,0,1-3-.43,17,17,0,0,0-1.76-1.63,19,19,0,0,0-29.59,7.46c-.43,1-.73,2.11-1.08,3.17a1.5,1.5,0,0,1-1.4,1.1c-.63.05-1.28-.08-1.92-.05C29.65,19.48,23.17,27.58,25,37.88a3.34,3.34,0,0,1,0,2.29c-14.1,0-17.52,11.73-10.22,20.25a33.88,33.88,0,0,0-2.59,3.4A8.27,8.27,0,0,0,13.55,74,8.6,8.6,0,0,0,23.73,75.3a8.39,8.39,0,0,0,3.9-9.88c-.34-1.18-1.49-2.12-1.15-3.48,5.45-4.29,5.45-4.29,7-12.84a9.46,9.46,0,0,1,3.73.6,13.14,13.14,0,0,0,6.17-.11,15.83,15.83,0,0,0,10.38-7.86c1.07-1.83,1.14-1.82,3.35-1.37,6.68,1.37,12.71.22,17.86-4.49l.72-.63A1.7,1.7,0,0,1,77.86,35c.55.32,1.09.67,1.66,1A15.25,15.25,0,0,0,96.25,34.9C97,34.36,97.8,33.8,98.54,33.27Zm47.33,45.19c-4.43-2-7.5-5-8.51-9.82a3.68,3.68,0,0,0-1.28-2,22.34,22.34,0,0,1-2.8-2.6A6,6,0,0,0,129.64,62c-7.39-1.72-12-6.35-14-13.57A2.77,2.77,0,0,0,112.71,46a18.49,18.49,0,0,1-13.65-7c-.88-1.09-1.7-1.07-2.88-.43a18.32,18.32,0,0,1-17,.62,3.45,3.45,0,0,0-3.94.42,21,21,0,0,1-16.28,4.08,3.67,3.67,0,0,0-4,1.73,18.13,18.13,0,0,1-11.44,7.29,22,22,0,0,1-5.73.26,1.76,1.76,0,0,0-2,1.54,12.58,12.58,0,0,1-3.61,6.64,4.11,4.11,0,0,0-1.39,4.57c1,4.6-.57,8.48-4.27,11.46l-2,1.58a11.65,11.65,0,0,0,1.8,1.11Q42,85.57,57.79,91.25a7.08,7.08,0,0,0,1.86.43c.72.07,1.25-.26,1.17-1.08-.11-1.27-.27-2.54-.42-3.81a23.83,23.83,0,0,1,1-9.93,25.88,25.88,0,0,1,50.54,10c-.12,1.27-.28,2.54-.38,3.81-.07.83.5,1.16,1.19,1A11.52,11.52,0,0,0,115,91l28.64-10.9A3,3,0,0,0,145.87,78.46ZM86.4,61.56a22.69,22.69,0,0,0-23,24.07c.47,7.2,1,6.43,7.14,6.36,1.56,0,2.07-.68,1.58-2.12A15.75,15.75,0,0,1,71.8,80,15.11,15.11,0,0,1,89.55,69.68,15.29,15.29,0,0,1,101,87.63c-.24,1.32-1.67,2.78-.36,4,1.08,1,2.78.35,4.2.44a3.84,3.84,0,0,0,.48,0c2.24-.11,2.92-.59,3.31-2.64C111.8,72.55,98.53,61.25,86.4,61.56ZM18.05,111.37c-.19-1.24-.3-2.33-.52-3.4a74,74,0,0,1-.91-20.91c.15-1.89.56-3.77.78-5.66a2,2,0,0,0-1.82-2.32A13.11,13.11,0,0,0,7.74,80.6c-3,1.63-4.8,4-4.73,7.63q.17,7.15,0,14.32c-.08,3.65,1.7,6,4.74,7.62A14.82,14.82,0,0,0,18.05,111.37Zm136-.12a12.17,12.17,0,0,0,9.8-1.34,7.9,7.9,0,0,0,4.38-7.4c-.07-4.78-.06-9.57,0-14.35,0-3.41-1.62-5.73-4.45-7.36A13.14,13.14,0,0,0,156.47,79c-1.23.06-1.77.56-1.63,1.75.29,2.53.77,5,.95,7.58A72.59,72.59,0,0,1,154.08,111.25Zm-68-3.89a22.85,22.85,0,0,0,18.75-9.62,6.33,6.33,0,0,0,.71-1.24c.21-.46.09-1.12-.36-1.14-3.41-.13-6.83-1.1-10.1,1.17-5.86,4.06-11.92,4-17.82,0a6.87,6.87,0,0,0-4.4-1.43c-1.59.08-3.18,0-4.77.07-1.27.06-1.69.85-1,1.87C71.6,103.7,78,107,86.06,107.36Zm.25,5.52A29.17,29.17,0,0,0,101.76,109a18.8,18.8,0,0,0,8.4-9.51c.45-1.17,1.36-3,.36-3.53-1.4-.76-1.57,1.37-2.32,2.19-.53.59-.88,1.34-1.38,2-6.35,7.81-14.48,11.29-24.51,9.86a25,25,0,0,1-18-11.54c-.61-.93-1.22-1.86-1.86-2.77a.4.4,0,0,0-.41-.06c-.23.16-.58.38-.59.59a9.4,9.4,0,0,0,1,4.15,18.89,18.89,0,0,0,8.08,8.57A30.12,30.12,0,0,0,86.31,112.88ZM86.16,88.5a4.37,4.37,0,0,0,4.09-3.93A4.23,4.23,0,0,0,86,80.38a4.28,4.28,0,0,0-3.86,4.14A4.39,4.39,0,0,0,86.16,88.5Z"/><path d="M86.69,123c8.62,0,17.25.14,25.87,0,6.37-.13,7.18,2.36,6.91,7-.13,2.07,0,4.16,0,6.23-.14,3.4-1.59,4.81-5,5-1,.06-1.92,0-2.88,0H60.72a27.15,27.15,0,0,1-3.83-.11A4.12,4.12,0,0,1,53,137.11c-.14-3.34-.15-6.7,0-10.05.11-2.34,1.63-3.7,4-3.94a37.6,37.6,0,0,1,3.83-.08ZM84.89,132h-.13a27.85,27.85,0,0,0-.06-4.75c-.31-1.79-2-1.14-3.14-1.19s-2.54-.35-2.62,1.25c-.16,3.17-.1,6.35,0,9.52a1.47,1.47,0,0,0,1.55,1.46c4.15.19,4.52.19,4.45-3.91C84.88,133.57,84.89,132.77,84.89,132Zm8.74.44h-.06c0-1.6,0-3.2,0-4.79a1.4,1.4,0,0,0-1.42-1.56,24.81,24.81,0,0,0-2.86,0,1.26,1.26,0,0,0-1.26,1.2q-.08,4.78,0,9.57a1.46,1.46,0,0,0,.73,1.12,5,5,0,0,0,4.15-.07c.92-.51.69-1.69.72-2.64S93.63,133.38,93.63,132.42Zm8.28.1h-.11c0-1.75,0-3.51,0-5.25a1.48,1.48,0,0,0-.81-1,5.63,5.63,0,0,0-3.28-.06,1.07,1.07,0,0,0-.85,1c-.06,3.18-.08,6.37,0,9.55a1.49,1.49,0,0,0,1.54,1.5c2.83.22,3.65,0,3.59-2.87C101.89,134.43,101.91,133.48,101.91,132.52Zm-26.17-.43h-.12c0-1.6,0-3.19,0-4.78a1.3,1.3,0,0,0-1.23-1.23,8.51,8.51,0,0,0-1.43-.06c-2,0-2.38.32-2.41,2.09,0,2.87,0,5.74,0,8.61a1.52,1.52,0,0,0,1.48,1.55c2.76.39,3.57-.22,3.67-2.84C75.78,134.32,75.74,133.2,75.74,132.09Zm-8.22.14h0c0-1.43.05-2.86,0-4.28S67,126.07,65.41,126c-2.34-.06-2.72.25-2.75,2.68,0,2.7,0,5.4.09,8.09a1.45,1.45,0,0,0,1.53,1.48c2.39.11,3.27,0,3.24-2.72C67.51,134.45,67.52,133.34,67.52,132.23Zm42.24-.07h0c0-1.43,0-2.86,0-4.28s-.54-1.82-2.14-1.85a11.27,11.27,0,0,0-1.42.08,1.23,1.23,0,0,0-1.17,1.25c0,3.17,0,6.34,0,9.51,0,.92.68,1.34,1.58,1.42,2.51.24,3.09-.25,3.17-2.79C109.79,134.39,109.76,133.27,109.76,132.16Zm-50.22.2h0c0-1.73.06-3.47,0-5.2,0-.7-.65-1-1.34-1.08-1.32-.1-2.23.51-2.26,1.8-.08,2.84,0,5.68,0,8.52a1.65,1.65,0,0,0,.25.9,2.13,2.13,0,0,0,2,.92c.68-.08,1.28-.46,1.31-1.13C59.6,135.51,59.54,133.94,59.54,132.36Zm53.28-.62h0c0,1.59,0,3.19,0,4.78a1.56,1.56,0,0,0,1.35,1.69,1.89,1.89,0,0,0,2.18-1.39,43.47,43.47,0,0,0-.06-9.54c-.11-.87-.93-1.21-1.81-1.19s-1.57.39-1.61,1.34C112.77,128.87,112.82,130.3,112.82,131.74Z"/></g></g></svg>