<svg xmlns="http://www.w3.org/2000/svg" viewBox="0 0 235.41 276.66"><title>Character  11</title><g id="Layer_2" data-name="Layer 2"><g id="Character_11" data-name="Character  11"><path d="M173.49,81.59c.46.6.91,1.26,1.43,1.85a74.6,74.6,0,0,1,15.94,29.23c.63,2.19,1.4,3.75,3.83,4.28a9.48,9.48,0,0,1,3.35,1.82,10.11,10.11,0,0,1,4.53,8.54c0,5.12,0,10.24,0,15.35,0,4.29-2.08,7.25-5.54,9.45a17.1,17.1,0,0,1-8.68,2.41c-3.78.16-3.68-.18-5.31,4q-10.64,27.5-37.58,39.64a21.12,21.12,0,0,0-2.58,1.24,1.44,1.44,0,0,0-.52,1.22c.33,1.23.81,2.42,1.25,3.62q12.38,33.26,24.77,66.5c2.41,6.47,2.32,5.85-3.95,5.85H69.89c-1.44,0-2.88,0-4.31-.13-.75-.06-1-.66-.82-1.38.39-1.21.82-2.42,1.27-3.61Q78.5,238,91,204.56c2.07-5.59,2.21-4.6-2.72-6.94a69.65,69.65,0,0,1-35.92-38.18,8.4,8.4,0,0,1-.49-1.35c-.54-2.55-1.85-3.8-4.68-3.57a20.86,20.86,0,0,1-5.7-.59,13.44,13.44,0,0,1-6.73-3.48,9.13,9.13,0,0,1-3.24-6.72c0-5.76-.13-11.52,0-17.27.12-4.51,3-7.14,6.76-9.15,1.67-.89,4.07-.49,5.06-2.37a36.56,36.56,0,0,0,1.82-5.44A76,76,0,0,1,58.22,85.66q1.35-1.68,2.67-3.38c.08-.11,0-.31.08-.61-.27-.25-.57-.58-.92-.86-2.32-1.82-3.6-4.07-2.75-7.09.39-1.39-.39-2.13-1.36-2.74a7.81,7.81,0,0,0-6.42-1,17.09,17.09,0,0,0-9,6,27,27,0,0,0-6,15.88,102,102,0,0,1-2.77,19.43,55.59,55.59,0,0,1-5.58,14.24,26.58,26.58,0,0,1-7.51,8.62c-5.37,3.77-11.18,4.41-17.35,2.39-1.47-.48-1.68-1.89-.48-3a17.61,17.61,0,0,1,1.54-1.15c3.88-2.68,5.46-6.46,5.52-11.1a65.21,65.21,0,0,0-1.56-13.79c-1-5-2.32-10-2.92-15.06A60,60,0,0,1,4.81,68.69C10.58,48.44,28,39.9,45.88,41.73a35.57,35.57,0,0,1,8.4,2.43,4.92,4.92,0,0,0-1.47-6.35c-2.79-2.38-5.44-4.94-8.14-7.44a22.86,22.86,0,0,1-2-2.06,1.37,1.37,0,0,1,.8-2.24,22.59,22.59,0,0,1,3.28-.62c3.65-.42,7.31-.85,11-1.13a6.7,6.7,0,0,0,4.61-2.15A26.4,26.4,0,0,1,83.54,14a5.07,5.07,0,0,0,4.51-2.06c2.84-3.26,5.77-6.43,8.68-9.62a18.25,18.25,0,0,1,2.06-2,1.34,1.34,0,0,1,2.17.93c.25,2.39.44,4.78.55,7.17.17,4,.27,8,.4,11.79,1.12.6,1.73,0,2.39-.41A75,75,0,0,1,148.49,7.87a35.33,35.33,0,0,1,20.44,7.31,39,39,0,0,1,15.42,24.08c.1.47.15,1,.29,1.4a1.32,1.32,0,0,0,1.45,1c1.11-.12,2.2-.46,3.31-.55,14.36-1.27,26.58,2.79,35.4,14.72,4.69,6.34,6.86,13.69,7.5,21.47a73.72,73.72,0,0,1-1.58,22.4c-1.06,4.68-2,9.39-2.73,14.12a44,44,0,0,0-.41,7.17A12.41,12.41,0,0,0,233,131.66c.13.1.28.17.4.27.94.78,2.47,1.22,2,2.88-.4,1.29-1.77,1.33-2.79,1.54-6.86,1.42-13,.1-18.16-4.91a32.58,32.58,0,0,1-6.55-9.4,71.45,71.45,0,0,1-6.23-23.52c-.34-3.18-.5-6.38-.88-9.56a26,26,0,0,0-6-13.9,16.87,16.87,0,0,0-6.84-5.13c-2.95-1.12-5.93-1.37-8.7.59-.64.45-1.36,1-1.1,1.93,1.2,4.18-1,6.68-4.24,8.66C173.73,81.19,173.66,81.36,173.49,81.59Zm-62-9a8.37,8.37,0,0,0-1.21.65Q82.43,94.76,54.56,116.32a7.17,7.17,0,0,0-2.73,4.83,69.86,69.86,0,0,0-.08,25.26,66.94,66.94,0,0,0,131.82-23.32,10.41,10.41,0,0,0-4.18-7.1c-17.68-13.72-35.26-27.56-52.88-41.35-1-.77-1.83-1.78-3.18-2-.08.16-.22.3-.21.44a13.3,13.3,0,0,0,.15,1.4c.33,2.3-.22,2.88-2.46,2.65a14.08,14.08,0,0,1-6.18-2.41C113.57,74.08,112.9,72.86,111.51,72.54Zm6.13,201.1h42.67c1.27,0,2.55,0,3.83-.06s1.67-.7,1.29-1.88-.75-2.11-1.14-3.16q-6.67-18-13.37-35.9c-3.67-9.88-7.32-19.76-11-29.63-.76-2-1.12-2.2-3.23-1.63a70.66,70.66,0,0,1-16,2.58,72.94,72.94,0,0,1-21.81-2.42c-3.17-.86-3.23-.83-4.43,2.4Q82.18,236.69,70,269.47c-1.51,4.06-1.44,4.15,3.06,4.16Q95.36,273.66,117.64,273.64Zm112.11-140a13,13,0,0,0-1-1.63,15.57,15.57,0,0,1-4.15-11.4,57.21,57.21,0,0,1,.48-7.64c.57-3.79,1.33-7.55,2.18-11.28a78.6,78.6,0,0,0,2.2-22.81,43.59,43.59,0,0,0-3.67-15.29A31.82,31.82,0,0,0,204.85,45.3a41.63,41.63,0,0,0-8.47-1.53c-12.31-1-24.38,7.07-27.92,18.44A1.53,1.53,0,0,0,168.8,64a57.2,57.2,0,0,0,6.44,5.38c.55-.26.85-.37,1.13-.52s.52-.36.78-.55c3.71-2.77,7.71-2.7,11.82-1.13A19.09,19.09,0,0,1,196,72a28.29,28.29,0,0,1,7.53,15.73c.46,3.16.6,6.36.91,9.54a71.12,71.12,0,0,0,5.69,22.66,28.88,28.88,0,0,0,6.8,9.76A14.59,14.59,0,0,0,229.75,133.62ZM60.25,70.11c1.89-1.59,3.85-3.21,5.76-4.89,1.35-1.18,1.39-1.63,0-2.63a27.3,27.3,0,0,1-9.29-12,6.21,6.21,0,0,0-3.25-3.3,26.61,26.61,0,0,0-14.4-2.81c-14.32.87-25.44,8.65-30.41,21.91A48.09,48.09,0,0,0,5.84,80.94,78.22,78.22,0,0,0,8.2,102.32c1.48,6.39,2.78,12.81,2.57,19.44-.12,4-1.1,7.57-3.81,10.58-.52.58-1.13,1.15-.64,2.15,4.54.65,8.42-1,11.86-3.85a25.07,25.07,0,0,0,5.63-7.11,54.06,54.06,0,0,0,5-12.94,104.43,104.43,0,0,0,2.75-19.44,30,30,0,0,1,5.79-16,21.32,21.32,0,0,1,7.5-6.59c4.77-2.44,9.45-2.83,13.93.72A11.61,11.61,0,0,0,60.25,70.11Zm75.52-26.9c1-1.18,1-2.54,1.25-3.75a19.71,19.71,0,0,1,4.7-9.3c4.39-4.69,9.73-6.53,16.08-5a2.62,2.62,0,0,1,1.25.61,1.63,1.63,0,0,1,.38,1.24c-.09.38-.54.94-.86,1a15.22,15.22,0,0,1-2.85-.18c-5.65-.65-10,1.57-13.15,6.15a19.33,19.33,0,0,0-3.11,9,2.49,2.49,0,0,0,1.35,2.79c5.06,2.73,10.07,5.56,15.16,8.24a20.73,20.73,0,0,0,4.93,1.82c3.85.87,7.24.34,9.73-3.26a24.53,24.53,0,0,1,8.88-7.9c2-1,2.34-2.41,2-4.32-.1-.47-.12-1-.23-1.42-3.61-15.38-17.6-27.58-33.09-28a76.1,76.1,0,0,0-32.24,6.09A49.19,49.19,0,0,0,105.08,23c-1.68,1.28-1.78,1.57-.61,3.54a26.94,26.94,0,0,1,3,21.69,8.73,8.73,0,0,0-.44,1.85c0,1.13.87,1.65,1.7,2.09s1.15-.24,1.51-.75.47-.84.73-1.24c4.31-6.72,11.76-10.53,21.26-7.91Zm-30.25-2.14c-.07-16.55-15.5-27.38-29.73-23.4-10,2.81-16.15,9.52-17.65,19.83-1.42,9.73,2.5,17.41,10.41,23.11a4,4,0,0,0,4,.75,8.13,8.13,0,0,1,8.86,1.85,4.06,4.06,0,0,0,4.36,1c1.68-.49,3.37-1,5-1.49,2-.63,3-1.62,3-4.12-.06-4.87,2.45-7.55,7.21-8.71a7.62,7.62,0,0,1,1.42-.22,2.16,2.16,0,0,0,2-1.77A21.37,21.37,0,0,0,105.52,41.07Zm82.66,74.07a12.45,12.45,0,0,0-.28-2A73.11,73.11,0,0,0,155.37,71a9.14,9.14,0,0,0-2.53-1.32c-5-1.21-9.57-3.53-14.34-5.31a18.12,18.12,0,0,0-7-1.53,9.45,9.45,0,0,0-7.44,3.72,1.62,1.62,0,0,0,.19,2.5c.72.63,1.49,1.2,2.24,1.79l28.63,22.45c8.79,6.89,17.61,13.74,26.35,20.69A6.21,6.21,0,0,0,188.18,115.14ZM108,65.57c-1.84.69-3.67,1.79-5.8,1.68a10,10,0,0,1-6.06-2.54c-.71-.59-1.47-.35-2.25-.07-2.09.77-4.18,1.53-6.28,2.26-1.9.65-3.28,1.44-3.52,3.89a8.05,8.05,0,0,1-5.29,6.85,8.43,8.43,0,0,1-6.09.19,3.11,3.11,0,0,0-3.46.73,73.57,73.57,0,0,0-22,34.18,5.45,5.45,0,0,0-.13,2.31c.08.55,2.11.88,3.12.39a17.88,17.88,0,0,0,3.2-2q26.68-20.66,53.36-41.35c.75-.59,1.52-1.16,2.23-1.81a1.71,1.71,0,0,0,.56-1.72C109.32,67.45,109.17,66.3,108,65.57Zm3.22-5.25c0,4.7,1.23,8.85,5.09,11.86a7.71,7.71,0,0,0,2.11,1,.81.81,0,0,0,1.11-.55,13.28,13.28,0,0,0,.17-1.9c.61-6.54,5.15-10.77,11.67-11a20.35,20.35,0,0,1,7.94,1.58c3,1.15,5.92,2.39,8.89,3.57a21.82,21.82,0,0,0,6.93,1.75c1.57.08,2.71-.21,3.51-1.8a5.75,5.75,0,0,1,5-3.27,3.56,3.56,0,0,0,1.39-.28,1.53,1.53,0,0,0,.85-1.56c-.05-.73-.63-.7-1-.69-4.82.12-9-1.74-13.14-4-3.79-2.06-7.53-4.22-11.31-6.29a39.09,39.09,0,0,0-9.74-4c-6.12-1.46-11.39.07-15.61,4.82A15.61,15.61,0,0,0,111.2,60.32ZM34.41,134.73h0c0,2.55.06,5.11,0,7.67-.1,3.45,1.65,5.73,4.47,7.35a15.3,15.3,0,0,0,9.28,1.62c1-.1,1.23-.84,1.09-1.74-.4-2.52-.93-5-1.17-7.57a73.14,73.14,0,0,1,.68-20.52c.5-2.59,0-3.05-2.74-2.94a15,15,0,0,0-7.74,2.21,7.47,7.47,0,0,0-3.85,6.73C34.45,129.93,34.41,132.33,34.41,134.73Zm165.2.5h0c0-2.55,0-5.1,0-7.65a7.54,7.54,0,0,0-3.47-6.45,14,14,0,0,0-8.56-2.47,1.29,1.29,0,0,0-1.37,1.55c.25,2.37.74,4.72.92,7.1a72.94,72.94,0,0,1-1.29,21.86c-.38,1.63.11,2.32,1.93,2.29a14.39,14.39,0,0,0,7.76-2c2.59-1.66,4.14-3.89,4.08-7.08C199.57,140,199.61,137.62,199.61,135.23ZM96.7,58.68a5.65,5.65,0,0,0,6,5.5,5.7,5.7,0,0,0-.41-11.4A5.57,5.57,0,0,0,96.7,58.68Zm-21,16.58a5.8,5.8,0,0,0,5.53-6,6,6,0,0,0-5.72-5.44,5.77,5.77,0,0,0-5.7,5.87A5.64,5.64,0,0,0,75.69,75.26ZM172.09,78a3.49,3.49,0,0,0,3-2.18,2.08,2.08,0,0,0-.41-2.62c-3-2.64-6-5.26-9-7.8a2.58,2.58,0,0,0-3.83.17c-1.31,1.35-1.43,3,0,4.2,3,2.66,6,5.19,9.1,7.74A3.85,3.85,0,0,0,172.09,78ZM97.8,5.86c-1.59,1.64-2.88,2.81-4,4.15-1.25,1.56-3.25,2.61-3.5,4.88,1.52.84,3,1.73,4.56,2.48,1.11.54,2,1.7,3.73,1.52C98.8,14.72,99,10.57,97.8,5.86ZM66.2,69.09c-2.11,1.83-3.84,3.2-5.41,4.73a2.77,2.77,0,0,0,.32,3.87,2.54,2.54,0,0,0,3.45.46c1.29-.9,2.91-1.69,3.3-3.27.23-.93-.5-2.08-.81-3.13C66.87,71.15,66.67,70.55,66.2,69.09ZM58.06,27.2c-3.58.45-6.41.8-9.23,1.17a.55.55,0,0,0-.37.22,2.78,2.78,0,0,0-.22.72c2,2.12,4,4.5,7,5.92Z"/><path d="M117.43,94.58a29.74,29.74,0,0,1,29.06,23.33c.51,2.25.49,2.33-1.85,3.49-.62.31-1.09.62-1.13,1.34-.08,1.27-.11,2.55-.21,3.83A25.86,25.86,0,0,1,92,128.36a27,27,0,0,1-.4-3.81c0-1.69-.08-3.22-2.34-3.45-.62-.06-.91-.85-.87-1.53a9.88,9.88,0,0,1,.25-1.89A29.75,29.75,0,0,1,117.43,94.58Zm-.09,23.89v0q10.78,0,21.57,0c1.12,0,2.23-.09,3.34-.15a.86.86,0,0,0,.77-1,8.84,8.84,0,0,0-.55-2.31,26.56,26.56,0,0,0-42.65-10.56,26.07,26.07,0,0,0-7,10.14c-1.67,4.22-.33,3.92,2.51,3.92Zm-18.64,3c-.8,0-1.6,0-2.39,0-1,0-1.39.69-1.52,1.54a12.29,12.29,0,0,0-.08,1.92A22.88,22.88,0,0,0,140,128.63a26.29,26.29,0,0,0,.31-5.26c0-1.47-.51-1.86-2.09-2-.32,0-.64,0-1,0-4.36-.1-4.36-.1-4.75,4.14a15,15,0,0,1-29.93,0c-.07-.79,0-1.59-.08-2.39a1.45,1.45,0,0,0-1.42-1.58C100.3,121.45,99.5,121.49,98.7,121.49Zm18.73-.07c-.32,0-.63,0-1,0-2.46.11-3.64,1.92-2.68,4.13a3.91,3.91,0,0,0,4.11,2.53,4,4,0,0,0,3.6-3.21,2.65,2.65,0,0,0-2.67-3.44C118.37,121.4,117.9,121.42,117.43,121.42Z"/><path d="M117.47,180.93c-8.78,0-17.57,0-26.35,0-6,0-6.87-.9-6.91-7,0-2.23-.08-4.47.06-6.7.18-2.86,1.65-4.25,4.57-4.52,1-.09,1.91,0,2.87,0h51.75c6.47,0,7.37,1,7.39,7.55,0,1.91.06,3.83,0,5.75-.16,3.47-1.52,4.77-5.08,4.95-1.12.06-2.24,0-3.35,0Zm-1.22-8.77c0-.95,0-1.9,0-2.86-.07-3.59-.28-3.79-3.76-3.66H112a1.62,1.62,0,0,0-1.77,1.78c0,2.86-.07,5.72,0,8.58,0,1.55.45,1.86,2,1.94,3.75.21,3.91.05,4-3.88C116.26,173.43,116.25,172.8,116.25,172.16Zm8.73-.36h-.11c0-1.58,0-3.15,0-4.73a1.44,1.44,0,0,0-1.56-1.41c-.63,0-1.27,0-1.9,0-1.52.08-2.08.51-2.11,1.93q-.09,4.26,0,8.52c0,1.41.54,1.76,2.16,1.86,3.18.18,3.46-.08,3.54-3.32C125,173.69,125,172.75,125,171.8Zm8.29-.26h0v-2.85c0-.32,0-.64,0-.95-.13-1.7-.57-2.08-2.43-2.1-.31,0-.63,0-.94,0-1.12,0-1.84.57-1.86,1.69,0,3,0,6,0,9a1.46,1.46,0,0,0,1.45,1.54c.63.06,1.26,0,1.9,0,1.11,0,1.81-.49,1.84-1.66C133.29,174.7,133.27,173.12,133.27,171.54Zm-26.12.6H107c0-1.74,0-3.47,0-5.2a1.3,1.3,0,0,0-1.24-1.22,14.31,14.31,0,0,0-2.36,0c-.68,0-1.33.41-1.34,1.08-.08,3.31-.08,6.63,0,9.94a1.43,1.43,0,0,0,.78,1c2.59,1,4.27,0,4.36-2.75C107.18,174,107.15,173.08,107.15,172.14ZM141,172h0c0-1.59.07-3.18,0-4.76-.06-1.22-.72-1.59-2.41-1.57s-2.23.41-2.27,1.75c-.08,2.69-.09,5.39,0,8.08,0,2.2,1.76,3.2,3.88,2.28a1.51,1.51,0,0,0,.79-1C141.06,175.14,141,173.55,141,172Zm-42.13-.22h0c0-1.28,0-2.55,0-3.82-.08-1.94-.6-2.34-2.73-2.28-1.54,0-2,.43-2.07,1.95q-.09,4.29,0,8.58c0,1.4.55,1.75,2.21,1.77,2.11,0,2.52-.32,2.6-2.39C98.91,174.29,98.88,173,98.88,171.75Zm48.93.13H148c-.08-1.57-.06-3.16-.27-4.71-.14-1.1-1.1-1.45-2.12-1.44a1.36,1.36,0,0,0-1.41,1.53q0,4.5,0,9a1.44,1.44,0,0,0,1.32,1.63,1.9,1.9,0,0,0,2.32-1.75C147.89,174.73,147.81,173.3,147.81,171.88Zm-56.85.2h0c0-1.58,0-3.16,0-4.74a1.5,1.5,0,0,0-1.38-1.61,1.87,1.87,0,0,0-2.18,1.37,43.72,43.72,0,0,0,0,9.43c.1,1,1,1.47,2.14,1.36A1.44,1.44,0,0,0,91,176.34C91,174.92,91,173.5,91,172.08Z"/><path d="M90.89,50.25c-1.74-.38-4,.55-4.72-1.53-.6-1.68,1.21-2.74,2.08-4a9.78,9.78,0,0,1,1.26-1.4,1.23,1.23,0,0,1,1.69-.13,1.3,1.3,0,0,1,.5,1.64c-.11.3-.3.56-.42.85-.33.82-.45,1.5.77,1.61a4.29,4.29,0,0,1,1.79.48,1.43,1.43,0,0,1,.48,1.2A1.4,1.4,0,0,1,93.56,50,16.85,16.85,0,0,1,90.89,50.25Z"/><path d="M93,30.68c-.19.51-.22,1.08-.51,1.31-2.47,2-5,3.87-7.5,5.76a1.16,1.16,0,0,1-.9.17,2.75,2.75,0,0,1-1.16-.69,1,1,0,0,1,0-.89,3.17,3.17,0,0,1,.81-1.13c2.11-1.66,4.24-3.29,6.39-4.91a1.78,1.78,0,0,1,1.74-.46A5.31,5.31,0,0,1,93,30.68Z"/><path d="M73.62,50.83c1.41.1,2.2.11,3,.21,1.61.21,2.21,1.32,1.35,2.67a12.87,12.87,0,0,1-3.26,4,1.45,1.45,0,0,1-1.3,0,1.93,1.93,0,0,1-.62-1.16,1.42,1.42,0,0,1,.2-.9c.62-1.18.12-1.7-1-1.94a2.88,2.88,0,0,1-1.28-.53,1.6,1.6,0,0,1-.54-1.16,1.4,1.4,0,0,1,.84-1A21.15,21.15,0,0,1,73.62,50.83Z"/><path d="M69.29,39.42c1.58.1,3.16.19,4.73.32A1.33,1.33,0,0,1,75.27,41a1.23,1.23,0,0,1-1,1.39,31.22,31.22,0,0,1-9.88-.5,1.49,1.49,0,0,1-.86-1,1.08,1.08,0,0,1,1-1.31c1.58-.08,3.15,0,4.73,0Z"/><path d="M82.09,48.68c.91,0,1.45.39,1.56,1.06A1.67,1.67,0,0,1,83.3,51a2.24,2.24,0,0,1-2.1.76A2,2,0,0,1,80.13,51c-.45-.63-.08-1.21.46-1.57A9.8,9.8,0,0,1,82.09,48.68Z"/></g></g></svg>