<?xml version="1.0" encoding="iso-8859-1"?>
<!-- Generator: Adobe Illustrator 22.1.0, SVG Export Plug-In . SVG Version: 6.00 Build 0)  -->
<svg version="1.1" xmlns="http://www.w3.org/2000/svg" xmlns:xlink="http://www.w3.org/1999/xlink" x="0px" y="0px"
	 viewBox="0 0 32 32" style="enable-background:new 0 0 32 32;" xml:space="preserve">
<g id="close">
	<g>
		<path d="M22,23c-0.256,0-0.512-0.098-0.707-0.293l-12-12c-0.391-0.391-0.391-1.023,0-1.414s1.023-0.391,1.414,0l12,12
			c0.391,0.391,0.391,1.023,0,1.414C22.512,22.902,22.256,23,22,23z"/>
	</g>
	<g>
		<path d="M10,23c-0.256,0-0.512-0.098-0.707-0.293c-0.391-0.391-0.391-1.023,0-1.414l12-12c0.391-0.391,1.023-0.391,1.414,0
			s0.391,1.023,0,1.414l-12,12C10.512,22.902,10.256,23,10,23z"/>
	</g>
</g>
<g id="Layer_1">
</g>
</svg>
