<?xml version="1.0" encoding="iso-8859-1"?>
<!-- Generator: Adobe Illustrator 22.1.0, SVG Export Plug-In . SVG Version: 6.00 Build 0)  -->
<svg version="1.1" xmlns="http://www.w3.org/2000/svg" xmlns:xlink="http://www.w3.org/1999/xlink" x="0px" y="0px"
	 viewBox="0 0 32 32" style="enable-background:new 0 0 32 32;" xml:space="preserve">
<g id="edit">
	<g>
		<path d="M23.011,5.84L23.011,5.84l3.15,3.15L12.817,22.391l-5.51,2.31l2.38-5.559L23.01,5.84C23.01,5.84,23.01,5.84,23.011,5.84
			 M23.011,3.84c-0.511,0-1.023,0.195-1.413,0.585L8.273,17.727c-0.181,0.18-0.325,0.394-0.426,0.628l-2.38,5.559
			c-0.321,0.749-0.155,1.618,0.419,2.196c0.383,0.386,0.897,0.591,1.42,0.591c0.26,0,0.523-0.051,0.773-0.156l5.51-2.31
			c0.241-0.101,0.46-0.248,0.644-0.433l13.345-13.401c0.778-0.781,0.777-2.046-0.003-2.826l-3.15-3.15
			C24.035,4.035,23.523,3.84,23.011,3.84L23.011,3.84z"/>
	</g>
	<g>
		<rect x="10.25" y="17.068" transform="matrix(0.7071 -0.7071 0.7071 0.7071 -11.0239 13.886)" width="2" height="6.364"/>
	</g>
	<g>
		<rect x="20.744" y="6.553" transform="matrix(0.7071 -0.7071 0.7071 0.7071 -0.5212 18.2289)" width="2" height="6.382"/>
	</g>
</g>
<g id="Layer_1">
</g>
</svg>
