<svg xmlns="http://www.w3.org/2000/svg" viewBox="0 0 24 24"><defs><style>.cls-1{fill:#f9e660;}.cls-2{fill:#1f1f1f;}.cls-3{fill:#fff;}.cls-4{fill:#2c83c9;stroke:#fff;stroke-miterlimit:10;stroke-width:0.22px;}</style></defs><title>emoji_cry</title><g id="Layer_2" data-name="Layer 2"><g id="emoji_cry"><path class="cls-1" d="M24,12A12,12,0,0,1,12,24,12,12,0,0,1,0,12a12,12,0,0,1,24,0Z"/><path class="cls-2" d="M8.7,18.7a7.7,7.7,0,0,1,1.71-1.31,5.52,5.52,0,0,1,2.11-.73,3.93,3.93,0,0,1,2.3.42,5.57,5.57,0,0,1,1.78,1.47.75.75,0,0,1-1.12,1l0,0,0-.06a4.35,4.35,0,0,0-1.22-1.2,2.68,2.68,0,0,0-1.57-.43,4.37,4.37,0,0,0-1.73.46,6.89,6.89,0,0,0-1.58,1h0a.41.41,0,0,1-.59,0A.42.42,0,0,1,8.7,18.7Z"/><path class="cls-2" d="M5,5.5a19.42,19.42,0,0,0,2.53,0,10.16,10.16,0,0,0,1.25-.16,2.88,2.88,0,0,0,1.11-.44h0a.15.15,0,0,1,.22,0,.15.15,0,0,1,0,.21,2.92,2.92,0,0,1-1.2.69,11.5,11.5,0,0,1-1.28.34A21,21,0,0,1,5,6.5a.5.5,0,1,1-.07-1H5Z"/><path class="cls-2" d="M19,6.5a21,21,0,0,1-2.63-.36,11.5,11.5,0,0,1-1.28-.34,2.92,2.92,0,0,1-1.2-.69.16.16,0,0,1,0-.22.15.15,0,0,1,.21,0h0a2.88,2.88,0,0,0,1.11.44,10.16,10.16,0,0,0,1.25.16A19.42,19.42,0,0,0,19,5.5h0a.5.5,0,0,1,.53.47.51.51,0,0,1-.47.53Z"/><circle class="cls-3" cx="7.5" cy="11.5" r="3.5"/><path class="cls-2" d="M6.1,11.75l3.6.91a2.41,2.41,0,0,0,.14-2A2.5,2.5,0,1,0,6.1,13.57Z"/><circle class="cls-3" cx="16.5" cy="11.5" r="3.5"/><path class="cls-2" d="M15.1,11.75l3.6.9a2.39,2.39,0,0,0,.14-2A2.5,2.5,0,0,0,14,11.5a2.49,2.49,0,0,0,1.1,2.06Z"/><path class="cls-4" d="M20.23,20a2.66,2.66,0,1,1-5.32,0c0-1.47,2.66-6.21,2.66-6.21S20.23,18.52,20.23,20Z"/></g></g></svg>