<svg xmlns="http://www.w3.org/2000/svg" viewBox="0 0 24 24"><defs><style>.cls-1{fill:#f9e660;}.cls-2{fill:#fff;}.cls-3{fill:#1f1f1f;}</style></defs><title>emoji_woot</title><g id="Layer_2" data-name="Layer 2"><g id="emoji_woot"><path class="cls-1" d="M24,12A12,12,0,0,1,12,24,12,12,0,0,1,0,12a12,12,0,0,1,24,0Z"/><circle class="cls-2" cx="6.5" cy="11.5" r="4.5"/><circle class="cls-2" cx="17.5" cy="11.5" r="4.5"/><circle class="cls-3" cx="6.5" cy="11.5" r="2.5"/><circle class="cls-3" cx="17.5" cy="11.5" r="2.5"/><path class="cls-3" d="M4.88,4.51c.87-.16,1.75-.37,2.6-.61.43-.12.85-.26,1.27-.41a4.57,4.57,0,0,0,1.14-.6h0a.15.15,0,0,1,.22,0,.15.15,0,0,1,0,.21A4.38,4.38,0,0,1,9,3.93c-.41.22-.82.41-1.25.59-.84.36-1.7.68-2.58,1a.51.51,0,0,1-.63-.33.5.5,0,0,1,.32-.63h.07Z"/><path class="cls-3" d="M18.88,5.49c-.88-.29-1.74-.61-2.58-1-.43-.18-.84-.37-1.25-.59a4.38,4.38,0,0,1-1.16-.82.16.16,0,0,1,0-.22.15.15,0,0,1,.21,0h0a4.57,4.57,0,0,0,1.14.6c.42.15.84.29,1.27.41.85.24,1.73.45,2.6.61h0a.5.5,0,0,1,.4.58.51.51,0,0,1-.59.4Z"/><path class="cls-3" d="M15,18.63a3,3,0,0,1-6,0,3.33,3.33,0,0,1,.05-.56,3,3,0,0,1,5.9,0A3.33,3.33,0,0,1,15,18.63Z"/><path class="cls-2" d="M9.68,18.42a2.36,2.36,0,0,1,4.64,0"/></g></g></svg>