<svg xmlns="http://www.w3.org/2000/svg" viewBox="0 0 24 24"><defs><style>.cls-1{fill:#f9e660;}.cls-2{fill:#1f1f1f;}.cls-3{fill:#fff;}</style></defs><title>emoji_angry</title><g id="Layer_2" data-name="Layer 2"><g id="emoji_angry"><path class="cls-1" d="M24,12A12,12,0,0,1,12,24,12,12,0,0,1,0,12a12,12,0,0,1,24,0Z"/><path class="cls-2" d="M8.66,18.75a6.11,6.11,0,0,1,1.4-1.38A4,4,0,0,1,12,16.65a3.42,3.42,0,0,1,2.08.54,6.47,6.47,0,0,1,.83.63c.24.23.46.48.69.73a.76.76,0,0,1,0,1.06.75.75,0,0,1-1.06,0,.1.1,0,0,1,0-.05l-.06-.07-.49-.63a5.27,5.27,0,0,0-.56-.51A2.11,2.11,0,0,0,12,17.82a3.79,3.79,0,0,0-2.7,1.43l0,0a.42.42,0,0,1-.59,0A.43.43,0,0,1,8.66,18.75Z"/><path class="cls-2" d="M5.16,4.53a44.08,44.08,0,0,1,4.91,2.33.15.15,0,0,1,.06.22.16.16,0,0,1-.2.06A45.19,45.19,0,0,0,4.84,5.47h0a.5.5,0,0,1-.35-.61.5.5,0,0,1,.62-.35Z"/><path class="cls-2" d="M19.16,5.47a45.19,45.19,0,0,0-5.09,1.67.16.16,0,0,1-.21-.08.16.16,0,0,1,.07-.2,44.08,44.08,0,0,1,4.91-2.33.5.5,0,0,1,.66.27.51.51,0,0,1-.27.65l-.06,0Z"/><circle class="cls-3" cx="6.5" cy="11.5" r="4.5"/><circle class="cls-3" cx="17.5" cy="11.5" r="4.5"/><circle class="cls-2" cx="6.5" cy="11.5" r="1.94"/><circle class="cls-2" cx="17.5" cy="11.5" r="1.94"/></g></g></svg>