<?xml version="1.0" encoding="iso-8859-1"?>
<!-- Generator: Adobe Illustrator 22.1.0, SVG Export Plug-In . SVG Version: 6.00 Build 0)  -->
<svg version="1.1" xmlns="http://www.w3.org/2000/svg" xmlns:xlink="http://www.w3.org/1999/xlink" x="0px" y="0px"
	 viewBox="0 0 32 32" style="enable-background:new 0 0 32 32;" xml:space="preserve">
<g id="game">
	<g>
		<rect x="9" y="13" width="2" height="6"/>
	</g>
	<g>
		<rect x="7" y="15" width="6" height="2"/>
	</g>
	<g>
		<circle cx="22.93" cy="14.07" r="1.5"/>
	</g>
	<g>
		<circle cx="20.07" cy="17.07" r="1.5"/>
	</g>
	<g>
		<path d="M21.909,11C24.716,11,27,13.284,27,16.091c0,2.796-2.278,5.07-5.077,5.07c-1.034,0-2.077-0.3-3.099-0.892
			C18.519,20.093,18.173,20,17.822,20h-3.643c-0.352,0-0.697,0.093-1.002,0.269c-1.022,0.592-2.065,0.892-3.099,0.892
			c-2.8,0-5.077-2.274-5.077-5.07C5,13.284,7.284,11,10.091,11H21.909 M21.909,9H10.091C6.175,9,3,12.175,3,16.091
			c0,3.912,3.168,7.07,7.077,7.07c1.314,0,2.711-0.356,4.101-1.161h3.643c1.389,0.804,2.787,1.161,4.101,1.161
			c3.91,0,7.077-3.158,7.077-7.07C29,12.175,25.825,9,21.909,9L21.909,9z"/>
	</g>
</g>
<g id="Layer_1">
</g>
</svg>
