<?xml version="1.0" encoding="iso-8859-1"?>
<!-- Generator: Adobe Illustrator 22.1.0, SVG Export Plug-In . SVG Version: 6.00 Build 0)  -->
<svg version="1.1" xmlns="http://www.w3.org/2000/svg" xmlns:xlink="http://www.w3.org/1999/xlink" x="0px" y="0px"
	 viewBox="0 0 32 32" style="enable-background:new 0 0 32 32;" xml:space="preserve">
<g id="link-open">
	<g>
		<path d="M22.223,25H9.778C8.246,25,7,23.754,7,22.223V9.778C7,8.246,8.246,7,9.778,7H18v2H9.778C9.349,9,9,9.349,9,9.778v12.445
			C9,22.651,9.349,23,9.778,23h12.445C22.651,23,23,22.651,23,22.223V14h2v8.223C25,23.754,23.754,25,22.223,25z"/>
	</g>
	<g>
		<rect x="17.55" y="8.5" transform="matrix(0.7071 -0.7071 0.7071 0.7071 -0.1274 18.6924)" width="9.899" height="2"/>
	</g>
	<g>
		<polygon points="26.958,11.042 24.958,11.042 24.958,7.042 20.958,7.042 20.958,5.042 26.958,5.042 		"/>
	</g>
</g>
<g id="Layer_1">
</g>
</svg>
