<?xml version="1.0" encoding="iso-8859-1"?>
<!-- Generator: Adobe Illustrator 22.1.0, SVG Export Plug-In . SVG Version: 6.00 Build 0)  -->
<svg version="1.1" xmlns="http://www.w3.org/2000/svg" xmlns:xlink="http://www.w3.org/1999/xlink" x="0px" y="0px"
	 viewBox="0 0 32 32" style="enable-background:new 0 0 32 32;" xml:space="preserve">
<g id="no">
	<g>
		<path d="M25,26c-0.256,0-0.512-0.098-0.707-0.293l-18-18c-0.391-0.391-0.391-1.023,0-1.414s1.023-0.391,1.414,0l18,18
			c0.391,0.391,0.391,1.023,0,1.414C25.512,25.902,25.256,26,25,26z"/>
	</g>
	<g>
		<path d="M7,26c-0.256,0-0.512-0.098-0.707-0.293c-0.391-0.391-0.391-1.023,0-1.414l18-18c0.391-0.391,1.023-0.391,1.414,0
			s0.391,1.023,0,1.414l-18,18C7.512,25.902,7.256,26,7,26z"/>
	</g>
</g>
<g id="Layer_1">
</g>
</svg>
