<?xml version="1.0" encoding="iso-8859-1"?>
<!-- Generator: Adobe Illustrator 22.1.0, SVG Export Plug-In . SVG Version: 6.00 Build 0)  -->
<svg version="1.1" xmlns="http://www.w3.org/2000/svg" xmlns:xlink="http://www.w3.org/1999/xlink" x="0px" y="0px"
	 viewBox="0 0 32 32" style="enable-background:new 0 0 32 32;" xml:space="preserve">
<g id="online">
	<g>
		<path d="M15.942,5.916c5.591,0,10.139,4.524,10.139,10.084c0,3.159-2.524,10.083-10.024,10.083
			c-5.591,0-10.139-4.524-10.139-10.084C5.918,12.841,8.442,5.916,15.942,5.916 M15.942,3.916c-8.357,0-12.024,7.405-12.024,12.083
			c0,6.696,5.416,12.084,12.139,12.084c8.357,0,12.024-7.405,12.024-12.083C28.082,9.304,22.666,3.916,15.942,3.916L15.942,3.916z"
			/>
	</g>
	<g>
		<path style="fill-rule:evenodd;clip-rule:evenodd;" d="M15.976,10.999C18.759,10.999,21,13.229,21,16
			c0,1.936-1.518,5.001-4.976,5.001C13.241,21.001,11,18.771,11,16C11,14.064,12.518,10.999,15.976,10.999z"/>
	</g>
</g>
<g id="Layer_1">
</g>
</svg>
