<svg xmlns="http://www.w3.org/2000/svg" viewBox="0 0 104.35 36.04"><defs><style>.cls-1,.cls-3{fill:#333;}.cls-2{fill:#22b573;}.cls-3{stroke:#333;stroke-miterlimit:10;stroke-width:2px;}.cls-4{fill:none;stroke:#fff;stroke-linejoin:bevel;stroke-width:1.88px;}</style></defs><title>logo-log</title><g id="Layer_2" data-name="Layer 2"><g id="LoG_Logo"><path class="cls-1" d="M52.16,10.17h1v7.11H57.4v.93H52.16Z"/><path class="cls-2" d="M29.13,23.81a34.38,34.38,0,0,1-5.26,6.64c-.53.48-1.05,1-1.6,1.42l-.85.71-.84.6c-1.13.8-2.27,1.6-3.38,2.43l-.58.43-.73-.43h0l-2.67-1.78-1.33-.9c-.45-.3-.88-.68-1.32-1a32.21,32.21,0,0,1-4.65-4.69A26.18,26.18,0,0,1,.42,15.28,28.87,28.87,0,0,1,.13,8.74,14.28,14.28,0,0,1,.24,7,4.19,4.19,0,0,1,1,5.24,6.36,6.36,0,0,1,3.89,3.11a28.9,28.9,0,0,1,3.19-.86l3.11-.73L16.4,0l.16,0,.14,0L26.83,2.72l1.27.34a6.54,6.54,0,0,1,1.29.51,6.7,6.7,0,0,1,2.17,1.72,4.39,4.39,0,0,1,.73,1.22,3.66,3.66,0,0,1,.23,1.41l-.05,2.62h-.61l0-2.62A3.1,3.1,0,0,0,31,5.78,6.24,6.24,0,0,0,29,4.32a6.89,6.89,0,0,0-1.15-.42L26.6,3.61,16.4,1.22h.3L10.52,2.85l-3.09.81a27.41,27.41,0,0,0-2.95.86A4.89,4.89,0,0,0,2.32,6.17,2.71,2.71,0,0,0,1.86,7.3c-.05.35,0,.94,0,1.46A26.91,26.91,0,0,0,2.22,15,24,24,0,0,0,7.61,25.81,33,33,0,0,0,12,30.06c.41.31.77.64,1.22.93l1.32.88,2.62,1.78H15.9c1.18-.69,2.35-1.41,3.51-2.13l.88-.54c.26-.19.51-.36.78-.57a18.61,18.61,0,0,0,1.49-1.31,27.79,27.79,0,0,0,2.65-3c.82-1.06,1.58-2.18,2.31-3.33Z"/><path class="cls-1" d="M43.46,12.63H44.6l.29-2.14h.77l-.29,2.14H46.9l.29-2.14H48l-.3,2.14H48.8l-.12.81H47.55l-.25,1.73h1.13l-.12.81H47.19l-.3,2.23h-.77L46.43,16H44.89l-.3,2.23h-.76l.3-2.23H43l.13-.81h1.13l.25-1.73H43.34ZM45,15.17h1.53l.25-1.73H45.26Z"/><path class="cls-2" d="M74,26.76h0a2.2,2.2,0,0,1-2.07,1.14,3.36,3.36,0,0,1-2.59-1.07,4,4,0,0,1-1-2.75,4,4,0,0,1,1.21-3,3.41,3.41,0,0,1,2.37-.84,2.9,2.9,0,0,1,3.16,2.46H73.59a1.56,1.56,0,0,0-1.66-1.23c-1.39,0-2.08,1.16-2.08,2.62s.79,2.61,2.06,2.61,1.9-.62,1.9-1.43v0H72V24.06h3.11v3.69H74Z"/><path class="cls-2" d="M82.57,20.63H86a2.1,2.1,0,0,1,2.37,2.05A1.68,1.68,0,0,1,87,24.46v0A1.46,1.46,0,0,1,88.1,26c.11,1,.06,1.84.32,1.95V28H87c-.19-.08-.21-.91-.27-1.7A1.26,1.26,0,0,0,85.28,25H84.07v3h-1.5Zm1.5,3.26h1.59c.81,0,1.22-.43,1.22-1a1,1,0,0,0-1.18-1.05H84.07Z"/><path class="cls-2" d="M91.53,20.69H93v6.13h3.47v1.24h-5Z"/><path class="cls-2" d="M98.3,25.46h1.46c.1.88.61,1.23,1.66,1.23.76,0,1.44-.26,1.44-1s-.71-.86-1.83-1.12c-1.32-.3-2.53-.65-2.53-2.19s1.19-2.2,2.83-2.2,2.73.81,2.84,2.3h-1.43a1.27,1.27,0,0,0-1.42-1.12c-.81,0-1.33.34-1.33.87s.51.77,1.61,1c1.51.33,2.75.69,2.75,2.28s-1.21,2.33-2.87,2.33C99.48,27.9,98.35,27,98.3,25.46Z"/><path class="cls-1" d="M71.67,10.28h1.14l3,8H74.67l-.85-2.45H70.61l-.87,2.45h-1Zm-.77,4.78h2.64l-.93-2.71c-.15-.45-.36-1.13-.36-1.13h0s-.21.67-.37,1.13Z"/><path class="cls-2" d="M78,20.63h1.49V28H78Z"/><path class="cls-1" d="M60.56,20.63h4.81v.75H61.25l0,2.55h3.51v.59H61.21l0,3.3h-.69Z"/><path class="cls-1" d="M51.05,24.06c0-2.19,1.34-3.83,3.42-3.83s3.45,1.64,3.45,3.83-1.35,3.84-3.45,3.84S51.05,26.26,51.05,24.06Zm6.14,0c0-1.78-.94-3.22-2.72-3.22s-2.7,1.44-2.7,3.22.94,3.22,2.7,3.22S57.19,25.85,57.19,24.06Z"/><path class="cls-1" d="M88.31,15.71V10h1v5.57c0,1.38.78,2,2.1,2s2-.58,2-2V10h1v5.67c0,1.95-1.37,2.73-3.09,2.73S88.31,17.66,88.31,15.71Z"/><path class="cls-1" d="M97.77,10h5.68v.89H98.78v2.81H103v.86H98.78v2.82h4.81v.94H97.77Z"/><path class="cls-1" d="M84.07,17.16h0a2.9,2.9,0,0,1-2.51,1.23c-2.26,0-3.78-1.72-3.78-4.16S79.09,10,81.62,10a3,3,0,0,1,3.28,2.59H83.85a2.07,2.07,0,0,0-2.25-1.71c-1.93,0-2.81,1.45-2.81,3.35s1.14,3.28,2.78,3.28A2.28,2.28,0,0,0,84,15v-.2H81.58V14H85v4.25h-.65Z"/><path class="cls-1" d="M60.31,10.28H66v.89H61.33v2.55h4.24v.85H61.33V17.4h4.8v.93H60.31Z"/><polygon class="cls-3" points="29.33 10.54 22.25 10.54 19.42 13.38 10.92 13.38 6.67 17.63 6.67 9.13 5.25 7.71 2.42 7.71 1 9.13 1 24.71 2.42 26.13 30.75 26.13 32.17 24.71 32.17 13.38 29.33 10.54"/><polyline class="cls-4" points="3.83 9.13 3.83 23.29 12.33 23.29 12.33 16.21 18 16.21 18 23.29 12.33 23.29"/><polyline class="cls-4" points="18 23.29 23.67 23.29 23.67 13.38 29.33 13.38"/><polyline class="cls-4" points="23.67 23.29 29.33 23.29 29.33 19.04 26.5 19.04"/></g></g></svg>