<?xml version="1.0" encoding="utf-8"?>
<!-- Generator: Adobe Illustrator 16.0.0, SVG Export Plug-In . SVG Version: 6.00 Build 0)  -->
<!DOCTYPE svg PUBLIC "-//W3C//DTD SVG 1.1//EN" "http://www.w3.org/Graphics/SVG/1.1/DTD/svg11.dtd">
<svg version="1.1"
	 id="svg2985" xmlns:dc="http://purl.org/dc/elements/1.1/" xmlns:cc="http://creativecommons.org/ns#" xmlns:rdf="http://www.w3.org/1999/02/22-rdf-syntax-ns#" xmlns:svg="http://www.w3.org/2000/svg"
	 xmlns="http://www.w3.org/2000/svg" xmlns:xlink="http://www.w3.org/1999/xlink" x="0px" y="0px" width="400px" height="400px"
	 viewBox="0 0 400 400" enable-background="new 0 0 400 400" xml:space="preserve">
<g id="g2993" transform="matrix(1.25,0,0,-1.25,0,400.00002)">
	<g id="g6975" transform="matrix(10.841323,0,0,10.841323,-5481.6605,-4738.9247)">
		<path id="path4141" fill="#184185" d="M518.279,465.869l0.408-1.917c0.127-0.597,0.213-1.146-0.53-1.304
			c-0.743-0.158-0.888,0.379-1.015,0.975l-0.408,1.917l-0.758-0.161l0.471-2.21c0.2-0.939,0.971-1.251,1.827-1.069
			c0.855,0.182,1.433,0.78,1.233,1.719l-0.47,2.211L518.279,465.869z"/>
		<path id="path4145" fill="#184185" d="M514.034,460.528l-0.149,0.797l1.238,0.715l0.608-0.532l0.675,0.39l-2.892,2.498
			l-0.797-0.46l0.676-3.778L514.034,460.528L514.034,460.528z M513.758,461.945l-0.312,1.598l0.009,0.005l1.199-1.086
			L513.758,461.945L513.758,461.945z"/>
		<path id="path4149" fill="#184185" d="M513.17,459.729l-2.726,2.367l-0.475-0.547l2.137-1.855l0.001-0.015l-3.046,0.825
			l-0.754-0.867l2.726-2.368l0.475,0.547l-2.258,1.961l-0.001,0.014l3.2-0.892L513.17,459.729L513.17,459.729z"/>
		<path id="path4153" fill="#184185" d="M510.61,455.453c0.268,1.164-0.405,1.873-1.443,2.112c-1.038,0.24-1.953-0.103-2.222-1.267
			c-0.268-1.164,0.405-1.874,1.443-2.113C509.426,453.946,510.342,454.289,510.61,455.453 M507.491,456.172
			c0.172,0.745,0.887,0.729,1.491,0.59c0.604-0.139,1.254-0.438,1.082-1.183c-0.172-0.745-0.886-0.729-1.491-0.59
			C507.969,455.128,507.319,455.427,507.491,456.172"/>
		<path id="path4157" fill="#184185" d="M506.965,451.163v0.4c-0.01,0.92,0.63,1.055,1.205,1.055s1.215-0.135,1.205-1.054l0.001-0.4
			L506.965,451.163L506.965,451.163z M509.976,450.389v1.23c0.009,1.125-0.551,1.824-1.807,1.824
			c-1.255-0.001-1.815-0.701-1.804-1.825v-1.23L509.976,450.389z"/>
		<path id="path4161" fill="#184185" d="M524.585,465.374l-0.491,0.095l-0.437-2.257c-0.133-0.606-0.56-0.864-1.119-0.756
			c-0.56,0.109-0.859,0.509-0.756,1.12l0.438,2.258l-0.491,0.095l-0.415-2.14c-0.191-0.91,0.18-1.568,1.142-1.755
			c0.961-0.187,1.552,0.284,1.714,1.2L524.585,465.374L524.585,465.374z"/>
		<path id="path4165" fill="#184185" d="M528.477,463.385l-1.581-2.531l-0.008,0.005l0.088,3.464l-0.58,0.363l-1.912-3.062
			l0.378-0.235l1.622,2.599l0.009-0.006l-0.076-3.566l0.526-0.328l1.911,3.061L528.477,463.385L528.477,463.385z"/>
		<path id="path4169" fill="#184185" d="M528.22,458.773l2.638,2.462l-0.341,0.365l-2.638-2.461L528.22,458.773z"/>
		<path id="path4173" fill="#184185" d="M533.228,457.644l-3.22-0.551l-0.005,0.009l2.176,2.435l-0.242,0.438l-2.533-2.874
			l0.266-0.481l3.8,0.587L533.228,457.644L533.228,457.644z"/>
		<path id="path4177" fill="#184185" d="M530.785,452.944l0.42,0.089l-0.374,1.766l1.168,0.248l0.348-1.643l0.421,0.09l-0.349,1.642
			l1.1,0.234l0.366-1.726l0.42,0.09l-0.47,2.215l-3.528-0.751L530.785,452.944L530.785,452.944z"/>
		<path id="path4181" fill="#184185" d="M533.942,451.333l-0.058-0.823c-0.064-0.552-0.322-0.659-0.606-0.639
			c-0.284,0.02-0.525,0.162-0.511,0.717l0.058,0.823L533.942,451.333z M532.347,450.733c-0.029-0.199-0.028-0.399-0.203-0.532
			c-0.191-0.152-0.485-0.132-0.812-0.149c-0.216-0.01-0.455-0.054-0.672-0.083l-0.038-0.534c0.348,0.106,0.735,0.119,1.098,0.149
			c0.407,0.027,0.641,0.07,0.776,0.497l0.01-0.001c0.07-0.426,0.386-0.708,0.82-0.739c0.713-0.049,0.946,0.561,0.988,1.164
			l0.091,1.287l-3.599,0.251l-0.035-0.499l1.625-0.113L532.347,450.733z"/>
		<path id="path4185" fill="#184185" d="M531.432,448.624c-0.725,0.36-1.248-0.003-1.567-0.687
			c-0.309-0.661-0.357-1.449,0.386-1.796c0.824-0.384,1.207,0.436,1.683,0.947c0.224,0.243,0.369,0.496,0.74,0.322
			c0.39-0.181,0.302-0.676,0.152-0.997c-0.152-0.326-0.423-0.575-0.798-0.422l-0.222-0.476c0.634-0.296,1.139,0.136,1.399,0.693
			c0.286,0.612,0.325,1.382-0.386,1.714c-0.733,0.342-1.274-0.498-1.644-0.982c-0.181-0.246-0.435-0.448-0.752-0.3
			c-0.457,0.213-0.355,0.717-0.181,1.088c0.205,0.44,0.502,0.627,0.968,0.42L531.432,448.624L531.432,448.624z"/>
		<path id="path4189" fill="#184185" d="M528.549,445.451l2.919-2.122l0.294,0.405l-2.919,2.121L528.549,445.451z"/>
		<path id="path4193" fill="#184185" d="M527.185,444.029l-0.383-0.321l2.042-2.436l-0.927-0.778l0.276-0.329l2.237,1.877
			l-0.276,0.329l-0.927-0.777L527.185,444.029L527.185,444.029z"/>
		<path id="path4197" fill="#184185" d="M525.753,442.927l0.043-1.016l-1.519-0.708l-0.75,0.687l-0.494-0.23l2.847-2.654
			l0.485,0.226l-0.145,3.913L525.753,442.927L525.753,442.927z M525.935,439.577l-1.33,1.304l1.219,0.568L525.935,439.577
			L525.935,439.577z"/>
		<path id="path4201" fill="#184185" d="M526.518,438.853c0,0.157,0.128,0.285,0.285,0.285c0.158,0,0.285-0.128,0.285-0.285
			c0-0.157-0.127-0.285-0.285-0.285C526.646,438.568,526.518,438.696,526.518,438.853"/>
		<path id="path4205" fill="#184185" stroke="#1B468E" stroke-width="0.021" stroke-miterlimit="3.864" d="M526.518,438.853
			c0,0.157,0.128,0.285,0.285,0.285c0.158,0,0.285-0.128,0.285-0.285c0-0.157-0.127-0.285-0.285-0.285
			C526.646,438.568,526.518,438.696,526.518,438.853z"/>
		<path id="path4209" fill="#184185" d="M525.542,438.411c0,0.157,0.128,0.285,0.285,0.285c0.158,0,0.285-0.128,0.285-0.285
			c0-0.157-0.127-0.285-0.285-0.285C525.67,438.126,525.542,438.254,525.542,438.411"/>
		<path id="path4213" fill="#184185" stroke="#1B468E" stroke-width="0.021" stroke-miterlimit="3.864" d="M525.542,438.411
			c0,0.157,0.128,0.285,0.285,0.285c0.158,0,0.285-0.128,0.285-0.285c0-0.157-0.127-0.285-0.285-0.285
			C525.67,438.126,525.542,438.254,525.542,438.411z"/>
		<path id="path4217" fill="#184185" d="M522.051,441.533l-0.495-0.07l0.441-3.148l-1.199-0.168l0.06-0.426l2.892,0.406
			l-0.059,0.426l-1.199-0.168L522.051,441.533L522.051,441.533z"/>
		<path id="path4221" fill="#184185" d="M509.16,447.944l-0.154,0.425l-1.979-0.721l0.155-0.425l1.008,0.368l0.002-0.006
			l-0.758-1.055l0.192-0.529l0.806,1.188l1.149-0.404l-0.18,0.496l-1.094,0.346l-0.002,0.006L509.16,447.944L509.16,447.944z"/>
		<path id="path4225" fill="#184185" d="M510.025,445.221l0.238-0.295c0.123-0.155,0.135-0.296-0.01-0.413
			c-0.145-0.118-0.295-0.089-0.422,0.063l-0.239,0.294L510.025,445.221z M509.321,444.65l0.3-0.372
			c0.089-0.119-0.017-0.242-0.1-0.325c-0.135-0.135-0.269-0.27-0.39-0.417l0.313-0.388c0.038,0.139,0.219,0.309,0.311,0.409
			c0.202,0.213,0.368,0.347,0.179,0.641l0.004,0.004c0.207-0.167,0.459-0.192,0.672-0.019c0.333,0.27,0.191,0.631-0.034,0.914
			l-0.563,0.696l-1.636-1.326l0.284-0.351L509.321,444.65L509.321,444.65z"/>
		<path id="path4229" fill="#184185" d="M510.704,441.705l1.121-0.909l0.22,0.272l-0.77,0.624l0.354,0.438l0.698-0.565l0.22,0.272
			l-0.698,0.565l0.31,0.383l0.745-0.604l0.22,0.272l-1.096,0.888L510.704,441.705L510.704,441.705z"/>
		<path id="path4233" fill="#184185" d="M515.895,440.436l0.003-0.008l-0.817-1.606l0.376-0.192l0.955,1.876l-0.637,0.325
			l-1.12-1.147l-0.005,0.002l0.302,1.565l-0.66,0.336l-0.954-1.876l0.376-0.192l0.817,1.606l0.008,0.002l-0.323-1.864l0.335-0.171
			L515.895,440.436L515.895,440.436z"/>
		<path id="path4237" fill="#184185" d="M519.103,439.312c0.073,0.416-0.201,0.69-0.603,0.761c-0.425,0.075-0.898-0.058-0.982-0.532
			c-0.064-0.367,0.309-0.569,0.586-0.692c0.17-0.078,0.463-0.147,0.42-0.391c-0.039-0.221-0.284-0.234-0.462-0.203
			c-0.233,0.041-0.338,0.22-0.28,0.446l-0.454,0.08c-0.106-0.52,0.198-0.763,0.671-0.847c0.445-0.078,0.925,0.021,1.015,0.535
			c0.073,0.416-0.376,0.588-0.678,0.724c-0.17,0.074-0.367,0.136-0.327,0.36c0.031,0.18,0.213,0.237,0.377,0.208
			c0.215-0.038,0.309-0.161,0.289-0.373L519.103,439.312L519.103,439.312z"/>
		<path id="path4241" fill="#184185" d="M523.176,458.922h-0.718l-0.227,0.7l-0.235-0.7h-0.747l0.602-0.433l-0.234-0.7l0.601,0.437
			l0.608-0.437l-0.231,0.711L523.176,458.922L523.176,458.922z M520.429,461.41c5.247,0,9.501-4.254,9.501-9.501
			c0-5.247-4.254-9.501-9.501-9.501v5.433c2.249,0,4.072,1.823,4.072,4.071c0,2.249-1.823,4.072-4.072,4.072V461.41z"/>
		<path id="path4245" fill="#184185" d="M516.583,457.842l-1.559-1.133l0.573,1.806l0.595-1.833l-1.559,1.133L516.583,457.842
			L516.583,457.842z"/>
		<path id="path4249" fill="#184185" stroke="#1B468E" stroke-width="0.021" stroke-miterlimit="3.864" d="M516.583,457.842
			l-1.559-1.133l0.573,1.806l0.595-1.833l-1.559,1.133L516.583,457.842L516.583,457.842z"/>
		<path id="path4253" fill="#184185" d="M514.496,455.49l-1.559-1.133l0.595,1.833l0.596-1.833l-1.559,1.133H514.496L514.496,455.49
			z"/>
		<path id="path4257" fill="#184185" stroke="#1B468E" stroke-width="0.021" stroke-miterlimit="3.864" d="M514.496,455.49
			l-1.559-1.133l0.595,1.833l0.596-1.833l-1.559,1.133H514.496L514.496,455.49z"/>
		<path id="path4261" fill="#184185" d="M513.676,452.343l-1.559-1.133l0.595,1.833l0.596-1.833l-1.559,1.133H513.676
			L513.676,452.343z"/>
		<path id="path4265" fill="#184185" stroke="#1B468E" stroke-width="0.021" stroke-miterlimit="3.864" d="M513.676,452.343
			l-1.559-1.133l0.595,1.833l0.596-1.833l-1.559,1.133H513.676L513.676,452.343z"/>
		<path id="path4269" fill="#184185" d="M519.44,458.908l-1.559-1.133l0.582,1.833l0.595-1.833l-1.559,1.133H519.44L519.44,458.908z
			"/>
		<path id="path4273" fill="#184185" stroke="#1B468E" stroke-width="0.021" stroke-miterlimit="3.864" d="M519.44,458.908
			l-1.559-1.133l0.582,1.833l0.595-1.833l-1.559,1.133H519.44L519.44,458.908z"/>
		<path id="path4277" fill="#184185" d="M514.359,449.226l-1.559-1.133l0.595,1.833l0.596-1.833l-1.559,1.133H514.359
			L514.359,449.226z"/>
		<path id="path4281" fill="#184185" stroke="#1B468E" stroke-width="0.021" stroke-miterlimit="3.864" d="M514.359,449.226
			l-1.559-1.133l0.595,1.833l0.596-1.833l-1.559,1.133H514.359L514.359,449.226z"/>
		<path id="path4285" fill="#184185" d="M516.414,446.642l-1.559-1.133l0.595,1.833l0.596-1.833l-1.559,1.133H516.414
			L516.414,446.642z"/>
		<path id="path4289" fill="#184185" stroke="#1B468E" stroke-width="0.021" stroke-miterlimit="3.864" d="M516.414,446.642
			l-1.559-1.133l0.595,1.833l0.596-1.833l-1.559,1.133H516.414L516.414,446.642z"/>
	</g>
</g>
</svg>
