<svg xmlns="http://www.w3.org/2000/svg" viewBox="0 0 171.29 231.43"><title>Character  1</title><g id="Layer_2" data-name="Layer 2"><g id="Character_1" data-name="Character  1"><path d="M33,231.24c.71-2,1.2-3.54,1.75-5l24.57-66.07c.28-.75.56-1.5.83-2.25,1.21-3.4,1.23-3.45-2.09-4.92a74.33,74.33,0,0,1-11.32-6.26c-.9-.61-1.7-1.45-3.17-1.38-.3,3.22-.56,6.39-.9,9.55a41.42,41.42,0,0,1-3.87,14.27c-3.45,6.94-8.73,11.8-16.33,13.77a20,20,0,0,1-12.73-.56c-2.39-1-4.46-2.38-5.42-4.8.51-.89,1.19-.77,1.78-.89,5.84-1.17,9.11-5,10.58-10.51a28,28,0,0,0,.64-10.48,96.82,96.82,0,0,0-2.67-14.12C11.8,130.91,8.89,120.28,6,109.63a8.17,8.17,0,0,0-2.67-4.4c-2.5-2.09-3.34-5-3.33-8.16,0-4.63,0-9.27,0-13.91,0-3.76,1.12-6.94,4.15-9.25a4.71,4.71,0,0,0,1.94-3.62A68.17,68.17,0,0,1,18.16,37.81c13-18.86,30.53-31.1,53-36.17a76.68,76.68,0,0,1,28.61-.58A8,8,0,0,1,104.51,4a3.59,3.59,0,0,0,4.69,1c2-1,4-.48,6,.3a74.61,74.61,0,0,1,34.91,27.47c7.53,10.76,12.28,22.74,15.39,35.43.27,1.09.59,2.16.77,3.26A5.52,5.52,0,0,0,168,74.72c2.51,2.33,3.35,5.28,3.26,8.67-.13,4.64-.09,9.28,0,13.92a9.71,9.71,0,0,1-3.89,8.36,8.72,8.72,0,0,0-3.14,5.14c-3.35,12.18-6.9,24.3-9.67,36.62a57.28,57.28,0,0,0-1.45,11.89,23.58,23.58,0,0,0,1,7.1c1.47,4.92,4.44,8.44,9.62,9.74.77.19,1.52.43,2.24.63.6,1.24-.38,1.84-1,2.45-2.68,2.86-6.2,3.94-10,4.08-8.45.31-15.2-3.16-20.33-9.79-4-5.22-5.79-11.34-6.65-17.76-.41-3-.63-6-.93-8.91-.75-.66-1.29-.26-1.8.07a79.44,79.44,0,0,1-12.67,6.78c-1.83.77-2,1.1-1.33,2.87,1.25,3.46,2.55,6.9,3.83,10.35q11.22,30.1,22.42,60.22c1.57,4.22,1.54,4.27-2.74,4.27q-49.18,0-98.39,0C35.53,231.42,34.58,231.32,33,231.24ZM55.59,45.7a1.1,1.1,0,0,0-1.54,0Q38.63,58.35,23.2,70.93a7,7,0,0,0-2.59,4.41,70.54,70.54,0,0,0-.21,25.75,66.76,66.76,0,0,0,84.84,52c33.05-9.72,53-42.6,46.77-76.58a12.86,12.86,0,0,0-3.44-6.65Q128.31,48,108.16,26.13c-.85-.92-1.52-2.06-2.79-2.49a3.19,3.19,0,0,0-.9.36c-4.88,4.14-9.73,8.31-14.62,12.43a3,3,0,0,0-1,2.94c.23,2.54.21,5.11.28,7.67.17,6.14.17,6.12,6,7.56a2.21,2.21,0,0,0,2.82-1.08c1.2-2.08,2.48-4.11,3.74-6.15.67-1.09,1.31-2.2,2-3.25s1.73-1.31,2.42-.76.55,1.43.14,2.13c-1.54,2.62-3.18,5.18-4.67,7.82s-2.69,2.93.79,5.32a40.6,40.6,0,0,1,3.28,2.76c1.86-.42,3.18-1.64,4.66-2.54,1.92-1.16,3.78-2.4,5.69-3.56a5.76,5.76,0,0,1,1.76-.73,1.23,1.23,0,0,1,1.51.82,1,1,0,0,1-.26,1.3c-2.11,1.45-4.27,2.8-6.34,4.3-1.51,1.1-4,1.49-4.29,3.45-.21,1.31,1.15,2.85,1.72,4.32,3.64,9.38,2.78,18.29-3.48,26.25-6.41,8.13-15.13,11.27-25.18,9.39s-17-8.11-19.93-18-.51-18.67,6.72-26A24.83,24.83,0,0,1,83,53.21c2.92-.38,3.18-.49,3.09-3.54a17.43,17.43,0,0,0,0-2.4c-.37-2.1.74-4.41-.87-6.34-2,.77-3.33,2.38-4.88,3.71q-17.51,15-35,30a8,8,0,0,1-1.11.92c-.45.27-.85,1.11-1.73.06C46.75,65.66,51.4,55.74,55.59,45.7ZM38.22,228.47h5.06q42.94,0,85.9,0c5.84,0,6,.71,3.78-5.17q-11.84-31.66-23.61-63.35c-.39-1-.81-2.08-1.25-3.11a1.43,1.43,0,0,0-1.94-.84c-1.08.3-2.16.56-3.25.83a69.27,69.27,0,0,1-29,.9c-2.67-.48-5.29-1.2-7.93-1.83a1.67,1.67,0,0,0-2.23,1.18c-.26.76-.59,1.49-.87,2.24L53.66,184q-7.44,20-14.87,40C38.31,225.32,37.36,226.59,38.22,228.47Zm67.09-209.2c1.8.89,2.7,2.26,3.77,3.42,13.26,14.32,26.55,28.61,39.7,43,2.69,3,5.24,5.53,9.66,4.92a18.22,18.22,0,0,1,3.32.36.81.81,0,0,0,.88-.87,6.19,6.19,0,0,0-.12-1.43c-3.39-13.64-8.65-26.42-17.36-37.6a71.45,71.45,0,0,0-29-22.22c-2.58-1.09-5.11-1.91-7.82-.47a4.46,4.46,0,0,1-.92.27,3,3,0,0,1-3.07-.81c-.92-.89-1.91-1.71-2.86-2.56a5.47,5.47,0,0,0-3-1.37,72.06,72.06,0,0,0-26.23.49A81.34,81.34,0,0,0,31.84,26.17C20.28,37.35,12.42,50.64,9.53,66.65c-.77,4.27-.6,4.82,3.42,3.95a12.93,12.93,0,0,1,3.35-.15,6.15,6.15,0,0,0,4.82-1.67c.7-.66,1.48-1.23,2.22-1.84Q41.91,51.76,60.49,36.57c.76-.63,1.43-1.61,3-1.42-.81,1.93-1.47,3.53-2.15,5.12C60.6,42,59.81,43.78,59,45.54s-1.4,3.22-2.11,4.83-1.42,3.22-2.14,4.83-1.62,3.48-2.33,5.26c-.61,1.55-1.64,3-1.77,5.53,9.56-8.06,18.45-15.81,27.42-23.47S96.22,26.87,105.31,19.27Zm-94.93,160a17.69,17.69,0,0,0,2.41,1,15,15,0,0,0,2.84.38c7.85.3,13.89-3,18.41-9.31a30.86,30.86,0,0,0,4.78-11.41c1-4.4,1.1-8.88,1.51-13.33a8.34,8.34,0,0,0-2.9-7.59,63.74,63.74,0,0,1-14.88-21c-1.18-2.62-2.18-5.32-3.26-8-2.89-1.17-6-.14-9-1-.23-.06-.56.2-1.14.43.39,1.61.78,3.28,1.22,4.94,2.59,9.72,5.26,19.43,7.79,29.17a61.44,61.44,0,0,1,2.27,17.06c-.21,7.45-2.61,13.78-9.39,17.78C11,178.42,10.88,178.59,10.38,179.23Zm151.06-69.8c-2.3,0-4,.1-5.76,0-1.92-.14-2.87.72-3.46,2.49a66.24,66.24,0,0,1-10.05,19,62.89,62.89,0,0,1-9.77,10.52,5.2,5.2,0,0,0-2.07,4.57,84.22,84.22,0,0,0,1.34,12.86,35,35,0,0,0,3.28,9.47A22,22,0,0,0,146.76,179c4,1.49,8.05,2,12.18.52a1.51,1.51,0,0,0,.67-.58c.34-.54-.05-.94-.44-1.18a17,17,0,0,1-6.52-6.86,23.82,23.82,0,0,1-2.45-9.69,53.32,53.32,0,0,1,1.51-14.74c1.48-6.21,3.08-12.4,4.71-18.57C158,121.87,159.68,115.88,161.44,109.43ZM109.08,78.94a22.88,22.88,0,0,0-45.76-.19,22.92,22.92,0,0,0,23.05,23.13C98.57,101.91,109.32,91.62,109.08,78.94Zm-94.49,27.5h.69c2.41,0,2.79-.41,2.48-2.79-.11-.79-.24-1.58-.39-2.36a67.58,67.58,0,0,1-.23-23.35c.71-4.36.81-4.8-4.32-4.26A12.78,12.78,0,0,0,7,75.62c-2.41,1.58-3.92,3.67-3.9,6.7q0,7.67,0,15.33c0,3,1.55,5.12,4,6.66A15.67,15.67,0,0,0,14.59,106.44ZM168.33,90.05c0-2.23-.07-4.47,0-6.7.16-4.45-2.16-7.13-6.06-8.77a15.82,15.82,0,0,0-5.61-1c-1.41,0-1.92.55-1.74,2.12.3,2.69.81,5.36,1,8.06a71,71,0,0,1-1.42,20.45c-.4,1.74.15,2.28,2,2.24a16.11,16.11,0,0,0,6.49-1.44c3.47-1.64,5.5-4.23,5.4-8.24C168.28,94.52,168.33,92.28,168.33,90.05Z"/><path d="M86.07,135.79q-12.69,0-25.38,0a27.92,27.92,0,0,1-4.29-.24A3.59,3.59,0,0,1,53.07,132c-.16-3.5-.12-7,0-10.52a3.75,3.75,0,0,1,3.17-3.7,14.17,14.17,0,0,1,3.32-.32q26.58,0,53.16,0a15.35,15.35,0,0,1,3.32.27,4.07,4.07,0,0,1,3.45,4c.12,3.35.12,6.71,0,10a3.84,3.84,0,0,1-3.66,3.77,30.67,30.67,0,0,1-4.29.19Zm-1.14-9h0v-4.3a1.66,1.66,0,0,0-1.65-1.91,22.75,22.75,0,0,0-2.86,0,1.47,1.47,0,0,0-1.46,1.56c0,3,0,6.06,0,9.08,0,.41.34,1.07.65,1.16a6.08,6.08,0,0,0,4.63-.11c.94-.49.64-1.7.67-2.63S84.93,127.79,84.93,126.83Zm17.06.1h0c0-1.59,0-3.18,0-4.76a1.54,1.54,0,0,0-1.51-1.53,8.88,8.88,0,0,0-2.36,0c-.63.1-1.28.46-1.28,1.19q-.07,4.75,0,9.51a1.49,1.49,0,0,0,.77,1.06c2.47,1.18,4.34,0,4.43-2.66C102,128.83,102,127.88,102,126.93Zm-8.33,0H93.6c0-1.59,0-3.17,0-4.76a1.49,1.49,0,0,0-1.44-1.57,13.22,13.22,0,0,0-1.89-.08c-1.78.08-2.3.53-2.33,2.24-.05,2.53-.06,5.07,0,7.61,0,1.83.47,2.22,2.22,2.32,3.14.18,3.43-.1,3.5-3.39C93.67,128.55,93.66,127.76,93.66,127Zm-17.91,0h0c0-1.28,0-2.56,0-3.84a6,6,0,0,0-.07-.95,1.7,1.7,0,0,0-1.57-1.53c-2.69-.37-3.52.26-3.55,2.9s0,5.11.07,7.67a1.45,1.45,0,0,0,1.53,1.49c2.94.19,3.6,0,3.6-2.87C75.76,128.85,75.75,127.9,75.75,126.94Zm-8.18-.36c0-1.12,0-2.23,0-3.35-.07-2.33-.92-3-3.34-2.6a1.52,1.52,0,0,0-1.44,1.59q0,4.53,0,9.06c0,1,.68,1.34,1.56,1.42,2.56.23,3.1-.24,3.18-2.78C67.59,128.81,67.57,127.69,67.57,126.58Zm37.42,0h0c0,1.43,0,2.87,0,4.31s.58,1.85,2.13,1.88c1.83,0,2.57-.28,2.59-1.37.06-3.19,0-6.38,0-9.56a1.13,1.13,0,0,0-.48-.76,3.67,3.67,0,0,0-3.21-.27c-.93.26-1,1.12-1,1.94C105,124,105,125.25,105,126.53Zm-45.31-.18h0c0-1.28,0-2.55,0-3.82s-.61-1.82-1.67-1.86-2,.54-2,1.53q-.06,4.53.06,9.06c0,1,1,1.52,2.11,1.38a1.47,1.47,0,0,0,1.48-1.52C59.7,129.53,59.68,127.94,59.68,126.35Zm57,.14c-.08-1.5-.06-3.09-.29-4.65-.13-.85-1-1.14-1.83-1.14s-1.61.35-1.62,1.31c-.06,3,0,6,0,9a1.46,1.46,0,0,0,1.35,1.63,1.79,1.79,0,0,0,2.17-1.35C116.54,129.73,116.56,128.15,116.64,126.49Z"/><path d="M101.26,78.92a15,15,0,1,1-14.85-15A15,15,0,0,1,101.26,78.92ZM86,82.9a4.06,4.06,0,0,0,4.26-3.63,4.06,4.06,0,1,0-8.11-.4A4,4,0,0,0,86,82.9Z"/></g></g></svg>