<svg xmlns="http://www.w3.org/2000/svg" viewBox="0 0 171.22 231.61"><title>Character  14</title><g id="Layer_2" data-name="Layer 2"><g id="Character_14" data-name="Character  14"><path d="M85.82,231.6q-24.24,0-48.47,0c-4.62,0-4.64-.05-3-4.47q12.55-33.7,25.11-67.4c2.22-6,2.34-4.69-2.93-7.22C40,144.54,28.05,132.09,21.23,115c-1.53-3.82-3-6.36-7.68-5.7-2.87.4-5.69-.71-8.18-2.29C2.05,104.93,0,102.06,0,98c0-5.11,0-10.23,0-15.35,0-4.7,2.32-7.84,6.28-10a15,15,0,0,1,6.38-1.89c1.12-.06,2.24,0,3.36-.1,1.94-.11,2.23-.34,2.49-2.18.66-4.59,1.28-9.18,1.89-13.78q2.52-19,5-38c.44-3.27.82-3.71,4.08-4.34q12.7-2.41,25.44-4.78C66.88,5.31,78.79,2.93,90.76.89c6.24-1.06,5-2.33,9.38,3.73,2.15,3,4.35,5.93,6.54,8.89a1.75,1.75,0,0,0,2.51.51c3.2-1.81,6.38-3.66,9.59-5.44,2.63-1.46,2.76-1.48,5,.57,9.26,8.36,18.45,16.8,27.73,25.13a7,7,0,0,1,2.38,5.45c.25,8.8.63,17.59,1,26.38,0,.64,0,1.28.06,1.92.16,2.34.24,2.43,2.43,2.67.63.07,1.28,0,1.91.14a17.21,17.21,0,0,1,5.45,1.75c4.15,2.21,6.53,5.5,6.48,10.36-.05,4.48,0,9,0,13.44-.06,7-4.06,11.66-11.1,12.74a46,46,0,0,1-5.26.37,2.23,2.23,0,0,0-2.2,1.49c-.28.75-.53,1.51-.82,2.26q-10.59,27.52-37.39,39.85c-4.43,2-4,1.38-2.36,5.86q12.49,33.72,25.11,67.4c2,5.43,2.29,5.25-3.86,5.24Zm-.68-120.27v-.11c9.59,0,19.19.06,28.78,0a10.07,10.07,0,0,1,9.9,6.21c.56,1.15,1,2.35,1.55,3.5a21.51,21.51,0,0,0,1.58,3,4.7,4.7,0,0,0,5.43,2,11.57,11.57,0,0,0,5.62-3.5,37,37,0,0,0,6.19-9.08A122.31,122.31,0,0,0,152,93.2a23,23,0,0,0,.93-9.46c-.17-1.59-.37-3.18-.64-4.75-4.55-25.57-19-43-43-52.77-5.39-2.2-10.38-2.54-15.49.69-3.17,2-6.82,2.47-10.59,2.43a127.37,127.37,0,0,0-19.61,1C52,32,42.3,36.83,34.82,46a68.22,68.22,0,0,0-15,33.72c-.48,3.3-1.06,6.71,0,10,2.75,8.7,6,17.19,10.92,25a30.81,30.81,0,0,0,5.09,6.34,12.14,12.14,0,0,0,4.43,2.78c2.53.86,3.93.32,5-2.13.7-1.61,1.19-3.31,1.87-4.93a8.25,8.25,0,0,1,7.37-5.3c1.43-.12,2.87-.13,4.31-.14Q71.94,111.32,85.14,111.33Zm.41,117.19h43.13c1.44,0,2.87,0,4.31-.1.95-.06,1.3-.68,1-1.69s-.61-1.82-.94-2.72q-11.94-32.08-23.9-64.17c-.34-.89-.69-1.78-1.06-2.67a1.57,1.57,0,0,0-1.95-.94c-.77.16-1.53.43-2.31.61a75.24,75.24,0,0,1-16.09,2.23,70.75,70.75,0,0,1-20.82-2.68c-2.41-.69-2.69-.47-3.62,1.75-.24.59-.45,1.19-.67,1.79L38.88,223.63c-.39,1.05-.75,2.11-1,3.18a1.2,1.2,0,0,0,1.22,1.6c1.44.08,2.87.1,4.31.1ZM17.91,106.19c-.23-1.71-.35-3-.58-4.22a68.14,68.14,0,0,1-.19-24.29c.78-4.42.07-4.14-3.77-4a13.17,13.17,0,0,0-5.91,1.75C4.59,77.05,3,79.34,3,82.78c.08,4.79.11,9.58,0,14.36-.1,4.11,2.05,6.53,5.52,8.12C11.36,106.58,14.33,106.61,17.91,106.19ZM154.16,106a12.36,12.36,0,0,0,10.91-2.17,7.39,7.39,0,0,0,3.16-6.13c0-5.1,0-10.19,0-15.29A7.55,7.55,0,0,0,165,76.29a11.42,11.42,0,0,0-4.28-2c-6.16-1.58-5.68-.31-5.32,4.54,0,.32.1.63.13,1a77.33,77.33,0,0,1-.9,23.76C154.44,104.27,154.33,105,154.16,106ZM84.87,127.2c0-1,0-1.92,0-2.88-.06-3.6-.24-3.76-3.8-3.64h-.48a1.63,1.63,0,0,0-1.84,1.73c0,2.87-.07,5.75,0,8.62,0,1.48.57,1.89,2.09,2,3.73.23,4,0,4-3.91C84.88,128.47,84.87,127.83,84.87,127.2Zm2.94-.39h0c0,1.43,0,2.87,0,4.29S88.41,133,90,133c.64,0,1.27,0,1.91,0,.9,0,1.6-.43,1.61-1.36.06-3.18.06-6.36,0-9.54,0-.93-.65-1.39-1.56-1.41-3.94-.11-4.21-.13-4.16,3.72C87.82,125.22,87.81,126,87.81,126.81Zm14.13,0h0c0-1.43,0-2.86,0-4.29s-.56-1.83-2.14-1.89a13.59,13.59,0,0,0-1.43,0,1.64,1.64,0,0,0-1.71,1.83q0,4.29,0,8.58A1.65,1.65,0,0,0,98.29,133c3.16.16,3.7-.06,3.65-3.27C101.92,128.76,101.94,127.81,101.94,126.86Zm7.85-.06h0c0-1.43,0-2.87,0-4.31a1.65,1.65,0,0,0-1.77-1.79c-2.56-.2-3.07.2-3.11,2.85s0,5.11,0,7.67a1.64,1.64,0,0,0,1.74,1.81c2.57.15,3.06-.25,3.14-2.87C109.82,129,109.79,127.91,109.79,126.8Zm-39.31-.3h0c0,1.59,0,3.19,0,4.78A1.64,1.64,0,0,0,72.35,133h1.43a1.61,1.61,0,0,0,1.81-1.75q.06-4.55,0-9.09A1.46,1.46,0,0,0,74,120.71c-2.88-.13-3.56,0-3.53,2.91C70.49,124.58,70.48,125.54,70.48,126.5Zm-2.93.21h0c0-1.12,0-2.24,0-3.36-.09-2.46-.7-2.92-3.33-2.65-.93.09-1.5.58-1.5,1.49,0,3.19,0,6.39.08,9.58a1.47,1.47,0,0,0,.77,1.07c2.08.92,3.88-.13,4-2.3C67.59,129.27,67.55,128,67.55,126.71Zm-8-.13c0-1.58.06-3.17,0-4.76,0-.69-.67-1-1.36-1.08a1.85,1.85,0,0,0-2.27,1.82c-.07,2.86,0,5.73,0,8.59a2.09,2.09,0,0,0,.27.91,2,2,0,0,0,2.05.89c.69-.06,1.29-.42,1.32-1.12C59.61,130.08,59.55,128.33,59.56,126.58Zm57,.56h-.09c0-1.43,0-2.85,0-4.28a2.85,2.85,0,0,0-.42-1.32,1.92,1.92,0,0,0-2.08-.76,1.2,1.2,0,0,0-1.14,1.25c0,3.33,0,6.65.07,10,0,.67.71,1,1.41.95,1,0,1.92-.45,2-1.55C116.53,130,116.51,128.56,116.57,127.14Z"/><path d="M86.15,53.3C99.23,52.84,112,64,112,79.14A25.79,25.79,0,0,1,86.12,105a25.87,25.87,0,1,1,0-51.74Zm-.07,2.93a22.91,22.91,0,1,0,23,22.71C109,66.34,98.42,56,86.08,56.23Z"/><path d="M101.18,79.06a15,15,0,1,1-14.85-15A14.94,14.94,0,0,1,101.18,79.06ZM86,83.17a4.14,4.14,0,0,0,4.22-3.74,4,4,0,0,0-3.63-4.28,4.11,4.11,0,0,0-4.49,3.93A4.19,4.19,0,0,0,86,83.17Z"/></g></g></svg>