<svg xmlns="http://www.w3.org/2000/svg" viewBox="0 0 171.43 263.6"><title>Character  16</title><g id="Layer_2" data-name="Layer 2"><g id="Character_16" data-name="Character  16"><path d="M122.86,36.58c3.25-4.78,5.87-8.58,8.42-12.42,3.82-5.76,3.79-5.95,7.92-.28,8,11,15.81,22.12,23.27,33.49a39.42,39.42,0,0,1,6.29,20.82,94,94,0,0,1-2.37,22.37c-.2.93-.41,1.87-.57,2.81a2.16,2.16,0,0,0,.71,2.16l.75.6c3.12,2.51,4.25,5.82,4.14,9.75-.1,4.15,0,8.32,0,12.47-.06,7.1-4,11.71-11,12.82a38.54,38.54,0,0,1-5.27.33,2.45,2.45,0,0,0-2.47,1.85c-.26.75-.53,1.5-.82,2.25q-10.51,27.3-37.14,39.45c-4.27,2-4.05,1.53-2.43,5.89q12.21,32.81,24.46,65.6c2.63,7.06,2.9,7.06-4.7,7.06q-46.06,0-92.14,0c-7.45,0-6.81-.41-4.56-6.45q12.24-32.8,24.44-65.61c.55-1.48,1.05-3,1.53-4.34-.78-1.24-1.92-1.48-2.92-1.94-18.07-8.21-30.7-21.53-37.74-40.12a6,6,0,0,1-.36-.88c-.4-2.08-1.6-2.95-3.73-2.8a31.25,31.25,0,0,1-4.32-.15,14.68,14.68,0,0,1-7.52-2.85A10,10,0,0,1,.11,130.4C0,125,0,119.52.09,114.08a10.27,10.27,0,0,1,4.77-8.44,18.73,18.73,0,0,1,4.28-2.11c2.14-.78,2.2-1,1.93-3.15-.66-5.39-1.3-10.79-2-16.18a148.58,148.58,0,0,1-.67-22.52,41.55,41.55,0,0,1,7.69-22.85,26.13,26.13,0,0,1,12.53-10c2.55-.95,5.1-1.92,7.71-2.63C54.7,21.23,71.83,13.47,88.22,4a40.43,40.43,0,0,1,5.11-2.63c7-2.81,13.23-1.23,18.15,4.48a34.14,34.14,0,0,1,5.4,9,80.58,80.58,0,0,1,4.84,16.53C122,32.78,122.33,34.16,122.86,36.58Zm30.42,84.48a72.43,72.43,0,0,0-19.09-48.4,72.8,72.8,0,0,0-10.5-9.09,13.22,13.22,0,0,0-13.12-2c-2.25.82-4.47,1.71-6.71,2.58-3,1.15-5.92,2.39-8.93,3.46a25.88,25.88,0,0,1-15.09.8,108.9,108.9,0,0,1-11-3.49,53.76,53.76,0,0,0-9.65-2.77,13.07,13.07,0,0,0-10,2.24c-1.18.83-2.4,1.6-3.51,2.51-20.55,17-29.51,38.86-25.4,65.11,5.84,37.27,41.09,61.54,77.64,55.05A66.94,66.94,0,0,0,153.28,121.06ZM18,138.05c-.1-.91-.14-1.7-.29-2.46-1.75-8.75-3.63-17.47-5.22-26.24-.55-3-.84-3.89-4.4-2.12-3.08,1.54-5,3.94-5,7.52,0,4.94,0,9.88,0,14.82a7.91,7.91,0,0,0,4.65,7.26A14,14,0,0,0,18,138.05Zm150.4-15.94h0c0-2.55,0-5.1,0-7.65a7,7,0,0,0-2.14-5.15c-.84-.81-1.77-.65-2.12.53a218.4,218.4,0,0,1-8.36,23.39c-.64,1.51-2.22,3.34-.82,4.77,1.21,1.23,3.35.34,5.07.22a5.82,5.82,0,0,0,1.38-.39c4.67-1.55,7.35-4.56,7-9.5C168.28,126.26,168.38,124.18,168.38,122.11ZM67,188.66a6,6,0,0,0,.13,1.63q6.08,13.8,12.21,27.56c.1.24.49.35,1,.7,1.34-6.16,1.94-12.31,2.87-18.41.14-.94-.44-1.45-1.27-1.74-1.3-.44-1.56-1.46-1.46-2.67,0-.64.09-1.27.11-1.91.07-2.69,0-2.84-2.82-3.32Zm38.4.07c-3.63.62-6.75,1.19-9.89,1.66a2.82,2.82,0,0,0-2.67,2.83c-.19,1.56-.19,3.43-1.42,4.47-1.4,1.19-1.21,2.46-1,3.88Q91.18,209,92,216.34c.07.56,0,1.33.93,1.26C95.44,213.35,104.43,192.58,105.37,188.73Z"/><path d="M86.7,149.78h24.91c.8,0,1.6,0,2.4,0,4,.14,5.54,1.52,5.68,5.42.09,2.55.1,5.12,0,7.67-.14,3.33-1.72,4.88-5,5.14-.79.06-1.59,0-2.39,0H60.48c-6.44,0-7.6-1.16-7.64-7.43,0-1.76-.06-3.52,0-5.27.17-4,1.61-5.5,5.57-5.54,6.55-.08,13.1,0,19.64,0Zm-1.61,9.36h0v-2.38c0-4.21-.14-4.09-4.33-4-1.09,0-1.88.45-1.9,1.63q-.06,4.51,0,9c0,1.13.78,1.64,1.88,1.66.64,0,1.27,0,1.9,0,1.89-.07,2.32-.42,2.4-2.14C85.15,161.68,85.09,160.41,85.09,159.14Zm3-.52h0c0,1.59,0,3.18,0,4.76A1.62,1.62,0,0,0,90,165.07c.8,0,1.59,0,2.38,0a1.47,1.47,0,0,0,1.43-1.57c0-3,0-6,0-9a1.63,1.63,0,0,0-.53-1.24,5.65,5.65,0,0,0-4.14-.24c-1.17.28-1,1.45-1,2.36C88.05,156.4,88.08,157.51,88.08,158.62Zm13.92,0h0c0-1.42,0-2.85,0-4.27a1.43,1.43,0,0,0-1.46-1.52,20.82,20.82,0,0,0-2.37,0A1.2,1.2,0,0,0,96.91,154q-.06,5,0,10c0,.68.65,1,1.34,1.09s1.26,0,1.9,0a1.61,1.61,0,0,0,1.8-1.73C102,161.75,102,160.17,102,158.58Zm-34.25.32c0-1.12,0-2.24,0-3.36,0-.32,0-.64,0-.95A1.72,1.72,0,0,0,66,152.76c-2.54-.24-3.15.22-3.2,2.78s0,5.11.05,7.67a1.71,1.71,0,0,0,1.72,1.87c2.54.19,3.13-.29,3.22-2.83C67.79,161.14,67.75,160,67.75,158.9Zm3-.23h0c0,1.12,0,2.23,0,3.35,0,.32,0,.64,0,1,.13,1.73.54,2.08,2.44,2.1h.47c1.59-.06,2.1-.43,2.14-1.9q.11-4.06,0-8.13c0-2-.51-2.35-2.68-2.31-1.94,0-2.32.34-2.4,2.11C70.66,156.12,70.71,157.4,70.71,158.67Zm39.29.17V156c0-.31,0-.63,0-.95-.13-1.95-.56-2.3-2.74-2.29-1,0-2,.21-2,1.45q-.08,4.76,0,9.51c0,.92.7,1.32,1.61,1.37,2.51.16,3-.29,3.12-2.89C110,161.07,110,160,110,158.84Zm-50.36-.06h0c0-1.58,0-3.15,0-4.73a1.2,1.2,0,0,0-1.2-1.2c-.79-.06-1.6-.06-2.05.77a2.14,2.14,0,0,0-.34.87q-.06,4.26-.06,8.52a1.91,1.91,0,0,0,.26.9,2.11,2.11,0,0,0,2,1.09,1.4,1.4,0,0,0,1.47-1.49C59.69,161.94,59.64,160.36,59.64,158.78ZM113,159h0c0,1.58-.06,3.16,0,4.74.07,1.2,1.35,1.68,2.47,1.06a2.08,2.08,0,0,0,1.19-1.89c0-2.69,0-5.38,0-8.07a2.75,2.75,0,0,0-.22-.92,2.17,2.17,0,0,0-2.43-1,1.23,1.23,0,0,0-1,1.35C113,155.79,113,157.37,113,159Z"/><path d="M86.18,85.31c14.57-.3,26,11.94,26.07,25.72.07,12.12-9.17,25.91-25.81,26a25.87,25.87,0,1,1-.26-51.74Zm.11,3a22.91,22.91,0,1,0,23,22.73C109.14,98.19,98.41,88,86.29,88.28Z"/><path d="M86.38,96.12a15,15,0,1,1-15.13,15.2A15.07,15.07,0,0,1,86.38,96.12Zm.06,19.09a4,4,0,0,0,3.82-4.08,3.91,3.91,0,0,0-3.86-4,4,4,0,0,0-4.07,4.29A4,4,0,0,0,86.44,115.21Z"/></g></g></svg>