<svg xmlns="http://www.w3.org/2000/svg" viewBox="0 0 187.61 264.48"><title>Character  17</title><g id="Layer_2" data-name="Layer 2"><g id="Character_17" data-name="Character  17"><path d="M33.2,36.25a1.52,1.52,0,0,0,.08-1.77,7.62,7.62,0,0,1-.64-6.4,36.76,36.76,0,0,1-3.35-2.18,5.46,5.46,0,0,1-2-6,5.59,5.59,0,0,1,4.81-4.13,15.27,15.27,0,0,1,6.65.44c7.84,2.05,14.43,6,19.11,12.77a13.63,13.63,0,0,0,.9,1.11,2.77,2.77,0,0,0,.47.3c.93-.52.41-1.31.24-1.92a25.6,25.6,0,0,0-4.22-8.55,9,9,0,0,1-2.14-5.23C53,9.89,57.2,7,61.57,9A16.09,16.09,0,0,1,64,10.55c.53.37.93,1,1.49,1.19,3.69.93,6,3.47,7.93,6.53a1.1,1.1,0,0,0,.82.3c.63,0,.69-.55.82-1a3.06,3.06,0,0,0-.46-2.27,12.23,12.23,0,0,1-1.12-3.13,5.7,5.7,0,0,1,2.46-5.86,5.1,5.1,0,0,1,5.88,0,16.68,16.68,0,0,1,6.08,6,7.53,7.53,0,0,0,.88,1.14.9.9,0,0,0,1.5-.35c.47-1.7.86-3.41,1.37-5.1a13.89,13.89,0,0,1,3.13-5.87,6.1,6.1,0,0,1,7-1.6c2.33,1,3.6,3.39,3.44,6.3a10.65,10.65,0,0,1-1.32,4.07,24.36,24.36,0,0,0-2.67,9.81c1.38-1,1.57-2.25,2.08-3.35A43.56,43.56,0,0,1,108,9a11.36,11.36,0,0,1,5.66-4.25,5.48,5.48,0,0,1,7.13,5.91,10.54,10.54,0,0,1-2,4.82,28.11,28.11,0,0,0-3.91,7c1.15.55,1.57-.33,2.17-.72,1.06-.7,2-1.53,3.15-2.17,3.93-2.31,6.25-2.43,11.5-.64.51-.74,1-1.52,1.57-2.29,1.88-2.65,6.1-2.61,8.33.11a9.91,9.91,0,0,1,2.09,7.65c-.18,1.73-.62,3.44-.95,5.15.67.73,1.44.37,2.21.24,5.6-.94,7.57.39,8.84,5.86a4.92,4.92,0,0,0,.58,1.06c2.54,0,5.23-.39,7.93,0a12.65,12.65,0,0,1,5.77,2.14c2.56,1.85,4.07,4.35,2.92,7.43-.72,2-.15,2.64,1.44,3.22a2.14,2.14,0,0,1,.41.25c3.33,2.37,3.81,4.14,2.28,8.21a9.72,9.72,0,0,0-.31,1.4c.88.14,1.68.2,2.45.38,3.86.93,5.57,3.91,4.25,7.59a24.73,24.73,0,0,1-1.85,3.45c1,1.13,2.59,1,3.79,1.71a7.38,7.38,0,0,1,3.92,4.61A5.33,5.33,0,0,1,183.12,84c-.46.1-1,0-1.44.07-1.39.28-2.48,1.46-2,2.7,1.67,4.8-.56,7.64-4.53,9.74a1.89,1.89,0,0,0-1.18,1.59l5.7,2.13a11.22,11.22,0,0,1,4.75,3.14c2.42,2.8,1.56,6.34-1.83,7.86a7.9,7.9,0,0,1-4.23.55c-1.25-.14-2.49-.41-3.88-.65v11.61c0,1.92-.12,3.85,0,5.76.45,5.88-2.21,9.78-7.44,12.15a9.45,9.45,0,0,0-1.15.69c-.24,1,.39,1.12,1,1.3,1.22.38,2.45.73,3.65,1.17a23.91,23.91,0,0,1,3.52,1.51c4.82,2.76,4.94,7.74.16,10.61a8.5,8.5,0,0,0-3.68,3.45c-1.18,2.33-3.56,3-6,3.32-1.56.19-3.17-.53-4.66.22-.4,1.21.08,2.27.26,3.35a7.85,7.85,0,0,1-.31,3.79,5.07,5.07,0,0,1-8.05,2.78,10.39,10.39,0,0,1-2.81-3.23,14.76,14.76,0,0,0-3.83-4.73c-1.32.37-1.84,1.43-2.54,2.25a70.87,70.87,0,0,1-22.64,17.47l-2.15,1.05a1.43,1.43,0,0,0-.85,1.94c.41,1.21.81,2.42,1.21,3.64q11.35,34.13,22.7,68.25c.56,1.67,1.05,3.36,1.57,5H35.83c3-8.92,6.06-17.83,9.06-26.76q7.83-23.4,15.62-46.83c.41-1.21.82-2.43,1.13-3.66a1.32,1.32,0,0,0-.67-1.62c-.56-.3-1.12-.62-1.69-.9a70.36,70.36,0,0,1-24.86-19.93c-.48-.61-.89-1.34-1.77-1.58-1,.31-1.12,1.38-1.55,2.14-1.11,1.95-2.11,3.95-3.24,5.88a8.65,8.65,0,0,1-3.34,3.37,5.79,5.79,0,0,1-5.93.1,5.51,5.51,0,0,1-2.45-5.81c.25-1.37.74-2.68,1.15-4.11-1.51-.33-2.43.88-3.69,1-4,.52-6.94-2.11-6.53-6.16a8.51,8.51,0,0,1,.81-2.73c.55-1.14,1.29-2.2,1.94-3.29-.13-1.24-1.32-1.21-2.05-1.75a4.65,4.65,0,0,1-1.63-6.3,10.46,10.46,0,0,1,1.59-2.37,17.63,17.63,0,0,1,1.9-1.71c.19-1.68-1-1.92-1.67-2.44a11.15,11.15,0,0,1-4.75-9.92c.13-4.15.17-8.32,0-12.47-.19-4.37,1.2-7.82,4.89-10.28.48-.32,1.28-.57.93-1.39s-1.07-.51-1.66-.6A18.52,18.52,0,0,1,5,104.07a7.15,7.15,0,0,1-3.61-2.24A5,5,0,0,1,2.53,94a29.34,29.34,0,0,1,4-1.62c.31-1.15-.77-1.57-1.29-2.28-1-1.42-2.21-2.74-3.18-4.2A12.74,12.74,0,0,1,.4,82.48C-1.19,76.84,2.27,73.42,8,74.94c.77.2,1.47.63,2.25.14-.05.21-.08.41-.11.61.05-.06.14-.13.13-.17a1.58,1.58,0,0,0-.14-.36c-.89-1.68-1.8-3.36-2.65-5.06a36.46,36.46,0,0,1-2.88-7.57,11.11,11.11,0,0,1-.18-4.73C4.68,56.16,6,55.09,6.7,53.72s-.12-3.15.66-4.65a5.68,5.68,0,0,1,5-3.14c1.74-.09,2.93-.5,3.81-2.16,1-1.84,3-2.12,4.93-2.27C21,39.76,19.55,39,18.82,37.79a8.35,8.35,0,0,1-1.42-5,4.5,4.5,0,0,1,5.05-4.48,7.75,7.75,0,0,1,4,1.44,24.22,24.22,0,0,1,6.8,6.51c.82.09,1.34.46,1.38,1.33l1.71.14c.06.34,0,.4-.34.17l.21-.25c-.83,1-1.13,1-1.55,0Zm92.5-5.41c-.29.46-.68.89-.44,1.5-.71-.17-1.06.12-1.07.84-.83.1-.84.66-.73,1.29-.14.29-.27.28-.35,0,0,0,.16-.08.22-.14.38-.33.81-.64.75-1.25a.86.86,0,0,0,1.07-.82c.78-.3.7-.87.49-1.45A2.77,2.77,0,0,0,126,31c.1,0,.22,0,.32,0Zm30.7,88.82c-.39-3.46-.44-7.31-1.29-11.08a10.31,10.31,0,0,0-2-4.28c-9.83-12.5-22-21.76-37.23-26.67A86.82,86.82,0,0,0,97.6,74,88.75,88.75,0,0,0,63,77.32a66.93,66.93,0,0,0-36.9,26.76,15.27,15.27,0,0,0-2.66,6.09,66.94,66.94,0,0,0,85.22,75.54C136.22,177.49,156.93,151.79,156.4,119.66Zm-19,140.75c.39-1.17-.17-2.18-.52-3.23L114.75,190.8a22.1,22.1,0,0,0-.83-2.23,1.31,1.31,0,0,0-1.55-.8c-.93.22-1.84.54-2.76.8a69.79,69.79,0,0,1-30.34,2.18,83.54,83.54,0,0,1-12.11-2.85c-1.85-.58-2.23-.34-2.92,1.37-.18.44-.34.89-.49,1.35Q52.64,224,41.52,257.45a15.65,15.65,0,0,0-.62,2.3.88.88,0,0,0,.75,1,20.9,20.9,0,0,0,2.85.21h89.68C135.28,261,136.43,261.18,137.4,260.41ZM152.78,98.12a17.36,17.36,0,0,0-.3-2,73.49,73.49,0,0,0-18-31.75A57.51,57.51,0,0,0,104.3,47.67a73.17,73.17,0,0,0-26.68-.27C52,51.54,30.25,72.32,25.05,97.67c-.11.56-.46,1.24.41,1.56.15,0,.34,0,.42-.14q.81-.89,1.56-1.8A69.74,69.74,0,0,1,56.26,76.48a84.14,84.14,0,0,1,23.25-5.39A91.54,91.54,0,0,1,120.07,76a77.77,77.77,0,0,1,29,19.06C150.12,96.1,150.86,97.62,152.78,98.12ZM21.36,138.72c-.12-1.11-.13-1.75-.27-2.36a67.56,67.56,0,0,1-1.51-18c.12-2.54.55-5.06.75-7.6s-1.13-3.9-3.64-3.89a12.47,12.47,0,0,0-5.09,1.11c-3.53,1.58-5.56,4-5.44,8.12.13,4.46.09,8.92,0,13.38-.07,4,2,6.58,5.42,8.22C14.56,139.09,17.69,139.11,21.36,138.72Zm150.06-16h0c0-2.71,0-5.42,0-8.13a6,6,0,0,0-3.1-5.57,26.34,26.34,0,0,0-8.09-2.79c-1.95-.29-2.43.51-2.11,2.11a66.05,66.05,0,0,1,.06,26.13c-.87,4.32-.34,4.73,3.91,4.38a11.83,11.83,0,0,0,5-1.6c2.84-1.61,4.55-3.9,4.42-7.35C171.34,127.46,171.42,125.06,171.42,122.67Zm-114-71.92c2.29-1.08,4.18-1.46,5.73-3A60.53,60.53,0,0,0,56.25,32C51.77,24.77,45.08,20.79,37,18.87a10.33,10.33,0,0,0-4.29-.15,2.92,2.92,0,0,0-2.47,2,2.86,2.86,0,0,0,1.49,3.23,12.13,12.13,0,0,0,5.44,1.7c4.16.21,7.28,2.29,9.79,5.37a70.52,70.52,0,0,1,4.76,6.61A42.87,42.87,0,0,1,57.41,50.75Zm27.28-7.51c1.48.6,3.08.16,4.64.11,2.38-.08,2.83-.5,3.1-2.73,1.36-11.29-2.11-21-9.47-29.54A12.77,12.77,0,0,0,80.38,9a2.19,2.19,0,0,0-2.67-.14,2.69,2.69,0,0,0-1.26,2.88,8.68,8.68,0,0,0,1.14,2.59c.59.94,1.41,1.73,2,2.65,5,7.26,7.47,15.08,5.12,23.93C84.56,41.63,84.13,42.38,84.69,43.24Zm44.86-19.79a2,2,0,0,0-1.08-2.25A4.8,4.8,0,0,0,124.3,21a17.24,17.24,0,0,0-5,2.83A40.54,40.54,0,0,0,107,39.5c-2.56,5.65-3.18,4.78,3.24,6.62A1.73,1.73,0,0,0,112.53,45c.63-1.29,1.24-2.59,1.88-3.87,3-5.93,6.85-11.13,12.56-14.77a11.11,11.11,0,0,0,2.1-1.9A2.93,2.93,0,0,0,129.55,23.45Zm11.23.67c-.05-1.86-.1-3.29-.9-4.57-.63-1-1.38-1.83-2.65-1.75S135.34,18.88,135,20a12.84,12.84,0,0,0-.34,1.87,23,23,0,0,1-8.43,14,23.81,23.81,0,0,1-5.54,3.72c-3.18,1.35-4.41,4-5.44,6.84-.34,1,.3,1.47,1,1.82a2.87,2.87,0,0,0,3.52-.51c.89-.92,1.72-1.89,2.57-2.84,3.64-4.06,7.53-7.89,12.32-10.52C139,32,140.13,28.06,140.78,24.12Zm-93,32.61c1.9-1.23,3.47-2.28,5.07-3.27A2,2,0,0,0,53.8,51a40.65,40.65,0,0,0-9.86-18.86,16,16,0,0,0-3.39-2.61,5,5,0,0,0-3.22-.69A2.13,2.13,0,0,0,35.56,32a9.72,9.72,0,0,0,1.65,2.31c4.79,4.77,7.4,10.7,9.14,17.1C46.79,53,47.24,54.68,47.81,56.73Zm54-21.61c.1.93.19,1.88.31,2.82.08.66.38,1.31,1.06,1.38.3,0,.8-.49,1-.87,2.26-4.52,5.28-8.65,6.53-13.7a31.29,31.29,0,0,1,4.63-9.37,23.68,23.68,0,0,0,1.79-2.8,7.23,7.23,0,0,0,.64-2.74,2.4,2.4,0,0,0-3-2.19A8.58,8.58,0,0,0,110,11.46C105.13,18.6,102.76,26.6,101.77,35.12Zm-81.6,9.62a2.34,2.34,0,0,0-2,2.5,8,8,0,0,0,2.65,5.45A39.09,39.09,0,0,0,38.9,62.81,2.94,2.94,0,0,0,42,62c.66-.69,1.42-1.29,2-2a2.2,2.2,0,0,0-1-3.73c-.45-.15-.93-.19-1.39-.32-6.86-1.8-13.26-4.47-18.3-9.71a7.62,7.62,0,0,0-2-1.33A3.51,3.51,0,0,0,20.17,44.74Zm80.38-1.4c-.14-.59-.22-1.21-.42-1.79-3.77-11.06-3.54-21.94,1.35-32.64a9.18,9.18,0,0,0,.7-2.27,3.06,3.06,0,0,0-1.55-3.23,3.16,3.16,0,0,0-3.52.66,9.51,9.51,0,0,0-2.52,4.56c-.67,2.3-1.19,4.64-1.77,7a11,11,0,0,0,.44,7,36.31,36.31,0,0,1,2.28,16.94c-.38,4.16-.31,4.17,4,4.16A3.44,3.44,0,0,0,100.55,43.34ZM134.66,59.5c3.19,5.07,3.93,5.28,8.67,2.74a15.6,15.6,0,0,0,4.55-3.46,44.84,44.84,0,0,0,6.49-10.57,7.18,7.18,0,0,0,.52-4.22,2.73,2.73,0,0,0-3.57-2.21,3.77,3.77,0,0,0-2.23,1.68A21.9,21.9,0,0,0,147.76,46a27.54,27.54,0,0,1-11.12,12.2C136,58.6,135.32,59.07,134.66,59.5Zm22,8.27a11.17,11.17,0,0,1,1.92,0c1.89.34,3.76.76,5.63,1.15a5,5,0,0,0,4.88-1.25,2.23,2.23,0,0,0-.13-3.38,5.47,5.47,0,0,0-1.21-.76,31.63,31.63,0,0,0-16.36-2.74,3.56,3.56,0,0,0-2.17.89A25.07,25.07,0,0,1,142.35,66c-1.14.53-1.24,1.23-.45,2.29,1.65,2.26,2,3.06,5,1.52A18.91,18.91,0,0,1,156.65,67.77Zm.4,23.6c1.26-.18,3.17-.37,5-.73a40.17,40.17,0,0,0,12.09-4.4,7.29,7.29,0,0,0,3.4-3.25,2.16,2.16,0,0,0-.54-2.61,3.43,3.43,0,0,0-3.54-.91A35.93,35.93,0,0,0,170,81a34.69,34.69,0,0,1-12.94,3.14c-6.14.21-5.74-.2-3.32,5.92C154.26,91.34,155.2,91.57,157.05,91.37ZM122.62,49.63c3.13,2.62,3.17,2.65,5.45.47a49.27,49.27,0,0,1,18.66-11.4,15.9,15.9,0,0,0,2.23-.88,3.16,3.16,0,0,0,1.57-3.22,3,3,0,0,0-2.9-2.1A12.9,12.9,0,0,0,143,33.59a42.66,42.66,0,0,0-14.78,9.59C126.17,45.17,124,47.09,122.62,49.63Zm-79.24,3a8,8,0,0,0-2.76-5.43q-7-6.84-14.08-13.58a13.47,13.47,0,0,0-2.78-1.82,2.35,2.35,0,0,0-2.68-.07c-.73.53-.9,1.93-.42,3.11a11.38,11.38,0,0,0,2.84,3.79c4.14,4,8.31,7.88,12.46,11.83,1.84,1.75,4.24,2,6.55,2.54A.92.92,0,0,0,43.38,52.62ZM21.81,95.17A6.3,6.3,0,0,0,23,91.91c.54-2.35.42-2.58-1.91-3.37a20,20,0,0,1-7.36-4.29c-1.4-1.3-2.65-2.75-4-4.07a15.21,15.21,0,0,0-2.9-2.43C4.88,76.62,3,78,3.05,80.3a6.72,6.72,0,0,0,1,3.14,31.41,31.41,0,0,0,8,8.79,6.1,6.1,0,0,0,2.11,1.07C16.7,94,19.3,94.57,21.81,95.17ZM9.06,56.66a2,2,0,0,0-1.63,1.51,7.14,7.14,0,0,0,.36,4.67A43.73,43.73,0,0,0,22.45,84.16,16.85,16.85,0,0,0,24,85.23c1.15.72,1.66.6,2.27-.56.44-.84.85-1.71,1.23-2.58.7-1.58.65-1.92-.77-2.65a69,69,0,0,1-10.11-6.32c-3-2.3-4.68-5-3.13-9.09.94-2.48-1.49-6.51-4-7.32A3.23,3.23,0,0,0,9.06,56.66ZM74.43,44.82c2.36-.08,2.94-.68,2.33-2.76A56,56,0,0,1,74,27.1a4.44,4.44,0,0,0-.4-1.84,41.17,41.17,0,0,0-4.57-7.8,9.09,9.09,0,0,0-2.17-1.82,2,2,0,0,0-3.1,1.64,6.14,6.14,0,0,0,1.36,4.46c3.48,4.92,5.12,10.53,6.25,16.34.33,1.72.67,3.43,1,5.15A1.66,1.66,0,0,0,74.43,44.82ZM63.37,35.57c-.87,3.67,1.4,6.69,2.36,10a1.41,1.41,0,0,0,1.43,1.05,1.86,1.86,0,0,0,1.57-.93,3.79,3.79,0,0,0,.6-2.74C68.06,36.37,67,29.71,63.06,24,61,21,59.83,17.77,61.77,14.18a1.39,1.39,0,0,0-.29-1.74,3.32,3.32,0,0,0-3.94-.64,3,3,0,0,0-1.28,3.75,22.21,22.21,0,0,0,2.18,3.69A29.12,29.12,0,0,1,63.37,35.57Zm87.35,45a6.55,6.55,0,0,0,1.38.62A34.78,34.78,0,0,0,169.27,78c2.17-1.08,4.34-2,6.84-1.48a7.45,7.45,0,0,1,4.71,3.77,1.72,1.72,0,0,0,2.13.6,2.24,2.24,0,0,0,1.6-2.15,3.37,3.37,0,0,0-1.5-2.84,7.67,7.67,0,0,0-4.43-1.55,54.74,54.74,0,0,0-11.45.25C161.5,75.47,156,76.92,150.72,80.61ZM34.41,69.35c1.23,0,1.72-.86,2.3-1.59,1-1.26.82-2-.54-2.6A80.49,80.49,0,0,1,28.7,62c-5.2-2.83-10.19-6-13-11.54-.7-1.39-2-1.78-3.66-1.4a2.31,2.31,0,0,0-2,1.76c-.32,1.48.54,2.4,1.58,3.22a6.07,6.07,0,0,0,.81.5A64.82,64.82,0,0,1,26.58,65C28.77,67.17,31.7,68.2,34.41,69.35ZM12.58,162.84a4.68,4.68,0,0,0,3.52-2.22,61.39,61.39,0,0,1,8.21-8.69,2.3,2.3,0,0,0,.78-3c-.32-.73-.59-1.48-.92-2.21-.55-1.19-1.18-1.41-2.23-.68a44.61,44.61,0,0,0-11.16,11.72,4.27,4.27,0,0,0-.76,2.72A2.47,2.47,0,0,0,12.58,162.84Zm8.74,9.55a2.6,2.6,0,0,0,2-.64,12.6,12.6,0,0,0,2.17-2.52c1.34-2.36,2.46-4.84,3.79-7.21a4.43,4.43,0,0,0-.35-5.33c-.29-.38-.49-.83-.75-1.23-1-1.52-1.72-1.57-3-.34A6.56,6.56,0,0,0,23.54,158,53.38,53.38,0,0,1,20,166.85a5.53,5.53,0,0,0-.77,3.68A2.15,2.15,0,0,0,21.32,172.39ZM153.42,56.82a2.5,2.5,0,0,0,1.94.82c5.11.83,10.14-.69,15.23-.43a2.81,2.81,0,0,0,.92-.22,2.23,2.23,0,0,0,1-3.5,6,6,0,0,0-4.62-2.15c-2.22-.07-4.46.13-6.67-.06C157,50.92,154.56,52.78,153.42,56.82Zm25.68,52.05c.54-.05.86-.05,1.17-.11a2.72,2.72,0,0,0,2.26-1.52,2.21,2.21,0,0,0-1-2.48,7.06,7.06,0,0,0-2-1.31c-3.58-1.32-7.19-2.55-10.79-3.81l-6.94,1.66-.47.08c-.43.11-1,.13-1,.73a.92.92,0,0,0,.9.92,29.67,29.67,0,0,1,9,3.12A31.47,31.47,0,0,0,179.1,108.87ZM33,72.28a120.18,120.18,0,0,1-12.12-7.1,5.39,5.39,0,0,0-2.73-.63,2.36,2.36,0,0,0-2.15,3,6.22,6.22,0,0,0,2.62,3.3A73.75,73.75,0,0,0,25,75C30.25,77.78,29.7,78.4,33,72.28ZM8.67,95.58a26,26,0,0,0-3,.34c-1.64.35-2.57,1.29-2.57,2.39a3.21,3.21,0,0,0,2.3,2.74,5.08,5.08,0,0,0,1.39.3,34.67,34.67,0,0,1,12.92,2.85c.87.4,1.44-.06,1.56-1.11a23.61,23.61,0,0,0,.19-2.38c.06-1.86-.17-2.3-1.8-2.86A48.16,48.16,0,0,0,8.67,95.58Zm166,55a2.79,2.79,0,0,0-1.15-2,16.88,16.88,0,0,0-3.36-1.71,114.64,114.64,0,0,1-12-4.35c-1.05-.5-1.81-.07-2.2,1-.59,1.64-.44,2.31.89,3.28a25.5,25.5,0,0,0,7.61,3.8c2,.6,4,1.15,5.49,2.66a2,2,0,0,0,2.59.2A3.65,3.65,0,0,0,174.64,150.55ZM154.4,149c-1.59,1.47-1.9,3.09-2.69,4.44a1.5,1.5,0,0,0,.7,2.33,34.9,34.9,0,0,0,9.21,3.72,8.35,8.35,0,0,0,2.82.14c1.59-.21,3.16-.65,3.73-2.43.38-1.18-.69-2.48-2.92-3.16A45.21,45.21,0,0,1,154.4,149ZM128.21,54.66c3.34,3,3.41,3.06,6.59,1.14a34.94,34.94,0,0,0,5-3.7,21.94,21.94,0,0,0,5-6.9c.32-.67,1-1.48.17-2.13s-1.47.12-2.15.43A40.71,40.71,0,0,0,133.9,49,23.57,23.57,0,0,0,128.21,54.66Zm27.3,40.08c.13,1,.16,1.62.31,2.23.46,1.83.83,2.1,2.63,1.85a41.18,41.18,0,0,0,13.2-3.94,43.25,43.25,0,0,0,4.09-2.44,3,3,0,0,0,1.35-2.4c0-.64-.58-1.34-1.12-1.13-.88.34-1.76.72-2.62,1.12a42.14,42.14,0,0,1-12.74,3.82C159,94.05,157.49,94.39,155.51,94.74ZM80.36,42.45a3.54,3.54,0,0,0,1.43-2.08c1.61-5.13,1-10.13-1-15-.62-1.59-1-3.4-2.68-4.38-1.79,1.45-.91,3.48-1.1,5.26a13.92,13.92,0,0,0,.09,3.35C77.72,34,78.31,38.38,80.36,42.45Zm69.31,115.6c-3,3.3-2.95,3.28-.56,6.49,1.12,1.52,2.1,3.16,3.22,4.68a2.87,2.87,0,0,0,3.27,1.31,3,3,0,0,0,1.51-3.21,12.29,12.29,0,0,0-.71-3.22A9.18,9.18,0,0,0,149.67,158.05ZM157.18,40c-.48,1.29.44,2.18.66,3.21.64,3,.7,3,3.47,3.2,1.42.12,2.83.27,4.25.31,1.15,0,2.28-.25,2.65-1.51a3,3,0,0,0-.94-3,6.88,6.88,0,0,0-3.64-2.09C161.49,39.61,159.31,39.2,157.18,40Zm5.95,32.12c-6.07-2.38-10.94-1.27-15.72.84-.55.25-1.13.66-1.06,1.41.17,2.11,2.29,3.67,4,2.73A69.53,69.53,0,0,1,163.13,72.07ZM17.41,142a8.72,8.72,0,0,0-8.47,4.87,1.82,1.82,0,0,0,1.66,2.69A5.86,5.86,0,0,0,15,148c1.66-1.49,3.37-2.92,5.07-4.36.38-.32.8-.7.46-1.14a2,2,0,0,0-1.2-.52A15.2,15.2,0,0,0,17.41,142ZM170.46,71.15c4.51.23,6.72-1.79,8.19-4.77a2.46,2.46,0,0,0-2.3-3.63,5.13,5.13,0,0,0-1.41.1c-1.14.25-2.17.75-2,2.14C173.16,67.18,172.1,68.91,170.46,71.15Zm.14-10.29c.14,0,.34,0,.42,0,.27-.27.17-.47-.26-.47-.13,0-.25.13-.38.2Z"/><path d="M89.74,150.2c8.78,0,17.56,0,26.35,0,5.48,0,6.72,1.28,6.8,6.77,0,2.24.1,4.48-.07,6.71-.25,3.08-1.83,4.52-4.94,4.75-.95.07-1.91,0-2.87,0H63.75a28.73,28.73,0,0,1-3.35-.07,4.4,4.4,0,0,1-4.28-4.35,92.77,92.77,0,0,1,0-9.58c.14-2.52,1.8-4,4.37-4.21,1.11-.1,2.24-.06,3.35-.06Zm-1.47,9.25h-.1c0-1.58,0-3.16,0-4.75a1.44,1.44,0,0,0-1.5-1.49c-.94-.06-1.89,0-2.84,0A1.6,1.6,0,0,0,82,154.92c0,2.54-.08,5.07,0,7.61,0,2.81.25,3,3,3,3,0,3.19-.21,3.28-3.21C88.29,161.36,88.27,160.4,88.27,159.45Zm3-.46h0c0,1.27,0,2.54,0,3.8.09,2.48.36,2.73,2.76,2.72a13.57,13.57,0,0,0,1.43,0A1.48,1.48,0,0,0,97,163.94c0-3.17,0-6.33-.07-9.5a1.35,1.35,0,0,0-.79-1,5.23,5.23,0,0,0-4.13.1c-1.07.63-.64,2-.7,3.09C91.23,157.4,91.27,158.2,91.27,159Zm21.77.46h0c0-1.27,0-2.54,0-3.81-.11-2.2-1.86-3.21-3.94-2.24a1.53,1.53,0,0,0-.8,1c-.07,3.18-.08,6.35-.06,9.53,0,.91.62,1.38,1.52,1.5,2.48.34,3.18-.21,3.29-2.68C113.08,161.68,113,160.56,113,159.45Zm-7.9,0h0c0-1.28,0-2.55,0-3.83a3.2,3.2,0,0,0-.09-.94c-.16-.43-.33-1.07-.65-1.19a4.49,4.49,0,0,0-3.68.05c-.78.4-.69,1.36-.7,2.15,0,2.55,0,5.11,0,7.66,0,1.83.46,2.16,2.33,2.2,2.32.05,2.67-.29,2.76-2.75C105.17,161.64,105.14,160.53,105.14,159.41Zm-26.11,0H79c0-1.6,0-3.2,0-4.79a1.67,1.67,0,0,0-.66-1.19,2.88,2.88,0,0,0-4.42,2.28q-.11,3.58,0,7.19c.07,2.31.57,2.71,2.93,2.63,1.83-.05,2.18-.37,2.26-2.29C79.07,161.93,79,160.65,79,159.38Zm-8.23,0h0c0-1.28,0-2.56,0-3.84-.1-2.14-2-3.14-4-2.15a1.51,1.51,0,0,0-.79,1.05c-.07,3.2-.07,6.39,0,9.58,0,1,.72,1.33,1.6,1.43,2.52.31,3.18-.22,3.29-2.71C70.84,161.64,70.8,160.52,70.8,159.4Zm-8-.11h0c0-1.59,0-3.18,0-4.77a1.18,1.18,0,0,0-1.12-1.26,2,2,0,0,0-2.11.74,2.76,2.76,0,0,0-.46,1.31q-.06,4,0,8.1a2.42,2.42,0,0,0,.51,1.28,2.1,2.1,0,0,0,2.13.7c.8-.1,1-.7,1-1.34C62.81,162.46,62.78,160.88,62.78,159.29Zm57,0H120c-.12-1.59-.15-3.19-.38-4.76-.13-.87-.9-1.26-1.79-1.29s-1.6.37-1.62,1.32c-.07,3-.1,6.07-.07,9.1,0,.8.26,1.58,1.26,1.74a2,2,0,0,0,2.35-1.8C119.84,162.18,119.76,160.73,119.76,159.3Z"/><path d="M89.24,85.78c12.61-.54,25.93,9.7,26.15,25.6A25.63,25.63,0,0,1,89.7,137.51c-16.54.12-26.1-13.52-26.16-25.67C63.47,97.12,75.75,85.48,89.24,85.78Zm.23,2.93a23,23,0,0,0-23,22.77c-.14,10.88,8.38,23.17,23.2,23a22.91,22.91,0,0,0-.24-45.81Z"/><path d="M114.88,148.4,104.57,147c-3.32-.47-6.66-.84-9.95-1.48-4.48-.89-8.86-.37-13.29.38-6.14,1-12.31,1.89-18.46,2.84a4.17,4.17,0,0,1-2.35,0,2.29,2.29,0,0,1-1.6-2.15,1.94,1.94,0,0,1,1.13-2,10.9,10.9,0,0,1,2.72-.86q12.3-2,24.62-3.79a11.61,11.61,0,0,1,3.33,0c8.07,1.13,16.13,2.31,24.19,3.49a12.14,12.14,0,0,1,2.32.5,2.4,2.4,0,0,1,1.31,2.79,2.15,2.15,0,0,1-2.08,1.65C116,148.43,115.5,148.4,114.88,148.4Z"/><path d="M88.82,126.59a15,15,0,0,1-14.41-15.87A15.06,15.06,0,0,1,104.49,112,14.92,14.92,0,0,1,88.82,126.59Zm4.63-14.75a3.92,3.92,0,0,0-3.64-4.2,3.84,3.84,0,0,0-4.26,3.53,4,4,0,0,0,3.84,4.48A4,4,0,0,0,93.45,111.84Z"/></g></g></svg>