<svg xmlns="http://www.w3.org/2000/svg" viewBox="0 0 237.6 235.89"><title>Character  3</title><g id="Layer_2" data-name="Layer 2"><g id="Character_3" data-name="Character  3"><path d="M171,235.45c-4.1.6-101,.59-105,0-.36-1.69.61-3.08,1.15-4.53q10-27,20.06-53.93c1.9-5.09,3.81-10.18,5.67-15.28,1-2.76,1-2.84-1.58-4a71.4,71.4,0,0,1-17.13-10.46,70.14,70.14,0,0,1-20.81-28.87,16.07,16.07,0,0,1-.81-2.26,2.64,2.64,0,0,0-3.06-2.3,25.8,25.8,0,0,1-6.67-.61,15.41,15.41,0,0,1-5.66-2.49,9.84,9.84,0,0,1-4.57-8q-.14-8.39,0-16.79a9.75,9.75,0,0,1,4.6-8,9.33,9.33,0,0,1,3.37-1.76c3.13-.56,4.3-2.43,5.14-5.35A72.52,72.52,0,0,1,59.87,44.36c.62-.74,1.26-1.46,1.84-2.22a1.23,1.23,0,0,0-.33-2,5.41,5.41,0,0,1-.75-.59c-1.94-1.72-3-3.82-2.22-6.41.48-1.64-.43-2.45-1.56-3.07a8,8,0,0,0-6-.87,16.45,16.45,0,0,0-8.76,5.56,26.55,26.55,0,0,0-6.37,15.72A132.15,132.15,0,0,1,34,65.71,64.8,64.8,0,0,1,28.28,83a33.36,33.36,0,0,1-6.15,8.52A18.85,18.85,0,0,1,0,94.62C.26,93.34,1.46,93,2.35,92.5c4.86-3,6.82-7.31,6.71-12.91a80.84,80.84,0,0,0-2.56-17A83.17,83.17,0,0,1,4.14,38.77,45.6,45.6,0,0,1,7.22,24.29C13,9.74,24,2.14,39.42.83,52.8-.31,62.52,5.62,69.08,17.1a24.67,24.67,0,0,1,1.29,2.57,2.71,2.71,0,0,0,2.5,1.89c2.88.2,4.65,1.87,5.74,4.42a8.55,8.55,0,0,0,.86,1.25q39.42-21.33,78.68.14c.92-.62.84-1.69,1.24-2.52,1.06-2.15,2.61-3.74,5.06-3.89,1.72-.11,2.46-1,3.18-2.37a45.2,45.2,0,0,1,4-6.55C178.68,2.7,188.16-1.12,199.77.28a43.15,43.15,0,0,1,5.65,1c15.21,4,23.82,14.21,27.15,29.19,2,9.05,1.4,18.13-.4,27.15q-1.41,7-2.84,14.1a41.33,41.33,0,0,0-.56,8.6,12.5,12.5,0,0,0,5.86,10.92c.8.53,1.59,1.08,2.38,1.62.42.28.74.65.52,1.17a1.29,1.29,0,0,1-.64.62,20.87,20.87,0,0,1-2.29.71c-7.79,1.92-14.56.27-20.09-5.74a36.25,36.25,0,0,1-6.72-11,73.06,73.06,0,0,1-4.92-20c-.34-3.18-.55-6.37-.86-9.55a26.7,26.7,0,0,0-5.23-13.72A17.57,17.57,0,0,0,189,29.19c-3-1.12-5.93-1.38-8.69.59-.65.46-1.36,1.06-1.1,1.95,1.21,4.19-.93,6.68-4.25,8.61-.11.07-.16.23-.33.49.56.7,1.13,1.46,1.74,2.18A75.13,75.13,0,0,1,192,71.88c.62,2.18,1.37,3.74,3.78,4.34a10.86,10.86,0,0,1,3.73,2.08,9.94,9.94,0,0,1,4.23,8.21c0,5.12,0,10.24,0,15.36,0,4.06-1.89,7-5.12,9.21a17.78,17.78,0,0,1-8.12,2.68,31.17,31.17,0,0,1-3.35.13,2.18,2.18,0,0,0-2.12,1.62c-.28.74-.52,1.51-.81,2.25-7.14,18.32-19.61,31.59-37.56,39.68-.73.32-1.47.62-2.19,1a1.5,1.5,0,0,0-.89,2c.4,1.21.89,2.39,1.33,3.59q12.38,33.26,24.73,66.52C170.28,232.08,171.26,233.61,171,235.45ZM51.79,93.22a85.87,85.87,0,0,0,1.11,12.35A66.95,66.95,0,0,0,184.77,82.42a10.47,10.47,0,0,0-4.14-7.13q-29-22.49-57.78-45.19c-1-.79-2-1.57-3-2.35a1.72,1.72,0,0,0-2.2,0c-.92.63-1.8,1.33-2.68,2L95.23,45Q75.91,60,56.55,74.93a8.74,8.74,0,0,0-3.65,5.85A103.21,103.21,0,0,0,51.79,93.22ZM118.5,232.9h44.11c4.71,0,4.74,0,3.14-4.36q-12-32.32-24.08-64.65c-.28-.75-.58-1.49-.85-2.24a1.66,1.66,0,0,0-2.19-1.24c-.77.2-1.54.44-2.31.64a71.56,71.56,0,0,1-30.89,1c-2.19-.41-4.33-1.06-6.51-1.58-1.78-.43-2.09-.26-2.86,1.53-.19.44-.38.88-.54,1.33Q83.4,195.85,71.3,228.4c-1.65,4.44-1.61,4.49,3.09,4.5ZM61.25,29.23a8.85,8.85,0,0,0,1-.59c1.24-1,2.48-2,3.68-3.07,2.92-2.54,2.94-2.08,1-5.95a30.49,30.49,0,0,0-6.83-9.18,24.82,24.82,0,0,0-11.28-6C34.59,1,18.79,8.2,11.87,21.28a43.88,43.88,0,0,0-4.8,18.4A79,79,0,0,0,9.47,62C11,68.39,12.25,74.82,12,81.44a15.4,15.4,0,0,1-3.79,10.1c-.52.57-1.21,1.08-.86,2.17,5.11.76,9.32-1.18,13-4.65a31.05,31.05,0,0,0,6.92-10.84,71.57,71.57,0,0,0,4.89-20.43c.32-3.18.44-6.39.9-9.55,1.11-7.74,4.37-14.36,10.82-19.06,5.86-4.28,10.6-4.27,16.76-.25C60.69,29,60.85,29.05,61.25,29.23ZM230.79,92.81a14.1,14.1,0,0,0-1-1.67,16,16,0,0,1-4-11.47,51.87,51.87,0,0,1,.78-9.55c1.3-6.58,2.78-13.14,3.69-19.77,1.29-9.32.64-18.52-3.19-27.28a31.68,31.68,0,0,0-19-17.86A37.28,37.28,0,0,0,195.89,3a25.45,25.45,0,0,0-19.4,7.9,29.53,29.53,0,0,0-5.1,6.93c-2.77,5.38-2.66,4.31,1.29,7.82.71.64,1.44,1.27,2.19,1.86,1.54,1.22,1.62,1.31,3.29.12,4.46-3.17,9-2.73,13.59-.47A20.34,20.34,0,0,1,198.67,33a29.43,29.43,0,0,1,6.24,15.33c.34,3.17.51,6.37.86,9.55a68.68,68.68,0,0,0,5.69,21.69A28.37,28.37,0,0,0,218,88.88C221.51,92,225.48,93.74,230.79,92.81ZM189.15,74.4a3.4,3.4,0,0,0-.22-2.41C179,38.37,145,14.13,106.66,20.8,78.87,25.63,60.07,42,49.73,68.11a48.1,48.1,0,0,0-1.54,5c-.31,1.15.24,1.54,1.55,1.69,2.19.24,3.56-1.16,5.06-2.32q29.78-23.05,59.53-46.13l3-2.34A1.94,1.94,0,0,1,120,24l4.15,3.25Q153.22,50,182.27,72.84C184.43,74.55,186.53,75.55,189.15,74.4ZM46.46,77.89A14.39,14.39,0,0,0,39,80.34a7.17,7.17,0,0,0-3.42,6q0,8.15,0,16.3a6.48,6.48,0,0,0,2.47,5c3.24,2.8,7.11,3.42,11.22,3.09a1.21,1.21,0,0,0,1.08-1.35A21.38,21.38,0,0,0,50,106.5,64.72,64.72,0,0,1,49.12,87c.28-2.38.64-4.74.94-7.12.16-1.22-.33-1.87-1.46-2C48.12,77.86,47.64,77.89,46.46,77.89ZM200.8,94.38c0-2.39,0-4.79,0-7.18.07-3.39-1.59-5.74-4.38-7.41A13.37,13.37,0,0,0,192,78.22c-4.5-.8-5-.48-4.25,3.83a68.5,68.5,0,0,1-.58,25.65c-.66,3.07.38,3.31,2.88,3a15,15,0,0,0,6.38-1.81c2.79-1.68,4.49-4,4.43-7.39C200.77,99.16,200.8,96.77,200.8,94.38ZM176.55,33.8a4.42,4.42,0,0,0-.81-1.45c-3.12-2.73-6.25-5.44-9.45-8.07-1-.82-2.4-.42-3.41.69s-1.36,2.63-.46,3.44c3.18,2.89,6.45,5.68,9.74,8.44a2.25,2.25,0,0,0,2.7-.05A3.74,3.74,0,0,0,176.55,33.8ZM64.61,37.93a4,4,0,0,0,1.12-.5c3.16-2.66,6.33-5.31,9.41-8.07,1-.93.89-2.27,0-3.46s-2.58-1.76-3.77-.8c-3.21,2.6-6.33,5.31-9.42,8a2.11,2.11,0,0,0-.37,2.64A3.58,3.58,0,0,0,64.61,37.93Z"/><path d="M118.81,109.28A25.74,25.74,0,0,1,93.23,87.76c-.26-1.73-.38-3.49-.52-5.23-.09-1.11-.58-1.79-1.73-1.88s-1.52-.91-1.41-2a25,25,0,0,1,2.57-8.19,29.63,29.63,0,0,1,55.76,7.78c.3,1.52.2,1.92-1.48,2.28a2,2,0,0,0-1.84,2.29c0,.8,0,1.6-.06,2.4A25.69,25.69,0,0,1,118.81,109.28Zm.07-31.63H140c1.12,0,2.24,0,3.35-.11.77-.08,1-.69.88-1.38a11.93,11.93,0,0,0-.53-1.83A26.27,26.27,0,0,0,111.92,57.8c-9.3,2.4-15.53,8.54-18.54,17.76-.5,1.51-.08,2.08,1.53,2.08C102.9,77.67,110.89,77.65,118.88,77.65Zm-19,3.07v0c-.64,0-1.28,0-1.92,0-1.44.09-2,.63-2.13,2a11.39,11.39,0,0,0,0,1.43,22.95,22.95,0,0,0,45.28,4.52,21.4,21.4,0,0,0,.46-6.18c0-.66-.23-1.44-.86-1.58-2-.45-4.21-.74-6.09.1-1.51.68-.56,2.6-.85,3.94,0,.16,0,.32,0,.48A15.1,15.1,0,0,1,118.4,98.48,14.92,14.92,0,0,1,103.84,85.2c-.1-1-.07-1.92-.14-2.87a1.51,1.51,0,0,0-1.44-1.59C101.47,80.67,100.67,80.72,99.88,80.72Zm18.77-.06h-1c-2.71.14-3.85,2.3-2.45,4.66a4.1,4.1,0,0,0,5.41,1.58,4,4,0,0,0,1.92-4.48c-.29-1.26-1-1.7-3-1.76Z"/><path d="M118.48,140.17c-8.78,0-17.57-.1-26.35,0-4.47.06-7.06-.79-6.84-6.72.09-2.4-.06-4.8.13-7.18.21-2.63,1.66-4,4.28-4.35a26.68,26.68,0,0,1,3.35-.08h51.27a24.27,24.27,0,0,1,3.82.15,4.28,4.28,0,0,1,3.84,4.24c.14,3.19.15,6.39,0,9.58-.12,2.62-1.59,4-4.27,4.24-1.27.12-2.55.07-3.83.08Zm-1-8.85h0c0-1.59,0-3.17,0-4.75A1.51,1.51,0,0,0,116,125a24.3,24.3,0,0,0-2.83,0,1.48,1.48,0,0,0-1.62,1.39c-.08,3.16-.06,6.31,0,9.47a1.45,1.45,0,0,0,.69,1.12c1.54.36,3.21.64,4.61-.16,1.08-.62.59-2,.66-3.08C117.51,132.9,117.46,132.11,117.46,131.32Zm3-.35h0c0,1.28,0,2.56,0,3.83.06,1.93.4,2.27,2.17,2.36,3.25.17,3.51,0,3.56-3.35,0-2.23,0-4.47,0-6.7-.06-1.78-.52-2.16-2.37-2.21-.48,0-1,0-1.43,0-1.08.08-1.84.56-1.87,1.73C120.44,128.1,120.47,129.53,120.47,131Zm14,.3h-.09c0-1.6.05-3.2,0-4.79a1.54,1.54,0,0,0-1.56-1.5,9.4,9.4,0,0,0-2.37.08,1.34,1.34,0,0,0-1.2,1.29c0,3.19,0,6.38,0,9.57a1.42,1.42,0,0,0,.82,1c2.72,1,4.3,0,4.37-2.79C134.53,133.18,134.51,132.22,134.51,131.27Zm3-.35h0v2.84c0,.31,0,.63,0,.94.1,2.24.59,2.61,2.94,2.45,1.09-.07,1.82-.5,1.83-1.66,0-3,0-6,0-9a1.51,1.51,0,0,0-1.49-1.53c-2.41-.21-3.3,0-3.27,2.63C137.52,128.71,137.5,129.81,137.5,130.92Zm-37.4.44c0-1.27-.06-2.54,0-3.8.15-2.71-1.51-2.93-3.83-2.47a1.36,1.36,0,0,0-.85,1c-.09,3.31-.11,6.63-.07,9.94,0,.67.58,1.06,1.28,1.11,2.94.19,3.51,0,3.46-2.9C100.09,133.26,100.1,132.31,100.1,131.36Zm8.11-.27h0c0-1.42.07-2.85,0-4.27s-.76-2-2.62-1.92-2.38.46-2.42,2.13q-.1,4,0,8.07c0,1.71.48,2,2.41,2.07,2.14.05,2.6-.32,2.69-2.28C108.25,133.62,108.21,132.36,108.21,131.09Zm37.12,0h.06c0,1.59,0,3.19,0,4.78a1.24,1.24,0,0,0,1.19,1.24c1,.15,2.19-.37,2.29-1.21a42.86,42.86,0,0,0,0-9.54c-.08-.81-1.33-1.47-2.26-1.3a1.55,1.55,0,0,0-1.3,1.72C145.31,128.18,145.33,129.62,145.33,131.06Zm-53.22,0h.06c0-1.43,0-2.87,0-4.3A1.65,1.65,0,0,0,90.77,125a1.88,1.88,0,0,0-2.2,1.36,40,40,0,0,0,.06,9.53c.12.9.93,1.18,1.8,1.18s1.61-.37,1.66-1.31C92.17,134.2,92.11,132.61,92.11,131Z"/></g></g></svg>