<svg xmlns="http://www.w3.org/2000/svg" viewBox="0 0 176.05 260.95"><title>Character  5</title><g id="Layer_2" data-name="Layer 2"><g id="Character_5" data-name="Character  5"><path d="M141.1,260.5c-3.93.58-100.92.6-105.07.05-.39-1.88.7-3.42,1.29-5,8-21.72,16.18-43.42,24.24-65.15.75-2,2-4,1.8-6.32l-5.51-2.8A69.79,69.79,0,0,1,23.56,144c-.18-.45-.37-.89-.52-1.34-1.4-4.26-1.31-3.7-5.43-3.72a18.38,18.38,0,0,1-8.35-1.83c-4.36-2.19-6.87-5.55-6.76-10.65.1-4.48,0-9,0-13.43,0-6.7,3.59-11.08,10.25-12.44a67,67,0,0,1,6.67-.71c1-.1,1.35-.87.72-1.62-.92-1.11-1.87-2.18-2.85-3.24C12.14,89.36,6.93,83.72,1.79,78c-.86-1-2.61-1.89-1.34-3.54,1-1.34,2.38-.24,3.52.1,6.73,2,13.45,4.1,20.17,6.16,1.07.33,2.14.62,3.21,1a1.68,1.68,0,0,0,2.11-.59,86.63,86.63,0,0,1,8.91-11.28,2.08,2.08,0,0,0,.4-2.24c-.37-1-.8-2.08-1.21-3.13Q32,49.93,26.36,35.38c-.46-1.19-.9-2.39-1.31-3.6a1.49,1.49,0,0,1,.56-1.7,1.26,1.26,0,0,1,1.73.11c.94.86,1.85,1.77,2.72,2.7q10.25,10.78,20.46,21.6c3.68,3.89,2.85,3.39,7.12,1.29A66,66,0,0,1,76.71,49.6l1.42-.26a2.44,2.44,0,0,0,2.2-2.15c.51-3,1.16-6,1.7-8.95,2-11.16,4-22.34,6.15-33.48.32-1.65-.25-4,2.27-4.76,2.14,1.08,1.7,3.31,2,5.05,2.36,13.53,4.57,27.1,6.82,40.66.11.63.2,1.27.27,1.9.16,1.31.95,1.85,2.2,2.13a81.68,81.68,0,0,1,8.35,2.13c3.32,1.14,6.52,2.6,9.77,4,2,.84,2.12.89,3.72-.75,2.78-2.87,5.51-5.79,8.26-8.7,4.62-4.87,9.22-9.77,13.86-14.63a16.3,16.3,0,0,1,2.52-2.17,1.46,1.46,0,0,1,1.32.14,1.42,1.42,0,0,1,.58,1.18,29,29,0,0,1-1.18,3.63q-5.25,13.65-10.53,27.29c-.4,1-.79,2.09-1.24,3.12a3.15,3.15,0,0,0,.75,3.89c2,2,3.9,4.23,5.74,6.44,1.22,1.47,2.32,3.06,3.39,4.65a2.19,2.19,0,0,0,2.82,1c3-1,6.11-1.89,9.16-2.83,4.12-1.28,8.23-2.57,12.36-3.82a20.13,20.13,0,0,1,3.26-.7,1.53,1.53,0,0,1,1.21.57,1.45,1.45,0,0,1,0,1.34,27.42,27.42,0,0,1-2.41,3q-7.26,8-14.57,15.94L157,96.54c-.67.73-1.27,1.52-.8,2.55.4.86,1.28.8,2.06.88,1.59.16,3.18.31,4.77.52a13.31,13.31,0,0,1,5.33,2.05c3.34,2.09,5.34,5,5.36,9,0,5.28,0,10.56,0,15.84,0,3.85-1.89,6.68-5,8.75a17,17,0,0,1-8.59,2.72c-1.11.06-2.23.06-3.35.14a1.55,1.55,0,0,0-1.45,1.05c-.33.9-.66,1.8-1,2.69q-10.61,27.54-37.48,39.73c-.58.26-1.18.48-1.76.76-1.47.71-1.71,1.15-1.25,2.59s1,2.71,1.46,4.06q12.23,32.79,24.43,65.59C140.27,257.13,141.15,258.69,141.1,260.5ZM90,60.08H84.21c-5.88,0-5.88,0-5.14-5.65.2-1.52-.29-2.1-1.86-1.85a60.54,60.54,0,0,0-19.84,6.77c-.62.33-1.07.86-.69,1.52,1,1.74,0,2.64-1.32,3.49-3.77,2.4-7.51,4.85-11.29,7.25-.66.42-1.48,1-2.14,1-2.21-.3-3.15,1.25-4.25,2.58C24.16,91.54,19,110.3,23,131.14c7.5,39.45,47.86,63.26,86.08,51.11a66.88,66.88,0,0,0,44.88-78.86,64.72,64.72,0,0,0-16.59-30.87c-.88-.92-1.7-2-3.18-.82a1.91,1.91,0,0,1-2.26-.09Q125.45,67.49,119,63.3a1.74,1.74,0,0,1-.48-2.84c.76-1,.4-1.71-.68-2.23a67.63,67.63,0,0,0-13.49-4.85c-3.55-.88-4.35-.91-3.3,3.23a5.05,5.05,0,0,1,.13,1c.13,1.6-.51,2.46-2.13,2.5C96,60.13,93,60.08,90,60.08ZM88.42,258h42.66c1.28,0,2.56,0,3.84,0,1.87-.07,2.17-.53,1.55-2.39-.35-1.06-.78-2.09-1.17-3.14q-6.09-16.38-12.17-32.77-6-16.15-12.09-32.3c-.8-2.13-.9-2.18-3.14-1.57a74.92,74.92,0,0,1-26.12,2.25,80.2,80.2,0,0,1-12.69-2.39c-2.16-.55-2.28-.48-3.15,1.64-.3.74-.58,1.49-.86,2.24q-11.76,31.65-23.53,63.3c-.44,1.19-.89,2.39-1.28,3.6-.3.95.09,1.45,1.18,1.49,1.44.05,2.87.06,4.31.06ZM5.49,119.43c0,2.4,0,4.8,0,7.2-.07,3.62,1.79,6,4.84,7.63A16,16,0,0,0,18.2,136c2.25,0,2.63-.4,2.16-2.53a67.54,67.54,0,0,1-1.5-18.59c.16-2.87.58-5.72.95-8.57.32-2.54.72-3.33-2.95-3.18a14.43,14.43,0,0,0-6.9,1.74c-2.81,1.67-4.54,4-4.48,7.39C5.52,114.63,5.49,117,5.49,119.43ZM90.66,12.76,90,12.7c-.32,1.22-.72,2.43-1,3.66q-2.41,12.95-4.76,25.9c-.74,4.09-1.49,8.17-2.15,12.27C81.83,56.38,82.31,57,84,57q5.76.12,11.5.08c1.83,0,2.27-.57,2.13-2.33-.08-1-.2-1.91-.35-2.86q-1.87-11.34-3.77-22.67C92.58,23.75,91.61,18.26,90.66,12.76Zm80,107h0c0-2.54,0-5.09,0-7.63.09-3.43-1.66-5.7-4.45-7.34a13.65,13.65,0,0,0-6.88-1.68c-1.85,0-2.31.66-2,2.29a68.61,68.61,0,0,1-.1,26.56c-.77,3.81-.61,4.38,3.86,3.79a13.41,13.41,0,0,0,5.4-1.81c2.6-1.62,4.22-3.79,4.16-7C170.66,124.56,170.7,122.17,170.7,119.78ZM31.92,39.24a3.41,3.41,0,0,0,.29,2.94Q36.71,54,41.28,65.8a15.53,15.53,0,0,0,1,2.14.86.86,0,0,0,1.23.33,63.11,63.11,0,0,0,9.72-6.5Zm90.34,22.4a67.91,67.91,0,0,0,9.92,6.41c2.21-3.58,10.36-24.72,11.06-28.65a4.7,4.7,0,0,0-1.19.64q-9.59,10.07-19.12,20.18A5.73,5.73,0,0,0,122.26,61.64ZM22.45,95.44c1.29-3.17,2.57-6.24,3.78-9.33a1.28,1.28,0,0,0-1-1.81c-5.49-1.67-11-3.35-16.48-5-.26-.07-.6.12-.9.19C9.76,82.56,19.08,92.79,22.45,95.44ZM168.32,78.91a2.21,2.21,0,0,0-1.83,0l-14.12,4.4a7.89,7.89,0,0,0-1.33.5,1.16,1.16,0,0,0-.64,1.57c1.31,2.87,2.68,5.71,4,8.6C157.62,91.68,166.36,82.14,168.32,78.91Z"/><path d="M62.85,107.06c.11-1.19.15-2.15.29-3.1a2,2,0,0,0-1.49-2.52c-1.33-.42-1.46-1.49-1-2.71C64.4,87.86,71.94,80.9,83.16,78.81c16-3,27.18,6.06,32,15.76a31.38,31.38,0,0,1,1.61,4c.45,1.32.35,2.52-1.18,3.17-1.25.52-1.48,1.47-1.24,2.73a23.87,23.87,0,0,1-.88,11.83,25.9,25.9,0,0,1-50.6-7.55C62.86,108.1,62.85,107.47,62.85,107.06Zm1.26-8.56c3.4,1.26,6.64,1.11,9.78,1.53,8.68,1.17,17.38,2.22,26.08,3.27a6.76,6.76,0,0,0,2.84-.09c3.59-1.24,7.13-2.62,10.64-3.92-1.68-8.93-12.48-17.65-23.1-18C78.35,80.86,68.16,87.34,64.11,98.5Zm46.36,5.22c-1.62.57-3.26,1.17-4.92,1.71a2.3,2.3,0,0,0-1.79,2.47,16.15,16.15,0,0,1-1,6.1,15.08,15.08,0,0,1-29-7.38c.35-3.56.29-3.64-3.19-4-.8-.08-1.59-.11-2.39-.14-1.17,0-1.71.67-2,1.68a13.94,13.94,0,0,0-.26,1.41,23,23,0,1,0,45.78,3.24C111.78,107.09,111.9,105.28,110.47,103.72Zm-22.55,1.1a3.45,3.45,0,0,0-3.16,3.55A3.89,3.89,0,0,0,89,112.46a4,4,0,0,0,3.71-4.17C92.63,106,90.91,104.74,87.92,104.82Z"/><path d="M88.39,147c8.78,0,17.55,0,26.33,0,6.23,0,7.28,1.09,7.32,7.19,0,2.24.09,4.48-.08,6.7-.21,2.73-1.5,4-4.25,4.3a32.61,32.61,0,0,1-3.83.12q-25.14,0-50.27,0a31.66,31.66,0,0,1-4.77-.29,3.68,3.68,0,0,1-3.36-3.53c-.2-3.49-.18-7,0-10.52a3.82,3.82,0,0,1,3.29-3.63A20.92,20.92,0,0,1,63,147C71.47,147,79.93,147,88.39,147Zm-7.12,9.11h0c0,1.26,0,2.53,0,3.79.07,1.88.44,2.25,2.16,2.36,3.65.23,4-.1,4.07-3.84,0-2.05,0-4.11,0-6.16-.06-1.5-.59-2-2-2.13a20.82,20.82,0,0,0-2.37,0,1.65,1.65,0,0,0-1.82,1.72C81.25,153.29,81.27,154.71,81.27,156.13Zm15,.41h-.1c0-1.6,0-3.19,0-4.79a1.62,1.62,0,0,0-1.53-1.55,10.25,10.25,0,0,0-1.92-.07c-1.5.05-2.1.53-2.14,1.93-.06,2.56-.08,5.12,0,7.68,0,2.17.44,2.52,2.48,2.55,2.7,0,3.14-.34,3.23-2.87C96.29,158.46,96.26,157.5,96.26,156.54Zm8.07-.29h0c0-1.43,0-2.87,0-4.3a1.65,1.65,0,0,0-1.76-1.79c-.48,0-1,0-1.44,0-1.11,0-1.81.58-1.82,1.73q0,4.53.07,9.08a1.22,1.22,0,0,0,1.21,1.21c.63.06,1.27.08,1.91.08a1.61,1.61,0,0,0,1.83-1.7C104.36,159.12,104.33,157.68,104.33,156.25Zm8.08,0h-.14c0-1.43.07-2.87,0-4.29s-.71-1.78-2.28-1.8c-1.81,0-2.55.48-2.6,2-.08,2.54-.08,5.1,0,7.64.05,2.14,2,3.2,4,2.26a1.59,1.59,0,0,0,.8-1.05C112.31,159.42,112.34,157.82,112.41,156.24Zm-34.16-.05h0c0-1.11,0-2.23,0-3.34-.09-2.37-.81-2.93-3.32-2.7a1.71,1.71,0,0,0-1.79,1.8c0,2.86,0,5.73,0,8.59A1.64,1.64,0,0,0,75,162.25a13.62,13.62,0,0,0,1.43,0,1.66,1.66,0,0,0,1.81-1.75C78.27,159.06,78.25,157.63,78.25,156.19Zm-8.08,0h-.1c0-1.27.05-2.55,0-3.82-.09-1.75-.64-2.25-2.33-2.26-2,0-2.56.5-2.61,2.5q-.1,3.59,0,7.16c0,2.13,2,3.2,4,2.25a1.6,1.6,0,0,0,.79-1.06C70.07,159.41,70.1,157.81,70.17,156.22Zm-8.1.28h0c0-1.74.06-3.49,0-5.23,0-.69-.7-1-1.38-1a1.93,1.93,0,0,0-2.25,1.9c-.08,2.69,0,5.39,0,8.09a2.75,2.75,0,0,0,.22.92,2.16,2.16,0,0,0,2.45,1,1.26,1.26,0,0,0,1.06-1.34C62.1,159.36,62.07,157.93,62.07,156.5Zm53.38-.51h0c0,1.58-.06,3.17,0,4.75a1.69,1.69,0,0,0,2.47,1.26,1.79,1.79,0,0,0,1-1.5c0-2.85,0-5.7,0-8.56a1.53,1.53,0,0,0-.13-.45,1.75,1.75,0,0,0-1.82-1.21,1.41,1.41,0,0,0-1.53,1.43C115.4,153.14,115.45,154.56,115.45,156Z"/></g></g></svg>