<svg xmlns="http://www.w3.org/2000/svg" viewBox="0 0 235.57 276.52"><title>Character  7</title><g id="Layer_2" data-name="Layer 2"><g id="Character_7" data-name="Character  7"><path d="M173.69,81.07a6.51,6.51,0,0,0,1.95,3,74.2,74.2,0,0,1,15.28,28.52c.61,2.21,1.51,3.68,3.84,4.29a10.81,10.81,0,0,1,4.82,3,9.08,9.08,0,0,1,3,6.36q.06,8.64,0,17.27c0,3.11-1.59,5.47-3.91,7.39a16.86,16.86,0,0,1-9.29,3.49,27.43,27.43,0,0,1-2.87.07,2.21,2.21,0,0,0-2.52,1.69,21,21,0,0,1-.81,2.26q-10.6,27.22-37.14,39.48c-.87.4-1.78.74-2.64,1.16a1.43,1.43,0,0,0-.83,1.94c.6,1.66,1.17,3.32,1.79,5q12.14,32.58,24.27,65.17c.59,1.6,1.68,3.14,1.25,5-4.49.56-101.31.49-105-.08-.3-1.86.72-3.39,1.32-5q12.18-32.82,24.4-65.63c.7-1.89,2.41-3.88,1.46-5.81-.82-1.65-3.25-1.8-5-2.65A70,70,0,0,1,52.8,160.34c-.37-.89-.72-1.78-1-2.69-1.14-3.41-1.38-3.23-4.36-3.2a24.27,24.27,0,0,1-6.18-.7,14.44,14.44,0,0,1-5.18-2.4,10.07,10.07,0,0,1-4.56-8.52c.05-5.12.08-10.24,0-15.36-.07-4.3,2-7.29,5.46-9.47a6,6,0,0,1,2.13-1.06c3.52-.52,4.83-2.78,5.73-6A71.65,71.65,0,0,1,58.49,85.31l2.61-3.26c-.2-.45-.25-.84-.47-1-2.64-1.78-3.93-4.15-3.27-7.37a2.66,2.66,0,0,0-1.7-3.08,8.22,8.22,0,0,0-5.56-.87,16,16,0,0,0-8.87,5.37c-4.46,5-6.46,10.94-6.77,17.54a93,93,0,0,1-2.92,19.41,53.87,53.87,0,0,1-4.86,12.48,28.17,28.17,0,0,1-6.83,8.58c-5.56,4.51-11.77,5.42-18.5,3.24-1.57-.51-1.8-1.83-.54-2.88.85-.72,1.8-1.34,2.66-2a11.49,11.49,0,0,0,4.29-8.27c.49-5.65-.4-11.17-1.59-16.65a153.14,153.14,0,0,1-2.95-16A55.07,55.07,0,0,1,5.77,65.87c7.12-20,25.17-25.75,39.67-24.35A32,32,0,0,1,54.28,44c1.2-2.68.61-4.64-1.47-6.42-2.56-2.18-5-4.52-7.44-6.8C44.54,30,43.7,29.3,43,28.47c-1-1-.65-2.25.66-2.55s2.82-.56,4.25-.73c3.33-.39,6.67-.82,10-1.05A6.6,6.6,0,0,0,62.47,22,26.45,26.45,0,0,1,83.7,13.81a4.67,4.67,0,0,0,4.18-1.73C90.61,9,93.43,5.88,96.22,2.8A31.07,31.07,0,0,1,98.56.41a1.57,1.57,0,0,1,2.61.85,34.7,34.7,0,0,1,.3,3.82c.14,4.47.23,9,.4,13.43.07,2,.74,2.37,2.28,1.3a66.19,66.19,0,0,1,16.77-8.13,77,77,0,0,1,26.9-4,35.88,35.88,0,0,1,19,5.87,39.29,39.29,0,0,1,17.47,24.86c.14.62.22,1.26.41,1.87a1.52,1.52,0,0,0,1.78,1.2c.79-.11,1.6-.17,2.37-.34,5.14-1.18,10.23-.51,15.21.74,14.82,3.7,23.54,13.48,27.15,28,2,8.19,1.84,16.51.49,24.78-.75,4.57-1.88,9.08-2.73,13.63-.53,2.83-.94,5.68-1.27,8.54a22.11,22.11,0,0,0,.24,6.69,12,12,0,0,0,4.61,7.6c.89.68,1.79,1.34,2.63,2.07a1.34,1.34,0,0,1-.19,2.07,6.75,6.75,0,0,1-1.73.79c-7,1.63-13.34.46-18.68-4.64a31.69,31.69,0,0,1-6.38-8.93,66.06,66.06,0,0,1-5.72-18.24,87.68,87.68,0,0,1-1.21-11A34.07,34.07,0,0,0,199.4,83a23.22,23.22,0,0,0-8.74-11.73A11.71,11.71,0,0,0,183,69a6.6,6.6,0,0,0-3.56,1.27c-.66.5-1.33,1.08-1.15,1.95C179.16,76.48,177.31,79.31,173.69,81.07Zm-61.9-8.82a13,13,0,0,0-1.43.84Q82.49,94.66,54.6,116.22a7.3,7.3,0,0,0-2.72,4.84,67,67,0,1,0,131.66,1.3,9.37,9.37,0,0,0-3.79-6.26q-26.87-20.94-53.63-42c-.85-.66-1.61-1.57-2.84-1.57a3.81,3.81,0,0,0-.14.93c.13,1,1.07,2.17,0,3.11-.93.79-2.15.43-3.24.26a11.57,11.57,0,0,1-4.82-2C114,74.11,113.06,73.26,111.79,72.25Zm54,200.81a13.84,13.84,0,0,0-1.29-4.5l-23.55-63.3c-.39-1-.78-2.09-1.21-3.12a1.66,1.66,0,0,0-2.27-1.1,66.27,66.27,0,0,1-15,2.66,70,70,0,0,1-23.72-2.4c-2.79-.83-3.11-.43-4.08,2.26-2.23,6.15-4.57,12.27-6.85,18.4Q79,245.3,70.34,268.64c-.53,1.43-1.62,2.83-1,4.54C74,273.73,161.87,273.65,165.74,273.06Zm63.53-139.62c.3-1-.26-1.4-.68-1.85-2.87-3.12-3.9-6.93-4-11a53.51,53.51,0,0,1,.4-6.69,123.08,123.08,0,0,1,2.75-14.6,72.06,72.06,0,0,0,1.61-21.91,40.14,40.14,0,0,0-3.31-13.44C220.66,51.69,211,45.35,197.9,43.82,182.45,42,173,51.57,168.71,61.66a2,2,0,0,0,.53,2.55c1.58,1.35,3.19,2.68,4.74,4.05a2,2,0,0,0,3,.11c4.7-3.55,9.56-2.94,14.37-.25a23.59,23.59,0,0,1,9.29,10.09,33.43,33.43,0,0,1,3.6,14.3,85.8,85.8,0,0,0,1.19,11,64.18,64.18,0,0,0,4.9,16.49,28.07,28.07,0,0,0,7.23,10C221,132.86,224.79,134.38,229.27,133.44ZM60.29,70c1.66-1.39,3.39-2.79,5.05-4.26,2.24-2,2.28-2.11,0-3.89a23.83,23.83,0,0,1-7.89-10.08,9.14,9.14,0,0,0-5.63-5.43,25.49,25.49,0,0,0-7.88-2c-12.55-.8-29.06,4.11-35.49,22.84A50.55,50.55,0,0,0,6.09,89,102.58,102.58,0,0,0,8.3,102.2a84.23,84.23,0,0,1,2.59,16.56c.16,4.37-.21,8.63-2.92,12.35-.63.87-2.21,1.66-1.69,2.64.76,1.45,2.54.74,3.84.58a15,15,0,0,0,8.13-3.8,26.17,26.17,0,0,0,5.62-7.11,50.7,50.7,0,0,0,4.75-12A92.9,92.9,0,0,0,31.53,92,30.54,30.54,0,0,1,37.4,75a21.45,21.45,0,0,1,7.92-6.82c4.67-2.26,9.21-2.47,13.51.92A15,15,0,0,0,60.29,70ZM144,10.62a50.34,50.34,0,0,0-10.34,1A72.05,72.05,0,0,0,109,20.34a54.22,54.22,0,0,0-4.69,3.3,1.25,1.25,0,0,0-.36,1.7c.36.71.82,1.37,1.21,2.07a26.59,26.59,0,0,1,2.56,19.94c-.19.77-.39,1.55-.53,2.33-.2,1.17.62,1.75,1.45,2.23s1.41-.13,1.84-.86A19.48,19.48,0,0,1,112,48.64c4.83-6.07,11.06-8.42,18.69-6.94,1.4.28,2.76.78,4.14,1.19a1.22,1.22,0,0,0,1.75-1,28.21,28.21,0,0,1,2.61-8.18c3.8-6.89,10.48-10.17,18.05-8.82l.94.18a1.64,1.64,0,0,1,1.49,1.61c0,.92-.82,1.3-1.71,1.24-1.11-.07-2.22-.25-3.34-.31a12.9,12.9,0,0,0-11.26,5.23A18.19,18.19,0,0,0,139.6,43a2.63,2.63,0,0,0,1.54,2.72c4.63,2.52,9.21,5.13,13.88,7.57a25.47,25.47,0,0,0,5.78,2.25c4,.93,7.55.4,10.11-3.43a24.12,24.12,0,0,1,7.7-7.1c3.61-2.18,3.37-1.61,2.71-6.1a17.94,17.94,0,0,0-.73-2.77C175.7,20.4,161.78,10.51,144,10.62ZM105.55,41a23.82,23.82,0,1,0-37,19.43,4.52,4.52,0,0,0,4.48.71,7.42,7.42,0,0,1,8,1.62,5.28,5.28,0,0,0,5.7,1.15c1.53-.45,3-1,4.56-1.46,1.91-.62,2.56-1.81,2.59-3.93.08-5.2,2.4-7.65,7.66-8.79.31-.07.63-.08.95-.13a2.34,2.34,0,0,0,2-1.82A19.94,19.94,0,0,0,105.55,41Zm26.25,21.6a10.4,10.4,0,0,0-5.47,1.77c-3.29,2.21-3.31,3.43-.13,6l1.12.89,53.21,41.71c.75.59,1.53,1.15,2.29,1.73,1.42,1.07,3,.85,4.61.61a.87.87,0,0,0,.7-1.06c-.25-1.09-.48-2.18-.82-3.24a71.84,71.84,0,0,0-22.06-33.06c-5.1-4.37-10.46-8.31-17.23-10-3.37-.84-6.52-2.57-9.79-3.86A19.67,19.67,0,0,0,131.8,62.58ZM48.92,115.43c1.42.37,2.67-.64,3.95-1.64,7.69-6,15.4-11.92,23.09-17.89l31.79-24.65c2.79-2.15,2.19-2.09,1.34-4.75a1.18,1.18,0,0,0-1.85-.79,11.26,11.26,0,0,1-4,1.38,9.13,9.13,0,0,1-6.63-2.23,2.17,2.17,0,0,0-2.21-.49c-2.69,1-5.39,2-8.07,3a2.52,2.52,0,0,0-2,2.42,7.94,7.94,0,0,1-1.24,4.08c-2.19,3.52-5.49,5-9.43,4-2.41-.61-3.88.1-5.52,1.63A73.22,73.22,0,0,0,49.73,106c-1,2.51-1.83,5.1-2.65,7.68C46.72,114.8,47.31,115.42,48.92,115.43Zm62.28-53.9a14.27,14.27,0,0,0,1.33,5.54A11.13,11.13,0,0,0,117.87,73c1.1.54,1.9.14,1.86-1.1A11,11,0,0,1,122,64.26,12.69,12.69,0,0,1,128.77,60a11.74,11.74,0,0,1,6.17,0c2.3.64,4.57,1.41,6.81,2.25s4.71,2,7.1,2.87a20.41,20.41,0,0,0,6.51,1.47c1.35,0,2.44-.13,3.17-1.55a6.36,6.36,0,0,1,5.8-3.6,1.35,1.35,0,0,0,.88-.29,2.24,2.24,0,0,0,.65-1.19.87.87,0,0,0-.89-.9c-6.19,0-11.35-2.91-16.51-5.82-2.78-1.57-5.55-3.17-8.36-4.68a40.19,40.19,0,0,0-9.77-3.86,14.72,14.72,0,0,0-14.5,4.13C112.56,52,111.31,56.06,111.2,61.53ZM34.46,134.68h0c0,2.4.09,4.8,0,7.19-.2,4.09,2,6.57,5.42,8.19a16,16,0,0,0,7,1.35c2.46,0,2.77-.33,2.3-2.77A73.13,73.13,0,0,1,48.72,122a12.24,12.24,0,0,0,.19-1.91,1.39,1.39,0,0,0-1.49-1.49,14.86,14.86,0,0,0-9.16,2.17,7.5,7.5,0,0,0-3.81,6.75C34.51,129.89,34.46,132.28,34.46,134.68Zm165.19.36h0c0-2.55,0-5.09,0-7.64a7.25,7.25,0,0,0-.64-3.24c-2-4.06-7.6-6-11.86-5.47a1,1,0,0,0-.86,1,14.87,14.87,0,0,0,.12,1.89,71.27,71.27,0,0,1-.15,25.64,19.47,19.47,0,0,0-.4,2.83,1.17,1.17,0,0,0,1.13,1.28,14.16,14.16,0,0,0,8.27-1.76c2.8-1.61,4.53-3.93,4.42-7.36C199.59,139.82,199.65,137.43,199.65,135ZM75.31,75.1a5.79,5.79,0,0,0,6-5.56,6.09,6.09,0,0,0-5.76-5.92A5.83,5.83,0,0,0,69.88,69,5.61,5.61,0,0,0,75.31,75.1ZM96.75,58.25a5.81,5.81,0,0,0,5.71,5.88,6,6,0,0,0,5.76-5.92,5.75,5.75,0,0,0-5.55-5.52A5.58,5.58,0,0,0,96.75,58.25Zm67.49,6.23a3.32,3.32,0,0,0-2.92,1.8,2.68,2.68,0,0,0,.62,3.47c2.85,2.53,5.75,5,8.71,7.42,1.44,1.16,3,.78,4.13-.73a2.48,2.48,0,0,0-.4-3.78c-2.86-2.53-5.79-5-8.72-7.42A6.69,6.69,0,0,0,164.24,64.48ZM98.9,19.42c-.16-4.65-.28-8.44-.43-12.23,0-.71-.9-1.17-1.32-.73A55.44,55.44,0,0,0,90,14.78c1.55.74,2.84,1.31,4.08,2S96.75,18.22,98.9,19.42ZM66.59,69.2A23,23,0,0,0,61,73.57a2.69,2.69,0,0,0,0,3.83,2.58,2.58,0,0,0,3.76.54,12.83,12.83,0,0,0,3.07-2.89c.77-1.19-.69-2.29-.8-3.54A21.37,21.37,0,0,0,66.59,69.2ZM58,27.35a64,64,0,0,0-9.21.91.71.71,0,0,0-.27,1.15c2,2.09,3.94,4.34,6.75,5.75C56.23,32.46,57.06,30.09,58,27.35Z"/><path d="M117.67,149.88A25.73,25.73,0,0,1,91.84,126c0-.8-.09-1.6-.07-2.39,0-1.3-.57-1.91-1.8-2.42-1.71-.72-1.79-1.12-1.35-3,2.78-11.76,9.95-19.63,21.59-22.7a29.36,29.36,0,0,1,36.05,21.12,17.14,17.14,0,0,1,.48,2.82c.06.66-.24,1.42-.9,1.51-2.26.3-2.14,1.9-2.22,3.55a26.19,26.19,0,0,1-6.81,17A25.58,25.58,0,0,1,117.67,149.88Zm.2-31.56v-.08H139c1.12,0,2.24,0,3.35-.1a.89.89,0,0,0,.81-1,10.77,10.77,0,0,0-.54-2.31,26.61,26.61,0,0,0-50.06.47,11.4,11.4,0,0,0-.37,1.39c-.19.88.28,1.49,1.27,1.54,1.28.07,2.56.07,3.84.08Zm-.09,28.6a22.9,22.9,0,0,0,21.95-16.86,31.79,31.79,0,0,0,.81-6.17c.11-2-.55-2.56-2.47-2.66q-.48,0-1,0c-4,0-4.67-.44-4.52,3.93a2.59,2.59,0,0,1,0,.48,15,15,0,0,1-29.85.43c-.14-1.1,0-2.24-.2-3.35,0-.4-.41-1-.73-1.1a12,12,0,0,0-6.12,0,1,1,0,0,0-.59.68,8,8,0,0,0-.27,1.87C94.6,136.59,105.14,147,117.78,146.92Zm-.15-25.68h0c-.32,0-.64,0-.95,0-2.68-.33-3.75,2.24-2.63,4.51a3.74,3.74,0,0,0,3.83,2.18,4,4,0,0,0,3.7-3.08c.51-2-.72-3.67-2.54-3.6C118.57,121.26,118.1,121.24,117.63,121.24Z"/><path d="M117.47,180.74c-8.78,0-17.56-.12-26.34,0-5.74.11-7.17-1.73-6.85-7.06a56.29,56.29,0,0,0,0-6.23,4.63,4.63,0,0,1,4.7-4.94c.8-.05,1.6,0,2.39,0q26.1,0,52.21,0c6.33,0,7.27,1,7.31,7.14,0,2.24.07,4.48-.06,6.7-.18,2.75-1.5,4.08-4.16,4.32-1.26.12-2.55.07-3.82.07Zm-7.25-9.24h.08c0,1.59,0,3.19,0,4.78a1.4,1.4,0,0,0,1.55,1.43c4.37.12,4.45.27,4.43-3.91q0-3.11,0-6.22c0-.64-.09-1.38-.74-1.64a5.28,5.28,0,0,0-4.59.07c-1,.53-.65,1.7-.69,2.62S110.22,170.54,110.22,171.5Zm14.85.39H125c0-1.57.05-3.16,0-4.73a1.5,1.5,0,0,0-1.5-1.52,15.62,15.62,0,0,0-2.82.09,1.31,1.31,0,0,0-1.19,1.27c0,3.16,0,6.31,0,9.47a1.24,1.24,0,0,0,1.24,1.19c4.1.26,4.36.22,4.36-3.4C125.06,173.47,125.07,172.68,125.07,171.89Zm-17.83.12h0c0-1.58,0-3.17,0-4.76a1.68,1.68,0,0,0-.6-1.2,4,4,0,0,0-3.65-.21c-.87.32-1,1.13-1,2,0,2.54,0,5.08,0,7.62,0,1.89.45,2.25,2.21,2.32,2.63.11,3-.25,3.1-2.87C107.26,173.92,107.24,173,107.24,172Zm33.93-.12h0c0-1.44.05-2.88,0-4.31s-.58-2-2.08-2c-1.9-.06-2.68.41-2.72,1.85-.06,2.87,0,5.75,0,8.62a1.77,1.77,0,0,0,.52,1.25,4,4,0,0,0,3.22.3c1-.2,1-1.09,1-1.88C141.19,174.44,141.17,173.16,141.17,171.89Zm-7.85.29h0V169.3c0-.31,0-.63,0-1-.09-2.36-.56-2.82-2.8-2.78-1.72,0-2.26.5-2.32,2.29-.07,2.39-.07,4.79,0,7.19s.47,2.76,2.8,2.69c1.9-.06,2.24-.36,2.32-2.21C133.36,174.42,133.32,173.3,133.32,172.18Zm-39.25-.85h0v3.35c0,.31,0,.63,0,.95.11,1.73.54,2.1,2.42,2.11.31,0,.63,0,1-.05.7-.05,1.29-.42,1.31-1.1.07-3.18.07-6.36,0-9.54a1.72,1.72,0,0,0-.68-1.18,2.61,2.61,0,0,0-4,2.12C94,169.1,94.07,170.22,94.07,171.33Zm50.23.32h0c0,1.58-.06,3.16,0,4.73.05.92.76,1.29,1.65,1.29s1.64-.29,1.74-1.2a46.54,46.54,0,0,0,.05-9.44c-.08-.93-.87-1.26-1.7-1.33a1.43,1.43,0,0,0-1.72,1.22C144.2,168.49,144.3,170.07,144.3,171.65Zm-53.24,0H91c0-1.6.08-3.2,0-4.78-.06-.94-.83-1.29-1.71-1.22-1,.08-1.89.56-1.91,1.7-.06,2.87,0,5.75,0,8.62,0,1.11.79,1.65,1.91,1.67S91,177.26,91,176C91.1,174.56,91.06,173.12,91.06,171.69Z"/><path d="M74.92,41a6.84,6.84,0,0,1-13.67.7A6.84,6.84,0,1,1,74.92,41Zm-6.24,3.77a10.18,10.18,0,0,0-3.37-3.87.78.78,0,0,0-.77,0,1.13,1.13,0,0,0-.24.87C64.87,44.18,65.76,44.78,68.68,44.73Zm-.59-7.26c-.14.07-.37.11-.41.22s-.22.64-.1.78c.82,1,1.66,1.89,2.56,2.77.39.38,1,1.08,1.48.4a2.15,2.15,0,0,0,.1-1.78A3.41,3.41,0,0,0,68.09,37.47Z"/><path d="M87.4,40.71a6.79,6.79,0,0,1-6.84-7A7,7,0,0,1,87.72,27a6.83,6.83,0,0,1,6.56,6.83A6.69,6.69,0,0,1,87.4,40.71ZM89.35,31c-.26,1.92-.51,3.63-.7,5.35,0,.2.31.58.53.63A1,1,0,0,0,90,36.7C91.84,34.72,91.72,33.18,89.35,31Zm-4.41,5.31c.86-.84.82-2,1-3,.29-1.64,0-2.46-.74-2.22a2.47,2.47,0,0,0-1.58,2.11A2.54,2.54,0,0,0,84.94,36.29Z"/><path d="M73.16,50.1c.9.1,2,.18,3.12.36,2.63.44,3.12,1.53,1.43,3.41-1.28,1.42-2.68,2.73-4.1,4a1.08,1.08,0,0,1-1.67-.21,1.59,1.59,0,0,1-.3-1.28,21.58,21.58,0,0,1,1.28-2c.39-.68.18-1.18-.63-1.36-.16,0-.32,0-.47-.09-.81-.2-1.56-.47-1.52-1.5,0-.87.83-1.36,2.16-1.36Z"/><path d="M87.73,49.58a3.63,3.63,0,0,1-1.15-.6,1.34,1.34,0,0,1-.08-1.76c1.09-1.37,2.2-2.73,3.4-4a1.22,1.22,0,0,1,2.21.55c.28,1.5.89,1.87,2.23,1.59a2.75,2.75,0,0,1,1,0,1.36,1.36,0,0,1,1.35,1.12c.19,1-.46,1.45-1.28,1.66-1.24.32-2.48.6-3.74.84S89.1,49.36,87.73,49.58Z"/><path d="M83.91,49.73c-.06.29,0,.66-.2.87a2.68,2.68,0,0,1-2.51,1.08A1.33,1.33,0,0,1,80,50.37c0-.9.73-1.32,1.54-1.58a1.87,1.87,0,0,1,2.16.49C83.84,49.39,83.85,49.58,83.91,49.73Z"/></g></g></svg>