<svg xmlns="http://www.w3.org/2000/svg" viewBox="0 0 171.26 237.9"><title>Character  8</title><g id="Layer_2" data-name="Layer 2"><g id="Character_8" data-name="Character  8"><path d="M15.07,76.65c.07-1.83-1-3.16-1.55-4.62A50.4,50.4,0,0,1,79,6.25a12.73,12.73,0,0,1,2.2,1c1.84,1.17,3.52.84,5.39-.09a66.81,66.81,0,0,1,20-6.57C116-.85,125.05.26,133.2,5.77a33.47,33.47,0,0,1,11.48,41.69,14.7,14.7,0,0,1-1.53,3c-1.31,1.69-1.07,3.05.15,4.72A65.72,65.72,0,0,1,153,74.88a2.49,2.49,0,0,0,2.76,2.05,19.1,19.1,0,0,1,6.61.89c5.06,1.69,9.26,5.73,8.89,12.14-.23,4.15,0,8.32,0,12.48,0,7.34-4.06,11.94-11.37,13a40.25,40.25,0,0,1-4.79.29,2.44,2.44,0,0,0-2.54,1.75q-.47,1.36-1,2.7Q141,146.87,115,159c-1,.47-2,.93-3.07,1.36a1.4,1.4,0,0,0-.94,1.89c.4,1.21.87,2.4,1.32,3.6l24.75,66.52c.44,1.2.92,2.39,1.31,3.61s-.15,1.75-1.45,1.83c-.95.05-1.92.05-2.88.05H37.59c-1,0-1.92,0-2.88-.06-1.27-.09-1.71-.7-1.28-1.9,1.24-3.46,2.52-6.91,3.8-10.36q11.24-30.11,22.45-60.21c1.75-4.71,2.16-4.18-2.41-6.31Q31,146.85,20.55,119.81a11,11,0,0,1-.49-1.36,3.19,3.19,0,0,0-3.76-2.8,27.3,27.3,0,0,1-5.26-.27,13.9,13.9,0,0,1-7.69-3.63,9,9,0,0,1-3.29-6.69C0,99.3,0,93.54.05,87.78c.06-3.9,2.32-6.54,5.48-8.48a16.38,16.38,0,0,1,7.72-2.36C13.86,76.9,14.47,76.75,15.07,76.65ZM58.49,31.51c2.41-2,5.46-2.57,8.33-3.4a67.88,67.88,0,0,1,29.92-1.89A8.19,8.19,0,0,0,102.63,25c3.28-2,6.63-3.86,10-5.78,2.5-1.44,5-2.9,7.49-4.29,1.11-.61,2.13-.34,2.44.51s-.21,1.53-.89,2c-.93.62-1.9,1.18-2.86,1.74-2.91,1.68-5.83,3.33-8.73,5-.6.35-1.42.59-1.39,1.79l5.13-1.19c.93-.22,1.85-.52,2.79-.67.79-.13,1.66-.09,1.91.9a1.43,1.43,0,0,1-1.09,1.82c-1.53.46-3.1.79-4.62,1.28-.8.25-1.87.2-2.19,1.49l4.34,2A69.35,69.35,0,0,1,136,46.36c.78.8,1.52,1.65,2.32,2.43,1.17,1.17,1.66,1.08,2.5-.42C149,33.92,144.54,12.55,125.23,5a34.26,34.26,0,0,0-18-1.56,66.61,66.61,0,0,0-18.21,5.8C78.29,14.35,68.64,21.15,59.52,28.76a4.65,4.65,0,0,0-1.28,1.38c-.16.33.18.89.29,1.34C58.55,31.53,58.35,31.28,58.49,31.51Zm-39.29,64A66.92,66.92,0,1,0,85.83,28.4C48.41,28.39,18.77,59.76,19.2,95.51ZM134,234.27c.24-1.45-.41-2.59-.85-3.77l-24.09-64.65c-.33-.89-.71-1.77-1.08-2.65a1.34,1.34,0,0,0-1.57-.79c-.94.16-1.86.46-2.78.68a70.17,70.17,0,0,1-28.05,1.37c-3-.49-5.95-1.14-8.89-1.92-2.1-.56-2.49-.32-3.29,1.59-.49,1.18-.94,2.38-1.38,3.58q-6.61,17.73-13.2,35.47c-3.51,9.43-7,18.85-10.52,28.29-1.06,2.87-.75,3.25,2.4,3.34,1.12,0,2.24,0,3.35,0H79q24.94,0,49.87,0C130.61,234.8,132.41,235.24,134,234.27ZM79.71,10.34a5,5,0,0,0-2.5-1.54A47.45,47.45,0,0,0,47.09,7.45a44.81,44.81,0,0,0-14.19,6.8c-.51.36-1.17.78-.72,1.51a1.77,1.77,0,0,0,1.19.54q8.82,1,17.64,2c4.29.45,8.59.83,12.88,1.29a5.66,5.66,0,0,0,4-1.11c3.43-2.35,6.94-4.58,10.4-6.88A14.55,14.55,0,0,0,79.71,10.34ZM3,95.93H3c0,2.55.08,5.11,0,7.67-.13,3.67,1.8,6,4.83,7.61,2.79,1.5,5.81,1.59,8.87,1.37,1-.07,1.28-.73,1.12-1.65s-.28-1.9-.45-2.84a63,63,0,0,1-1-17.65c.28-2.85.7-5.7,1.06-8.55.16-1.3-.24-1.86-1.41-2A14.61,14.61,0,0,0,6.87,82,7.39,7.39,0,0,0,3,88.74C3.05,91.13,3,93.53,3,95.93Zm165.22.61h0c0-2.55,0-5.1,0-7.64a7.59,7.59,0,0,0-1.15-4.09c-1.93-3.16-7.58-5.54-11.32-4.8a1,1,0,0,0-.9.94,12.48,12.48,0,0,0,.13,2.37,71.56,71.56,0,0,1-.57,27.05c-.38,1.85,0,2.25,1.86,2.26a14.42,14.42,0,0,0,5.62-.83c4.43-1.77,6.23-4.27,6.32-9C168.26,100.68,168.23,98.61,168.23,96.54Zm-144.87-66h.1V25.28c0-.4-.15-.67-.52-.65a1.26,1.26,0,0,0-.79.27A10.17,10.17,0,0,0,21,26.39c-7.8,11.87-10,24.7-6.61,38.5a38.67,38.67,0,0,0,3.15,8.53c.28.54.51,1.24,1.35,1.1.56-.09.58-.63.76-1a16.19,16.19,0,0,0,1.21-5.59Q22.06,49.22,23.36,30.55Zm4.88-11.19C33.1,25.75,37.52,31.6,42,37.42,43.18,39,43.66,39,45,37.69Q52.48,30.52,60.47,24A1.14,1.14,0,0,0,61,22.8C56.35,21.59,33.46,19.1,28.24,19.36Zm-3.58,41c1.52-.32,1.77-1.55,2.33-2.43A71.66,71.66,0,0,1,38,44.6l2.08-2a1.69,1.69,0,0,0,.11-2.54C36.26,35,32.39,29.91,28.48,24.85c-.23-.29-.91-.57-1.16-.44a1.84,1.84,0,0,0-.67,1.17A21,21,0,0,0,26.43,28Q25.5,42.09,24.59,56.2A10.4,10.4,0,0,0,24.66,60.32Z"/><path d="M85.77,124c8.94,0,17.88,0,26.83,0,5.75,0,6.78,1,6.82,6.61,0,2.39.08,4.79,0,7.18a4.29,4.29,0,0,1-4.18,4.38,21.13,21.13,0,0,1-2.39.06H59.62a21.07,21.07,0,0,1-2.87-.1c-2.13-.28-3.69-1.6-3.8-3.67-.18-3.5-.19-7,0-10.52.11-2.32,1.7-3.66,4.1-3.9,1.1-.11,2.23,0,3.35,0Zm10.82,8.87h.07c0,1.59,0,3.19,0,4.79a1.46,1.46,0,0,0,1.47,1.55,13.5,13.5,0,0,0,2.38,0,1.28,1.28,0,0,0,1.21-1.26q.06-4.78,0-9.57a1.26,1.26,0,0,0-1.2-1.27c-3.37-.31-4-.12-4,2.92C96.6,130.92,96.59,131.88,96.59,132.84Zm-3,.48c0-1.58,0-3.16,0-4.74a1.42,1.42,0,0,0-1.4-1.57,24.46,24.46,0,0,0-2.84,0,1.45,1.45,0,0,0-1.41,1.57q0,4.51,0,9a1.47,1.47,0,0,0,1.42,1.58c.79.07,1.58,0,2.37.05a1.6,1.6,0,0,0,1.87-1.63C93.58,136.17,93.54,134.74,93.54,133.32Zm-8.71-.16h-.09c0-1.58,0-3.17,0-4.75A1.42,1.42,0,0,0,83.17,127c-4-.12-4.52-.36-4.47,3.89,0,1.74,0,3.49,0,5.23.08,3,.37,3.2,3.35,3.15,2.44-.05,2.66-.26,2.75-2.76C84.86,135.38,84.83,134.27,84.83,133.16Zm-17.32-.07h0c0-1.43,0-2.85,0-4.28A1.65,1.65,0,0,0,65.78,127c-2.54-.22-3.09.2-3.14,2.78s0,5.08,0,7.62c0,1,.43,1.79,1.67,1.87,2.56.17,3.08-.25,3.16-2.8C67.54,135.32,67.51,134.2,67.51,133.09Zm3-.22h0c0,1.58,0,3.16,0,4.74A1.48,1.48,0,0,0,72,139.17a17,17,0,0,0,1.89,0,1.46,1.46,0,0,0,1.57-1.41c.12-1.58.13-3.16.15-4.74,0-1.26,0-2.53,0-3.79-.1-2-.56-2.38-2.67-2.33-1.88,0-2.3.39-2.38,2.13C70.45,130.34,70.5,131.6,70.5,132.87Zm39.25.25c0-1.11,0-2.22,0-3.33,0-2.76-.61-3-3.59-2.76a1.2,1.2,0,0,0-1.16,1.26c0,3.17-.06,6.34,0,9.51,0,.92.63,1.35,1.55,1.42,2.58.21,3.12-.23,3.2-2.76C109.78,135.35,109.75,134.24,109.75,133.12Zm-50.18.19h0c0-1.58,0-3.16,0-4.74A1.46,1.46,0,0,0,58.13,127c-1.11-.11-2,.41-2.14,1.36a45.13,45.13,0,0,0,0,9.44,1.78,1.78,0,0,0,2.16,1.35,1.47,1.47,0,0,0,1.4-1.59C59.6,136.15,59.57,134.73,59.57,133.31Zm53.2-.39h.09c0,1.76-.07,3.52,0,5.27,0,.68.71,1,1.42,1,1.07,0,2-.5,2-1.6.08-3,0-6.07,0-9.1,0-1-1-1.5-2.14-1.44-1,0-1.36.71-1.38,1.58C112.74,130,112.77,131.48,112.77,132.92Z"/><path d="M86.15,59.5C99.81,59.19,112,70.77,112,85.4a25.86,25.86,0,0,1-25.95,25.9,25.9,25.9,0,1,1,.06-51.8ZM109,85.23a22.9,22.9,0,1,0-22.61,23A22.77,22.77,0,0,0,109,85.23Z"/><path d="M101.18,85.17a15,15,0,1,1-15-14.9A15.11,15.11,0,0,1,101.18,85.17ZM86,81.41a4.09,4.09,0,0,0-3.88,4,4.05,4.05,0,1,0,8.1-.35A4.06,4.06,0,0,0,86,81.41Z"/></g></g></svg>