<svg xmlns="http://www.w3.org/2000/svg" viewBox="0 0 171.38 245.26"><title>Character  10</title><g id="Layer_2" data-name="Layer 2"><g id="Character_10" data-name="Character  10"><path d="M83.79,9.58a106.05,106.05,0,0,1-16.3,3.24,31,31,0,0,1-11.44-.47A13.76,13.76,0,0,1,52.5,11c-3.59-2.2-3.73-6.06-.37-8.69A9.91,9.91,0,0,1,55.55.62a18.06,18.06,0,0,1,7.6-.38A99.56,99.56,0,0,1,80.88,4.33c4.77,1.53,4.78,1.54,9.69,0A94.66,94.66,0,0,1,107.31.21a20.77,20.77,0,0,1,8.56.54,8.45,8.45,0,0,1,3.71,2.11,4.72,4.72,0,0,1-.45,7.49,9.38,9.38,0,0,1-5.81,2,73.65,73.65,0,0,1-12-.49c-4.12-.6-8.22-1.26-12.33-1.88-1-.16-1.41.48-1.5,1.37a5.13,5.13,0,0,0,0,1c.14,2.14.45,2.57,2.5,2.67a65.52,65.52,0,0,1,10,1.21c9.71,2,18.62,5.76,26.19,12.3,6.1,5.26,10.42,11.65,12,19.68a16.39,16.39,0,0,1,.43,6.18,3.82,3.82,0,0,0,1.06,3.45,67.45,67.45,0,0,1,11,17.94c.37.89.74,1.77,1.07,2.67.67,1.79.91,4,2.08,5.29s3.65.46,5.52.75a20.07,20.07,0,0,1,6.4,1.91c3.53,1.88,5.55,4.74,5.56,8.84,0,4.8-.12,9.6,0,14.4.23,7.12-5.66,12.12-11.12,13.14a36.83,36.83,0,0,1-5.25.46,2.49,2.49,0,0,0-2.48,1.85c-.32.9-.64,1.81-1,2.7q-10.41,26.46-36.13,38.59c-5.23,2.48-5.14,1.12-2.88,7.19Q124.9,206.74,137.27,240c2.1,5.61,2.22,5.25-3.78,5.25h-95c-6,0-5.76.27-3.67-5.33q12.41-33.25,24.75-66.53c.39-1,.83-2.08,1.18-3.14.58-1.74.45-2.13-1.36-2.9A71.05,71.05,0,0,1,42.13,157,69.48,69.48,0,0,1,20.6,127c-1.36-3.67-1.4-3.67-5.42-3.84a19.91,19.91,0,0,1-7.95-1.52C2.65,119.44-.06,116,0,110.74c.06-4.47,0-9,0-13.43C.09,91,2.94,87.21,8.91,85.18A25,25,0,0,1,17,84.3a1.94,1.94,0,0,0,2.12-1.51c.09-.3.25-.59.34-.89A69.1,69.1,0,0,1,32.72,57.66a4.26,4.26,0,0,0,1-3.42,28.09,28.09,0,0,1,4-15.58,40.1,40.1,0,0,1,12-12.94c8.69-6.17,18.47-9.35,29-10.53.64-.07,1.28-.08,1.92-.12C84.76,14.74,84.76,14.74,83.79,9.58ZM86.45,55.3c-14.39,0-28.78.09-43.16-.06a8.6,8.6,0,0,0-7.41,3.3c-14,16.71-19.33,35.77-15.26,57.22a66.88,66.88,0,0,0,131.91-4.26c2.42-20.21-3.15-37.89-16.32-53.32a7.8,7.8,0,0,0-6.6-2.93C115.22,55.37,100.83,55.3,86.45,55.3Zm47.62,186.33a5.44,5.44,0,0,0-.64-3.3Q121.22,205.55,109,172.78c-1-2.56-.66-3.61-4.82-2.48a66.39,66.39,0,0,1-29.44,1.38c-2.83-.5-5.6-1.26-8.41-1.88-1.54-.33-2-.09-2.64,1.26-.27.58-.49,1.18-.71,1.78Q50.87,205.39,38.76,238a21.71,21.71,0,0,0-.88,2.73,1,1,0,0,0,.95,1.35c1.27.11,2.55.14,3.83.14H61.84q33.55,0,67.13,0C130.67,242.15,132.48,242.6,134.07,241.63ZM90.8,18.44c-.17,1.35.94,1.95,1.63,2.75q12.06,14,24.15,27.86c.62.72,1.26,1.43,1.91,2.13a3.31,3.31,0,0,0,2.56,1.1c4.3,0,8.61,0,12.92-.06,1.37,0,1.81-.76,1.57-2.31a29.35,29.35,0,0,0-6.15-13.84,41.81,41.81,0,0,0-11.1-9.73,60,60,0,0,0-24.78-8.19C92.62,18,91.64,17.73,90.8,18.44Zm-9.43-.19c-2.91-.55-5.55.3-8.18.81A53.78,53.78,0,0,0,49,30,34.52,34.52,0,0,0,39,42.64a23.75,23.75,0,0,0-2,6.38c-.39,2.71,0,3.2,2.57,3.26,2.39.06,4.8-.15,7.17.07,2.85.26,4.76-.94,6.61-3,8.85-9.64,17.81-19.18,26.73-28.77A3,3,0,0,0,81.37,18.25Zm2.51,3c-.9.86-1.73,1.58-2.48,2.38Q69.78,36.11,58.17,48.58L56.87,50c-.43.47-.94,1-.72,1.64s1,.65,1.63.65q12,0,24,0c.32,0,.64,0,1,0a1.81,1.81,0,0,0,1.9-1.74,21.31,21.31,0,0,0,.08-2.4q0-12,0-24A3.66,3.66,0,0,0,83.88,21.28Zm3.88.47c0,9.66,0,19.06,0,28.46,0,1.45.61,2,2.06,2,7.66,0,15.33,0,23,0a4,4,0,0,0,.47-.06.93.93,0,0,0,.76-1.36,18.5,18.5,0,0,0-1.17-1.51q-11.3-13-22.61-26A3.44,3.44,0,0,0,87.76,21.75ZM3.11,103.5c0,2.56,0,5.11,0,7.67a7.69,7.69,0,0,0,4.17,7,14.85,14.85,0,0,0,9.71,1.7,1.11,1.11,0,0,0,.95-1.38c-.09-.79-.18-1.59-.34-2.37a69.24,69.24,0,0,1-.27-25.71c.51-3,.3-3.22-2.79-3.18A14.57,14.57,0,0,0,7.65,89C4.75,90.59,3,92.88,3.11,96.32,3.15,98.71,3.12,101.11,3.11,103.5Zm165.25-.8c0-2.23,0-4.46,0-6.7-.12-4.24-1.73-6.41-5.74-7.77a14.82,14.82,0,0,0-3.25-.79c-5.33-.56-4.78-.12-4.13,4a69.81,69.81,0,0,1-.06,22.85c-.21,1.25-.49,2.5-.71,3.75-.26,1.48.18,2,1.76,2a17.51,17.51,0,0,0,1.91-.07c6.23-.59,10.11-4.76,10.23-11C168.39,106.85,168.36,104.77,168.36,102.7Zm-89-95.6A81.81,81.81,0,0,0,61,3a12.67,12.67,0,0,0-5.6.8,4.18,4.18,0,0,0-2.22,1.72,1.65,1.65,0,0,0,.14,2.16,5.85,5.85,0,0,0,3.3,1.72,26.05,26.05,0,0,0,7.57.64A84.92,84.92,0,0,0,76.88,8.24,17.31,17.31,0,0,0,79.38,7.1ZM92.57,7a9.41,9.41,0,0,0,1.57.74,86,86,0,0,0,18.94,1.65,7.58,7.58,0,0,0,3.62-1,2.12,2.12,0,0,0,.11-3.83A10.5,10.5,0,0,0,110.42,3,59,59,0,0,0,92.57,7Z"/><path d="M85.84,149.6H61.4c-.64,0-1.29,0-1.92,0-5.06.43-6.92-2.07-6.69-6.4.11-2.07,0-4.16,0-6.23.15-4.08,1.54-5.47,5.49-5.64.63,0,1.27,0,1.91,0H112a24.32,24.32,0,0,1,3.82.14,4.11,4.11,0,0,1,3.66,3.86c.17,3.35.17,6.71,0,10.06a4.21,4.21,0,0,1-4,4.11,30.53,30.53,0,0,1-3.83.09Zm-.9-9.39h0c0-.64,0-1.27,0-1.9,0-4.06-.31-4.28-4.31-4-1.13.07-1.82.55-1.86,1.68-.07,2.21-.07,4.42-.09,6.64,0,4.35.32,4,4.36,4,1.09,0,1.82-.49,1.84-1.66C85,143.37,84.94,141.79,84.94,140.21Zm3-.17h0c0,1.43,0,2.86,0,4.28.07,1.93.38,2.23,2.2,2.3,3.2.14,3.48-.09,3.52-3.36,0-2.38,0-4.75,0-7.13,0-.65-.16-1.4-.79-1.59a5.47,5.47,0,0,0-4.17.07c-1.09.57-.7,2-.75,3.06C87.93,138.46,88,139.25,88,140Zm14,.41h-.13c0-1.58,0-3.16,0-4.74a1.25,1.25,0,0,0-1.13-1.3,15.74,15.74,0,0,0-2.83,0,1.2,1.2,0,0,0-1.1,1.31c0,3.16,0,6.33,0,9.49a1.23,1.23,0,0,0,1.12,1.3c3.61.36,4.1.1,4.08-3.22C102,142.35,102,141.4,102,140.45Zm3-.35h.12c0,1.75,0,3.5,0,5.25a1.51,1.51,0,0,0,.73,1.1c2,.93,3.94-.17,4-2.28.05-2.71,0-5.42,0-8.13a1.57,1.57,0,0,0-.89-1.54c-2.1-.92-3.84.07-3.94,2.26C105,137.87,105,139,105,140.1Zm-42.18.13c0,1.6,0,3.19,0,4.78a1.76,1.76,0,0,0,.56,1.24,3.88,3.88,0,0,0,3.2.19c1-.26,1-1.14,1-1.93,0-2.54.07-5.09,0-7.64,0-2.29-.55-2.65-2.93-2.58-1.14,0-1.83.5-1.87,1.65C62.78,137.37,62.82,138.8,62.83,140.23Zm12.87.27h-.09c0-1.58,0-3.17,0-4.75A1.43,1.43,0,0,0,74,134.32c-.63,0-1.27,0-1.9,0s-1.31.41-1.33,1.09c-.06,3.32-.06,6.65,0,10a1.49,1.49,0,0,0,.81,1c2.37.94,4-.11,4.08-2.6C75.73,142.73,75.7,141.61,75.7,140.5Zm37.22-.27H113c0,1.73,0,3.47,0,5.2,0,.92,1.22,1.42,2.18,1a1.91,1.91,0,0,0,1.36-1.74c0-2.84,0-5.68,0-8.52a1.41,1.41,0,0,0-.11-.45,2,2,0,0,0-2.21-1.38c-1,0-1.27.77-1.3,1.6C112.9,137.39,112.92,138.81,112.92,140.23Zm-53.12.48h-.21c0-1.74.08-3.48,0-5.21-.06-.94-.89-1.17-1.76-1.13A1.71,1.71,0,0,0,56,136.19c-.08,2.84,0,5.68,0,8.53a2.16,2.16,0,0,0,.26.91,1.85,1.85,0,0,0,2,.92,1.27,1.27,0,0,0,1.32-1.11C59.71,143.87,59.73,142.29,59.8,140.71Z"/><path d="M86.45,66.89c13.78-.21,25.8,11.58,25.72,26.09-.07,12.51-10,25.79-26.15,25.7a25.9,25.9,0,1,1,.43-51.79Zm22.69,25.87A23,23,0,0,0,86.36,69.82c-10.78-.16-23.15,8.31-23,23.17a22.91,22.91,0,0,0,45.81-.23Z"/><path d="M101.33,92.67a15.07,15.07,0,1,1-15.4-15A15.09,15.09,0,0,1,101.33,92.67Zm-11.14.13a3.85,3.85,0,0,0-3.81-4,4,4,0,1,0-.07,8A3.93,3.93,0,0,0,90.19,92.8Z"/></g></g></svg>