<svg xmlns="http://www.w3.org/2000/svg" xmlns:xlink="http://www.w3.org/1999/xlink" viewBox="0 0 145.89 37.13"><defs><style>.cls-1,.cls-4{fill:#333;}.cls-2{fill:#22b573;}.cls-3{fill:#fff;}.cls-3,.cls-4{stroke:#333;stroke-miterlimit:10;}</style><symbol id="LoG_Logo" data-name="LoG_Logo" viewBox="0 0 145.89 37.13"><path class="cls-1" d="M46.16,14.32h6.49v.94H45V2.13h1.12Z"/><path class="cls-1" d="M68.68,9H62.54v5.36H69.6v.94H61.43V2.13h8.13v.93h-7V8h6.14Z"/><path class="cls-1" d="M85.68,11.57h-6l-1.36,3.69H77.2l5-13.13h1.06l5,13.13H87Zm-5.62-.94h5.27L82.69,3.48Z"/><path class="cls-1" d="M106.16,13.7A3.75,3.75,0,0,1,104.35,15a7.76,7.76,0,0,1-2.76.46,5.16,5.16,0,0,1-2.74-.74A4.92,4.92,0,0,1,97,12.61a7.13,7.13,0,0,1-.66-3.1V7.85a6.33,6.33,0,0,1,1.38-4.32A4.64,4.64,0,0,1,101.41,2a4.91,4.91,0,0,1,3.27,1,4.3,4.3,0,0,1,1.47,2.85H105a3.37,3.37,0,0,0-1.18-2.2,3.76,3.76,0,0,0-2.44-.75,3.59,3.59,0,0,0-2.91,1.31,5.68,5.68,0,0,0-1.07,3.7V9.44A6.49,6.49,0,0,0,98,12.09a4,4,0,0,0,1.46,1.78,3.85,3.85,0,0,0,2.18.63,6.16,6.16,0,0,0,2.47-.45,2.78,2.78,0,0,0,1-.69V10h-3.53V9h4.64Z"/><path class="cls-1" d="M125,2.13v9a4.6,4.6,0,0,1-.59,2.31,3.78,3.78,0,0,1-1.63,1.51,5.18,5.18,0,0,1-2.41.53,4.82,4.82,0,0,1-3.33-1.13,4.17,4.17,0,0,1-1.29-3.14v-9h1.1V11a3.43,3.43,0,0,0,1,2.58,3.54,3.54,0,0,0,2.57.91,3.5,3.5,0,0,0,2.57-.92,3.43,3.43,0,0,0,.94-2.56V2.13Z"/><path class="cls-1" d="M142,9h-6.14v5.36h7.06v.94h-8.17V2.13h8.13v.93h-7V8H142Z"/><path class="cls-1" d="M55.45,28.22a9.61,9.61,0,0,1-.78,4,6,6,0,0,1-2.26,2.65A6.14,6.14,0,0,1,49,35.8a5.87,5.87,0,0,1-4.67-2.06,8.28,8.28,0,0,1-1.78-5.59v-1.7a9.55,9.55,0,0,1,.79-4,6.1,6.1,0,0,1,2.27-2.67A6,6,0,0,1,49,18.84a6.24,6.24,0,0,1,3.37.92,6,6,0,0,1,2.25,2.6,9.28,9.28,0,0,1,.82,3.89Zm-1.39-1.79a7.27,7.27,0,0,0-1.35-4.67,4.85,4.85,0,0,0-7.36,0A7.37,7.37,0,0,0,44,26.5v1.72a7.25,7.25,0,0,0,1.36,4.65A4.46,4.46,0,0,0,49,34.59a4.41,4.41,0,0,0,3.69-1.69,7.48,7.48,0,0,0,1.33-4.73Z"/><path class="cls-1" d="M69.22,27.86h-7.7v7.72H60.13V19.07H70.36v1.18H61.52v6.43h7.7Z"/><path class="cls-2" d="M92.42,33.43a5.5,5.5,0,0,1-2.57,1.79,10.29,10.29,0,0,1-3.69.58,5.65,5.65,0,0,1-2.88-.73,5.19,5.19,0,0,1-2-2.09,7.41,7.41,0,0,1-.83-3.14,15.46,15.46,0,0,1,.28-3.47,11.33,11.33,0,0,1,1.3-3.75,7.68,7.68,0,0,1,2.27-2.56,6.86,6.86,0,0,1,4.15-1.22,5.42,5.42,0,0,1,3.88,1.43,5.86,5.86,0,0,1,1.59,3.88H91.23c-.17-1.94-1.11-2.93-2.83-3a3.87,3.87,0,0,0-3.17,1.35,8.14,8.14,0,0,0-1.69,4.07,18.2,18.2,0,0,0-.28,2.53A5.15,5.15,0,0,0,84,32.3a2.73,2.73,0,0,0,2.36,1.19,4.92,4.92,0,0,0,3.27-1l.61-3.23H86.93l.38-2.17h6.07Z"/><path class="cls-2" d="M99.17,35.58H96.38l2.87-16.51H102Z"/><path class="cls-2" d="M110.92,29.23h-3.16l-1.11,6.35h-2.8l2.87-16.51h5.2a5.89,5.89,0,0,1,4.12,1.3A4.1,4.1,0,0,1,117.28,24a5,5,0,0,1-1.07,2.78,6.29,6.29,0,0,1-2.64,1.84L116,35.41v.17h-3Zm-2.77-2.31,2.71,0a3.85,3.85,0,0,0,2.44-.77,3,3,0,0,0,1.15-2.08,2.28,2.28,0,0,0-.45-2,2.57,2.57,0,0,0-1.89-.74h-3Z"/><path class="cls-2" d="M122.38,33.29h7.28l-.41,2.29H119.19l2.86-16.51h2.8Z"/><path class="cls-2" d="M141.77,31.25c.17-1.09-.42-1.9-1.78-2.43l-.91-.34a8.57,8.57,0,0,1-3.64-2.12,3.78,3.78,0,0,1-1-2.85,4.25,4.25,0,0,1,1-2.47,5.52,5.52,0,0,1,2.28-1.65,7.47,7.47,0,0,1,3-.55,6.07,6.07,0,0,1,2.74.68,4.39,4.39,0,0,1,1.84,1.78,5,5,0,0,1,.59,2.6H143.1a2.66,2.66,0,0,0-.57-2,2.7,2.7,0,0,0-2-.75,3.72,3.72,0,0,0-2.24.63,2.49,2.49,0,0,0-1.07,1.74c-.15,1,.49,1.72,1.93,2.27l.85.31a8.24,8.24,0,0,1,3.63,2.18,4,4,0,0,1,.9,3,4.52,4.52,0,0,1-.91,2.44,5.2,5.2,0,0,1-2.23,1.6,8,8,0,0,1-3.14.54,6.37,6.37,0,0,1-2.94-.68,4.72,4.72,0,0,1-2.67-4.54h2.8a2.61,2.61,0,0,0,.69,2.16,3.18,3.18,0,0,0,2.25.79,4,4,0,0,0,2.27-.58A2.41,2.41,0,0,0,141.77,31.25Z"/><path class="cls-1" d="M26.59,28.63H3.48A3.17,3.17,0,0,1,.59,24.16L10.12,2.87A5.16,5.16,0,0,1,14.87,0h0a5.13,5.13,0,0,1,4.74,2.87l9.68,21.59A3,3,0,0,1,26.59,28.63Z"/><path class="cls-3" d="M14.75,36.5S.5,26,.5,8.48H29C29,25.11,14.75,36.5,14.75,36.5Z"/><path class="cls-1" d="M19.08,25.82a9.41,9.41,0,0,1-4.25,1c-3.33,0-5.32-2-5.32-5.75s2.16-6.24,5.57-6.24a11,11,0,0,1,3.75.83l-.08,2.75H17.66l-.5-1.83a7.64,7.64,0,0,0-2.24-.34c-2.25,0-3.5,1.67-3.5,4.75s1.5,4.41,3.66,4.41A7.86,7.86,0,0,0,17.41,25V22.25L16,21.92V21l4.33-.09v1l-1.25.33Z"/><path class="cls-4" d="M.5,8.48c0,.79,0,1.57.09,2.35H28.9c.06-.78.1-1.56.1-2.35,0-4.92-7.12.88-14.25.9S.5,3.19.5,8.48Z"/></symbol></defs><title>LoG_Logo</title><g id="Layer_2" data-name="Layer 2"><g id="Chat"><use id="LoG_Logo-3" data-name="LoG_Logo" width="145.89" height="37.13" xlink:href="#LoG_Logo"/></g></g></svg>