<svg xmlns="http://www.w3.org/2000/svg" viewBox="0 0 688.27 313.91"><defs><style>.cls-1{fill:#4d4d4d;}.cls-2{fill:#cacaca;}.cls-3{fill:#fab433;}.cls-4{fill:#fff;}.cls-5{fill:#fab432;}</style></defs><title>PP_Logo_H_Standard</title><g id="Layer_2" data-name="Layer 2"><g id="PP_Logo_H_Standard"><path class="cls-1" d="M379.23,149.26h-7.46v9.84h-8.51V119.42h16a14.92,14.92,0,0,1,0,29.84Zm6.08-14.92c0-4.28-2.8-7.88-6.18-7.88h-7.36v15.76h7.36C382.51,142.22,385.31,138.68,385.31,134.34Z"/><path class="cls-1" d="M419.28,159.1h-8.47V119.42h8.47Z"/><path class="cls-1" d="M472.23,152.64a20.73,20.73,0,0,1-15.61,6.93,20.29,20.29,0,1,1,0-40.57,20.78,20.78,0,0,1,15.66,7l-5.71,5.72a11.5,11.5,0,0,0-9.95-5.66c-7,0-11.9,6.4-11.9,13.22s4.81,13.28,11.9,13.28c3,0,6-.9,10-5.5Z"/><path class="cls-1" d="M522.43,159.1h-9.1l-3.23-7.62H496.61l-3.12,7.62h-9.15l16.35-39.68h5.45Zm-15-14.65L503.39,133c-1.22,3.28-2.7,7.72-4.08,11.43Z"/><path class="cls-1" d="M552.74,149.26h-7.46v9.84h-8.52V119.42h16a14.92,14.92,0,0,1,0,29.84Zm6.08-14.92c0-4.28-2.8-7.88-6.19-7.88h-7.35v15.76h7.35C556,142.22,558.82,138.68,558.82,134.34Z"/><path class="cls-1" d="M592.78,159.1h-8.46V119.42h8.46Z"/><path class="cls-1" d="M627.7,149.26h-7.46v9.84h-8.52V119.42h16a14.92,14.92,0,0,1,0,29.84Zm6.08-14.92c0-4.28-2.8-7.88-6.19-7.88h-7.35v15.76h7.35C631,142.22,633.78,138.68,633.78,134.34Z"/><path class="cls-1" d="M688.27,152.06v7H659.59V119.42h27.72v7H668.06V135h15.76v7.09H668.06v10Z"/><path class="cls-1" d="M393.64,192.48v17.8h-4.7v-4.07a15.62,15.62,0,0,1-11.44,4.49,16.29,16.29,0,0,1,0-32.58A15.43,15.43,0,0,1,389.28,183l-3.1,3.09A11,11,0,0,0,377.5,182c-6.83,0-11.4,5.46-11.4,12.37,0,6,4.36,12.41,11.4,12.41a10.3,10.3,0,0,0,8-3.26,13.48,13.48,0,0,0,3.31-7.16h-8.09v-3.9Z"/><path class="cls-1" d="M445,178.5v31.78h-4.7V186.42l-12.25,23.86h-2.67l-12.24-23.86v23.86h-4.7V178.5h5.67l12.59,24.58,12.58-24.58H445Z"/><path class="cls-1" d="M483.61,200.53a9.61,9.61,0,0,1-9.45,9.75H461.57V178.5h12.59a7.89,7.89,0,0,1,7.71,8.05,8.33,8.33,0,0,1-2.42,5.89A9.82,9.82,0,0,1,483.61,200.53Zm-17.33-9.74h8c1.61-.13,2.89-2,2.89-4.24s-1.36-4.15-3-4.15h-7.88Zm12.62,9.74c0-3.13-2-5.72-4.53-5.84h-8.09v11.69h7.88C476.78,206.38,478.9,203.75,478.9,200.53Z"/><path class="cls-1" d="M522.8,178.5v31.78h-4.7V196.34h-15v13.94h-4.7V178.5h4.7v13.94h15V178.5Z"/><path class="cls-2" d="M54.55,46.56l-7.29-9.32A175.77,175.77,0,0,1,223.72,13.8l-4.61,10.9A163.91,163.91,0,0,0,54.55,46.56Z"/><path class="cls-3" d="M7.1,175.56H0A155.38,155.38,0,0,1,155.38,20.18v7.1C73.62,27.28,7.1,93.8,7.1,175.56Z"/><circle class="cls-1" cx="155.38" cy="175.56" r="138.35" transform="translate(-21.38 21.55) rotate(-7.42)"/><path class="cls-4" d="M179,178.41c-11.4,0-24.82-9.67-27.39-11.61l4.62-6.15c5,3.74,15.34,10.07,22.77,10.07,15.09,0,26.92-12,26.92-27.37,0-14.83-12.95-27.36-28.27-27.36H123.84v14.08H139v20.31h-7.7V137.76H116.15V108.3h61.52a36.2,36.2,0,0,1,25.19,10.21,34.3,34.3,0,0,1,10.77,24.84,35.12,35.12,0,0,1-10,24.76A34.14,34.14,0,0,1,179,178.41Z"/><path class="cls-5" d="M173.74,242.83H119.27V222.69h3.85c10.88,0,10.88-4.53,10.88-7.53V199.57c0-6.62,0-7.47-4-11-5-4.34-6-8.72-6-14a19.37,19.37,0,0,1,19.24-19.45c5.52,0,8.56,2.07,13.05,5.46l-4.62,6.15c-4.22-3.18-5.5-3.92-8.43-3.92a11.54,11.54,0,0,0-11.55,11.76c0,3.69.47,5.64,3.38,8.16,6.68,5.79,6.67,9.7,6.66,16.78v15.58c0,6.32-2.67,13.75-14.73,15v4.95h39.09v-5c-11.7-1.31-14.29-8.71-14.29-15v-4h7.69v4c0,3.81.81,7.53,10.44,7.53h3.85Z"/></g></g></svg>