<?xml version="1.0" encoding="iso-8859-1"?>
<!-- Generator: Adobe Illustrator 22.1.0, SVG Export Plug-In . SVG Version: 6.00 Build 0)  -->
<svg version="1.1" xmlns="http://www.w3.org/2000/svg" xmlns:xlink="http://www.w3.org/1999/xlink" x="0px" y="0px"
	 viewBox="0 0 32 32" style="enable-background:new 0 0 32 32;" xml:space="preserve">
<g id="info">
	<g>
		<path d="M16,29C8.832,29,3,23.168,3,16C3,8.832,8.832,3,16,3c7.168,0,13,5.832,13,13C29,23.168,23.168,29,16,29z M16,5
			C9.935,5,5,9.935,5,16s4.935,11,11,11s11-4.935,11-11S22.065,5,16,5z"/>
	</g>
	<g>
		<path d="M16,17.5c-0.829,0-1.5-0.671-1.5-1.5v-6c0-0.829,0.671-1.5,1.5-1.5s1.5,0.671,1.5,1.5v6C17.5,16.829,16.829,17.5,16,17.5z
			"/>
	</g>
	<g>
		<circle style="fill-rule:evenodd;clip-rule:evenodd;" cx="16" cy="21" r="2"/>
	</g>
</g>
<g id="Layer_1">
</g>
</svg>
