<?xml version="1.0" encoding="iso-8859-1"?>
<!-- Generator: Adobe Illustrator 22.1.0, SVG Export Plug-In . SVG Version: 6.00 Build 0)  -->
<svg version="1.1" xmlns="http://www.w3.org/2000/svg" xmlns:xlink="http://www.w3.org/1999/xlink" x="0px" y="0px"
	 viewBox="0 0 32 32" style="enable-background:new 0 0 32 32;" xml:space="preserve">
<g id="message">
	<g>
		<path d="M27,9v14H5V9H27 M27,7H5C3.895,7,3,7.895,3,9v14c0,1.105,0.895,2,2,2h22c1.105,0,2-0.895,2-2V9C29,7.895,28.105,7,27,7
			L27,7z"/>
	</g>
	<g>
		<path d="M16,19c-0.256,0-0.512-0.098-0.707-0.293l-10-10c-0.391-0.391-0.391-1.023,0-1.414s1.023-0.391,1.414,0L16,16.586
			l9.293-9.293c0.391-0.391,1.023-0.391,1.414,0s0.391,1.023,0,1.414l-10,10C16.512,18.902,16.256,19,16,19z"/>
	</g>
</g>
<g id="Layer_1">
</g>
</svg>
