<?xml version="1.0" encoding="iso-8859-1"?>
<!-- Generator: Adobe Illustrator 22.1.0, SVG Export Plug-In . SVG Version: 6.00 Build 0)  -->
<svg version="1.1" xmlns="http://www.w3.org/2000/svg" xmlns:xlink="http://www.w3.org/1999/xlink" x="0px" y="0px"
	 viewBox="0 0 32 32" style="enable-background:new 0 0 32 32;" xml:space="preserve">
<g id="person">
	<g>
		<path d="M16,18c-3.86,0-7-3.14-7-7s3.14-7,7-7c3.859,0,7,3.14,7,7S19.859,18,16,18z M16,6c-2.757,0-5,2.243-5,5s2.243,5,5,5
			s5-2.243,5-5S18.757,6,16,6z"/>
	</g>
	<g>
		<path d="M23,28H9c-1.654,0-3-1.346-3-3v-7c0-1.654,1.346-3,3-3h3.988l0.251,0.167c1.64,1.089,3.88,1.089,5.522,0L19.013,15H23
			c1.654,0,3,1.346,3,3v7C26,26.654,24.654,28,23,28z M9,17c-0.551,0-1,0.448-1,1v7c0,0.552,0.449,1,1,1h14c0.552,0,1-0.448,1-1v-7
			c0-0.552-0.448-1-1-1h-3.396c-2.176,1.311-5.031,1.311-7.207,0H9z"/>
	</g>
</g>
<g id="Layer_1">
</g>
</svg>
